<svg xmlns="http://www.w3.org/2000/svg" xmlns:xlink="http://www.w3.org/1999/xlink" viewBox="0 0 278.49 400.33"><defs><style>.cls-1{fill:#8d5524;}.cls-2{font-size:87.06px;fill:#c93;font-family:TrebuchetMS, Trebuchet MS;}.cls-3{fill:#555;}.cls-4{fill:url(#linear-gradient);}.cls-5{fill:url(#linear-gradient-2);}.cls-6{fill:url(#linear-gradient-3);}.cls-7{fill:url(#linear-gradient-4);}.cls-8{fill:url(#linear-gradient-5);}.cls-9{fill:url(#linear-gradient-6);}.cls-10{fill:url(#linear-gradient-7);}.cls-11{fill:url(#linear-gradient-8);}.cls-12{fill:url(#linear-gradient-9);}.cls-13{fill:url(#linear-gradient-10);}.cls-14{fill:none;stroke:#ebd400;stroke-linecap:round;stroke-miterlimit:1.15;stroke-width:11.41px;}</style><linearGradient id="linear-gradient" x1="52.56" y1="19.7" x2="53.37" y2="27.61" gradientTransform="matrix(0, 5.5, -1, 0, 164.17, -190.32)" gradientUnits="userSpaceOnUse"><stop offset="0" stop-color="#f4d24c"/><stop offset="0.7" stop-color="#fc0" stop-opacity="0.97"/><stop offset="1" stop-color="#dab31a" stop-opacity="0.96"/></linearGradient><linearGradient id="linear-gradient-2" x1="70.13" y1="-150.91" x2="70.94" y2="-143.01" gradientTransform="matrix(-5.5, 0, 0, -1, 528.29, -46.46)" xlink:href="#linear-gradient"/><linearGradient id="linear-gradient-3" x1="31.04" y1="-28.28" x2="31.86" y2="-20.37" gradientTransform="matrix(3.89, 3.88, -0.71, 0.71, 1.25, -4.12)" xlink:href="#linear-gradient"/><linearGradient id="linear-gradient-4" x1="61.4" y1="-32.66" x2="62.22" y2="-24.75" gradientTransform="matrix(-3.88, 3.89, -0.71, -0.71, 360.43, -159.87)" xlink:href="#linear-gradient"/><linearGradient id="linear-gradient-5" x1="24.39" y1="-82.1" x2="25.21" y2="-74.2" gradientTransform="matrix(5.08, 2.1, -0.38, 0.92, -15.08, 120.94)" xlink:href="#linear-gradient"/><linearGradient id="linear-gradient-6" x1="51.6" y1="3.88" x2="52.42" y2="11.78" gradientTransform="matrix(-2.1, 5.08, -0.92, -0.38, 257.16, -160.4)" xlink:href="#linear-gradient"/><linearGradient id="linear-gradient-7" x1="24.22" y1="-209.72" x2="25.04" y2="-201.81" gradientTransform="matrix(5.08, -2.11, 0.38, 0.92, 94.59, 342.72)" xlink:href="#linear-gradient"/><linearGradient id="linear-gradient-8" x1="28.39" y1="4.8" x2="29.2" y2="12.71" gradientTransform="matrix(2.11, 5.08, -0.92, 0.38, 88.16, -48.72)" xlink:href="#linear-gradient"/><linearGradient id="linear-gradient-9" x1="88.58" y1="47.73" x2="192.88" y2="152.03" gradientUnits="userSpaceOnUse"><stop offset="0.11" stop-color="#cd9b44"/><stop offset="0.33" stop-color="#c8aa4a"/><stop offset="0.78" stop-color="#c5a646"/><stop offset="1" stop-color="#9d7118"/></linearGradient><linearGradient id="linear-gradient-10" x1="51.29" y1="521.4" x2="201.07" y2="521.4" gradientTransform="translate(646.42 -78.26) rotate(84.11)" xlink:href="#linear-gradient"/></defs><g id="Layer_2" data-name="Layer 2"><g id="Layer_4" data-name="Layer 4"><path class="cls-1" d="M262.16,124.51l0-11.5-1.63-1.41a7.86,7.86,0,0,0-3.09-1.68c-1.59-.3-1.55-.17-2.19-5.19-.43-3.47-1.12-4.72-3.13-5.49-2.45-1-4.16-.9-6.78.3s-7,5.41-7.81,7.42c-.43,1-1,1.51-3,2.23-5.15,1.85-8.36,4.64-10.6,9.06-1.28,2.53-1.67,3-3.38,3.6-6.53,2.49-10.56,11-10.56,22.4,0,4.24,0,4.37-2,8.36-2.79,5.71-3.52,7.94-4.08,13.17l-.56,4.59-3.3,3.52a27.22,27.22,0,0,0-4.46,6c-1,2.23-1.46,2.7-4.33,4.41-3.69,2.19-8.63,6.57-10.47,9.27a4.68,4.68,0,0,1-3.13,2.32c-4.64,1.2-7.94,2.53-15.23,6.13-7.13,3.52-8.2,4.21-11.89,7.55a58.48,58.48,0,0,0-5.32,5.45c-1.24,1.63-3.9,7.68-3.9,8.75,0,1.38-1.12-.17-2.19-3.13-1.54-4.33-3.43-6.86-8.45-11.28-3.65-3.26-4.85-4-11.84-7.47-4.29-2.05-9.7-4.37-12.06-5.14l-4.29-1.33-3.73-4a40.89,40.89,0,0,0-7.64-6.47c-3.51-2.28-4-2.79-5.4-5.32a33.23,33.23,0,0,0-4.68-6l-3.13-3.22-.21-3.52c-.35-4.8-1.29-8.1-3.74-13.42-2-4.34-2.1-4.72-2.31-9.36-.65-12.27-3.74-18.83-10.34-22-2.28-1.11-2.66-1.45-3.65-3.68-2-4.42-5.15-7.21-10.08-9a6.18,6.18,0,0,1-4-3,18.82,18.82,0,0,0-7-6.61c-2.79-1.5-4.89-1.67-7.38-.64-2,.81-2.92,3-3.22,7.33l-.25,3-1.94.52c-3,.77-4.2,2.23-4.5,5.79-.34,4.12.39,24.49.94,26.6a107,107,0,0,1,.9,11.79c.26,5.54.69,11.63,1,13.52.61,3.3,2.58,8.79,5.62,15.66,1.29,2.91,4.72,13.21,7.68,23.25a14.73,14.73,0,0,0,3.22,6.22,82.47,82.47,0,0,0,10.13,9.52c.73.52,3,2.49,5.14,4.34,12.66,10.94,16.82,14.2,23,18,5.19,3.18,7,5.24,7.42,8.37.35,2.49-.3,12.27-1.24,19.69-.6,4.72-.6,4.76,2,4.51l1.42-.13.3-4.29c.86-13.3.9-18.41.17-20.85-1.07-3.78-3-6.22-7.16-9.14-3.48-2.45-11.29-8.32-23.77-18a137,137,0,0,1-10.77-9.52c-6.13-6.09-6-5.84-8.15-13.94a179.45,179.45,0,0,0-7.42-20.68c-.73-1.55-2.06-4.89-3-7.34-1.63-4.29-1.8-5.06-2.78-15-.6-5.71-1.2-11.89-1.33-13.64s-.56-4.68-.9-6.44c-1.08-5.83-.78-8.07,1.24-9s2.87-3,2.87-7.76c0-3.74-.08-4.17-1-5a3.69,3.69,0,0,0-2.15-1c-1.54,0-1.5-.94.17-2.31,1.85-1.55,3.95-1.51,6.48.17,4.64,3,7.34,9.22,8.5,19.09.55,5,.55,7.08-.05,7.08a4.65,4.65,0,0,1-1.76-1.08c-1.8-1.54-2-1-.38.86,3.6,4.12,6.82,11.8,7.89,18.75,1,6.18,1.07,5.75-1.37,6.05a12.55,12.55,0,0,0-3.52.94,14.23,14.23,0,0,0-5.15,5.71c-.38,1.2-.3,1.72.82,4.08a42.13,42.13,0,0,0,4.2,6.39,61.33,61.33,0,0,1,5.07,7.72c3.47,6.56,4.63,8.11,9.73,12.87a145.5,145.5,0,0,1,15.11,16.47A22.23,22.23,0,0,0,72,222.28c1.59,1.2,4.12,1.68,4.42.78.13-.31-1.89-2.75-4.46-5.41a86.57,86.57,0,0,1-6.27-7.34c-1-1.5-3.81-4.29-7.33-7.29-6.74-5.79-9-8.28-11.29-12.44-.94-1.67-2.05-3.65-2.53-4.42-.81-1.37-.77-1.37.13-2.36a8.58,8.58,0,0,0,2.1-6.09c-.3-1.67-3.6-6.39-4.93-7.08s-3-.52-4.55.86c-1,.9-1.5,1.11-1.5.73,0-1,1.85-3.48,3.43-4.55,1.38-.94,1.89-1,5.88-.86,4.25.13,4.42.17,8.5,2.27a41.46,41.46,0,0,1,16.6,16.78c1.33,2.57,1.41,2.62,5.88,4.76a34.68,34.68,0,0,1,7.5,4.81l3,2.61h14.5l4.8,1.68c5.62,1.93,6.91,2.57,12.53,6.09,8.11,5.06,13.6,10.25,15.87,15a58,58,0,0,1,4.08,13.73c.47,3.17.34,19.73-.3,36.12l-.3,6.78h7.42V273c0-2.45-.39-9.44-.9-15.53-1.16-14.54-.73-23.81,1.59-33.21,1-4.16,2.06-5.79,5.92-9.65a69.69,69.69,0,0,1,22.39-14.46l4.68-1.84,6.86-.09,8-.08a7.07,7.07,0,0,0,3.31-1.93,33.9,33.9,0,0,1,9.48-6.14c3.05-1.33,3.3-1.5,4.55-4a42.27,42.27,0,0,1,16.34-16.81l4.21-2.28h5l5,0,1.54,1.5c1.67,1.59,3,3.78,2.62,4.21-.17.12-.9-.39-1.68-1.12-2.27-2.19-4.37-1.76-6.82,1.42a16.87,16.87,0,0,0-2.31,3.9c-.69,1.76-.69,2,0,3.86a11.86,11.86,0,0,0,1.67,3l1,1.11-2.15,3.65c-3.73,6.56-5.66,8.75-13.6,15.53-4.07,3.47-5.32,4.85-7.07,7.51a61.47,61.47,0,0,1-5.8,6.56c-2.4,2.4-4.29,4.63-4.16,4.94.3.9,2.83.42,4.42-.78a22.61,22.61,0,0,0,3.35-3.56A155.64,155.64,0,0,1,223,206.88c.73-.69,3.48-3.3,6.1-5.88,4.37-4.29,5-5.1,7.8-10.38a82.67,82.67,0,0,1,6.14-9.52c3.69-4.64,5.32-7.85,4.93-9.74s-3-4.89-5.1-6a14,14,0,0,0-3.69-1.21l-2-.25.18-1.93c.51-7.81,3.68-16.65,7.72-21.8a13,13,0,0,0,1.76-2.49c0-.12-.69.26-1.55.9s-1.67,1-1.89.82c-.47-.51.18-8.54,1-12.4,1.33-6.18,2.92-9.35,6.27-12.4,3.22-2.83,5.92-3.13,8.32-.9,1.33,1.25,1.16,1.93-.56,1.93-2.23,0-2.83,1.29-2.83,6.18,0,5.06.64,6.74,3,7.72,1.46.65,1.51.69,1.51,3.18a58.43,58.43,0,0,1-.65,6.73c-.34,2.36-.94,7.55-1.28,11.59-1.42,15.48-1.85,18-3.95,23.38-1.07,2.7-2.4,5.79-2.92,6.86-2.06,4.16-6.86,18.15-8.15,23.81a18,18,0,0,1-1.8,4.64c-1.72,2.44-11.24,11.41-15.75,14.84-2.18,1.63-5.32,4.12-7,5.49s-4.63,3.69-6.61,5.15c-8.1,6-9.86,7.29-12.14,8.88-5.75,4.08-6.95,9-5.66,23.72.39,4.29.69,8.2.69,8.67,0,.77.25.9,1.93.9,1.07,0,1.93-.13,1.93-.34s-.26-2.45-.6-5c-1-7-1.59-16.52-1.33-18.23.55-3.09.68-3.44,2-4.94a42.46,42.46,0,0,1,6.18-4.5c5.23-3.26,9.14-6.27,17.59-13.52,3-2.61,7.16-6.05,9.18-7.68s5.75-5,8.24-7.55c5-5.06,4.67-4.42,7.67-14.8a199.89,199.89,0,0,1,7.51-21.23c1.33-3.18,2.79-6.87,3.22-8.2.9-2.74,1.59-9.27,1.93-19.05.17-3.77.64-9,1-11.58C262.07,137,262.2,133.69,262.16,124.51Zm-240-8a4.69,4.69,0,0,1,1.67.43c2.74,1.46,1.41,11.58-1.5,11.58-.65,0-1.08-3.26-1.08-8.28C21.22,116.79,21.27,116.53,22.13,116.53ZM40.06,171a6.64,6.64,0,0,1,2.1,1.63c1.89,1.88,3.52,5,3.52,6.6,0,1.08-1.85,3.78-2.53,3.78s-6.48-7.6-6.48-8.37S39.29,171,40.06,171Zm18.1-2.15A42.35,42.35,0,0,1,54.09,167a37.8,37.8,0,0,0-5.79-2.4c-2.15-.51-2.15-.51-2.41-2.49a60.12,60.12,0,0,0-4.42-15.74c-1.75-3.56-1.88-4.08-1.75-6.65.42-8.11-2.1-19.08-6-24.43l-5.32-6.08c-.87-2.29.09-4.93.09-5.1a4,4,0,0,1,1.8-3c1.63-.69,4.93-.13,6.91,1.15,2.7,1.81,5.53,6.35,6.86,11a66.13,66.13,0,0,1,2.53,15.49c.13,3.94.09,4-1.58,3.39-.56-.22,0,.6,1.37,2.27a28.39,28.39,0,0,1,5.88,11.5c1.88,6.73,2.7,15.36,1.45,15.74-.34.13.13.78,1.08,1.63C56.4,164.67,58.94,168.87,58.16,168.87ZM70,180c-.81,0-1.63-.64-3.21-2.7-1.2-1.46-3.05-3.52-4.12-4.59a8.86,8.86,0,0,1-2.4-3.43,23.73,23.73,0,0,0-2.36-4.51,11.93,11.93,0,0,1-2-4.29,60.53,60.53,0,0,0-1.67-11.71c-1.37-6.56-1.89-8-4.38-12l-1.76-2.83L48,127.47a58.42,58.42,0,0,0-1-10.85c-1.33-6.48-1.37-6.35,2.19-4.55,2.74,1.41,3.94,2.7,5.79,6.35s2.7,8.06,2.66,13.47c0,4.76-.3,5.83-1.25,5.23a3,3,0,0,0-1.15-.43c-1,0-.56.78,1,1.76a12.83,12.83,0,0,1,2.4,1.85l.91.9-.35-1.07a12.58,12.58,0,0,1-.21-3.65c.13-1.42.21-4.85.21-7.64,0-3,.17-5,.43-5,1.2,0,4.81,3.44,5.88,5.58a51.06,51.06,0,0,1,3.65,14.33c.21,3,.17,3.48-.52,4s-.73.64.52,2c3,3.14,6.13,12.62,6.13,18.75,0,2-.09,2.15-1.07,2.15-1.59,0-1.29.64.6,1.2,3.26,1,6.82,5.23,7.59,9.05.26,1.29.26,1.33-.77.94a46.77,46.77,0,0,0-4.72-1.11l-3.69-.73-.94-3.26c-1.29-4.46-3.61-8.92-5.79-11.24l-1.85-1.93-.21-5.15a44.88,44.88,0,0,0-1-7.68c-.81-3.05-2.27-6.48-2.61-6.18a13.41,13.41,0,0,0,.64,3.61,55.44,55.44,0,0,1,1.76,11.79v2.19l-1.5-.17c-.82-.09-1.5,0-1.5.09a13.48,13.48,0,0,0,2.48,2.23c4.08,3.17,6.78,8,8.07,14.41C71.08,179.9,71,180,70,180Zm23,15.11-5.06.25L86,193.67A32.76,32.76,0,0,0,75.71,188c-2.4-.73-2.66-.94-3.9-3.13-1-1.76-1.21-2.45-.78-2.66.82-.51,4.89,0,9.31,1.12,4,1,5.92,1.93,10.6,5.06,2.62,1.71,7.08,5.7,7.08,6.26C98,194.78,95.74,195,93,195.13ZM238.26,183c-.55,0-2.53-3.09-2.53-4,0-2,4.25-8,5.67-8a5.79,5.79,0,0,1,1.88,1.45,4.77,4.77,0,0,1,1.46,2.28C244.74,175.56,239,183,238.26,183Zm-28.53,1.76c-1.2,2.18-1.37,2.31-4.46,3.39a28,28,0,0,0-9.91,5.57l-1.71,1.63-5.15-.21a26.09,26.09,0,0,1-5.11-.52c0-.47,3.52-3.69,6-5.49a39.66,39.66,0,0,1,11.24-5.79,49.63,49.63,0,0,1,8.71-1.54,1.66,1.66,0,0,1,1,.3C210.85,182.43,210.72,182.94,209.73,184.79Zm9.66-12.66c-.73.69-2.58,2.75-4.12,4.55-2.06,2.49-3.05,3.34-3.82,3.34-1.24,0-1.24.09-.17-3.77,1.63-5.88,4.46-10.08,8.71-12.87,2.06-1.37,2-1.76-.13-1.5l-1.72.25v-1.75a63,63,0,0,1,1.76-11.84c1-3.82.86-5.15-.26-2.62A39,39,0,0,0,217,158.57l-.25,4.94-1.93,2.14c-2.49,2.79-4.77,7.77-6.31,13.77a6.06,6.06,0,0,1-2.87,1c-1.46.3-3.61.82-4.72,1.12s-2.06.43-2.06.21a17.14,17.14,0,0,1,.9-2.79,12.82,12.82,0,0,1,6.69-7l2.49-1.16-1.46-.13-1.46-.13.26-3.09c.3-4,2.1-11.24,3.52-14a19.2,19.2,0,0,1,2.66-3.87c1.07-1.2,1.33-1.71.81-1.71-1.67,0-1.24-6,.95-13.34,1.28-4.21,2.1-6,3.43-7.55a16.63,16.63,0,0,1,4.33-3.14,38.43,38.43,0,0,1,.39,5.92c.08,3.22.17,6.74.21,7.81a7.69,7.69,0,0,1-.34,2.75c-.22.51.51.13,2-1a13.16,13.16,0,0,0,2.45-2.19c.21-.51-1.08-.47-1.42,0a1,1,0,0,1-.73.43c-.3,0-.38-2.36-.26-7.21.18-6.09.35-7.5,1.12-9.56,1.5-3.78,3.86-6.87,6.52-8.45,2.83-1.68,3.69-1.63,3.52.13-.09.72-.47,2.44-.82,3.86a51.6,51.6,0,0,0-.94,10.08l-.26,7.55-1.37,2.1c-3.26,5.11-5.45,13-6.35,22.95a9.83,9.83,0,0,1-2.14,6,24.5,24.5,0,0,0-2.32,4.33A7.63,7.63,0,0,1,219.39,172.13Zm33.33-64.35a13.15,13.15,0,0,1-.72,2.31c-3.58,4.77-4.47,5.5-6.23,8.8a33.6,33.6,0,0,0-2.62,6.86c-1.07,3.82-1.2,5-1.2,10.73l0,6.44-1.37,2.35c-2.06,3.65-4.46,12-4.89,17.12-.13,1.42-.26,1.55-2.49,2.19a49,49,0,0,0-6,2.53,14.4,14.4,0,0,1-3.77,1.59c-.52-.47,1.76-4.21,3.43-5.62,1.16-1,1.5-1.5,1-1.5-.86,0-.9-1.29-.3-7.3.9-8.23,3.78-15.91,7.51-19.9,2.06-2.19,2.23-2.83.6-2l-.94.52.25-5.06c.47-9.18,2.53-17,5.67-21.71a17.5,17.5,0,0,1,3-3.61c3.13-2.05,7.08-2.31,8.45-.6C253.24,103.32,253.06,106.12,252.72,107.78Zm7.38,14.5a35.78,35.78,0,0,1-.43,6.05c-.51.56-2.14-.73-2.74-2.15-.91-2.14-.91-6.56,0-8.28.55-1.11,1-1.37,2-1.37h1.33Z" transform="translate(-2.02)"/></g><g id="Layer_2-2" data-name="Layer 2"><text class="cls-2" transform="translate(4.67 348.17)">eHulog</text><path class="cls-3" d="M2.11,391.51,2,385.38H3.9l.68,3.32a.86.86,0,0,0,.29.44c.17.15.31.27.43.36a13.49,13.49,0,0,0,1.32.73,7.77,7.77,0,0,0,1.53.57,6.58,6.58,0,0,0,1.66.22,6.36,6.36,0,0,0,3.92-1.09,3.55,3.55,0,0,0,1.42-3,3.33,3.33,0,0,0-.85-2.35A6.16,6.16,0,0,0,12,383.08c-.92-.38-1.82-.71-2.71-1s-1.76-.59-2.62-.94a7.06,7.06,0,0,1-3-2.26,5.68,5.68,0,0,1-1.1-3.52,5.55,5.55,0,0,1,1-3.3,7.1,7.1,0,0,1,2.79-2.29,9.06,9.06,0,0,1,3.94-.84,20,20,0,0,1,2.5.16c.8.11,1.56.24,2.28.4l2,.48v5.87H15.28l-.64-3.13a.83.83,0,0,0-.29-.44,3.69,3.69,0,0,0-.43-.35,4.73,4.73,0,0,0-.9-.5,7.36,7.36,0,0,0-1.2-.38,6.85,6.85,0,0,0-1.4-.14,5.7,5.7,0,0,0-3.53,1,2.86,2.86,0,0,0-1.26,2.35,4.33,4.33,0,0,0,.68,2.33,5.09,5.09,0,0,0,2.62,1.8c.85.31,1.69.6,2.51.88s1.72.62,2.69,1a10,10,0,0,1,2,1.17,5.41,5.41,0,0,1,2.25,4.66,6.51,6.51,0,0,1-.91,3.32A6.75,6.75,0,0,1,14.64,392a11.49,11.49,0,0,1-5.15,1,13,13,0,0,1-2.34-.23c-.82-.15-1.66-.33-2.51-.56S2.94,391.74,2.11,391.51Z" transform="translate(-2.02)"/><path class="cls-3" d="M30.21,392.82a8.58,8.58,0,0,1-4.37-1.08,7.42,7.42,0,0,1-2.91-3.11,10.24,10.24,0,0,1-1-4.8,10.07,10.07,0,0,1,1-4.62A8,8,0,0,1,25.86,376a8.28,8.28,0,0,1,4.51-1.2A8.09,8.09,0,0,1,35,376a7.55,7.55,0,0,1,2.74,3.3,10.8,10.8,0,0,1,.91,4.45,10,10,0,0,1-1,4.58,8.1,8.1,0,0,1-2.92,3.27A8.32,8.32,0,0,1,30.21,392.82Zm.22-1.74a3.91,3.91,0,0,0,2.31-.64,4.61,4.61,0,0,0,1.44-1.68,8,8,0,0,0,.76-2.26,13.15,13.15,0,0,0-.27-6,6.31,6.31,0,0,0-1.6-2.85,4,4,0,0,0-2.94-1.11,3.94,3.94,0,0,0-2.29.64,4.49,4.49,0,0,0-1.45,1.66,8.31,8.31,0,0,0-.77,2.25,13,13,0,0,0-.23,2.37,14.19,14.19,0,0,0,.25,2.64,9.51,9.51,0,0,0,.82,2.48A5.16,5.16,0,0,0,28,390.38,4,4,0,0,0,30.43,391.08Z" transform="translate(-2.02)"/><path class="cls-3" d="M56.1,388.15h.48V390a17.93,17.93,0,0,1-2.84,1.89,8.5,8.5,0,0,1-8.08-.21,7.47,7.47,0,0,1-2.74-3.09,10,10,0,0,1-1-4.5,9,9,0,0,1,.76-3.73,9.29,9.29,0,0,1,2.06-2.94,9.5,9.5,0,0,1,2.93-1.93,9,9,0,0,1,3.42-.68,9.06,9.06,0,0,1,2.21.24,10,10,0,0,1,1.61.55l1.06.51-.11,3.23h-.72c-.57-.33-1.13-.68-1.67-1a9.52,9.52,0,0,0-1.8-.92,6.22,6.22,0,0,0-2.26-.38,3.77,3.77,0,0,0-1.34.3,3,3,0,0,0-1.2.78,5.87,5.87,0,0,0-.71,1,6,6,0,0,0-.58,1.66,12.39,12.39,0,0,0-.23,2.69,8.09,8.09,0,0,0,1.44,5.11A5,5,0,0,0,51,390.36a5.56,5.56,0,0,0,2-.38,9.27,9.27,0,0,0,1.72-.89C55.28,388.74,55.72,388.43,56.1,388.15Z" transform="translate(-2.02)"/><path class="cls-3" d="M58.94,392.42v-1.16l2.42-.64a1.14,1.14,0,0,0,.47-.27.7.7,0,0,0,.19-.52V378.68a.73.73,0,0,0-.2-.54,1.32,1.32,0,0,0-.51-.29L59,377.06v-1.15l6.24-.86v14.78a.74.74,0,0,0,.18.53.94.94,0,0,0,.44.26l2.4.64v1.16Zm4.39-20.59a2.57,2.57,0,0,1-1.14-.25,2,2,0,0,1-.85-.72,1.93,1.93,0,0,1-.32-1.11,1.88,1.88,0,0,1,.69-1.57,2.51,2.51,0,0,1,1.62-.56,2.76,2.76,0,0,1,1.73.52,1.73,1.73,0,0,1,.67,1.48,2.27,2.27,0,0,1-.31,1.19,2.11,2.11,0,0,1-.86.76A2.85,2.85,0,0,1,63.33,371.83Z" transform="translate(-2.02)"/><path class="cls-3" d="M76,392.76a4.92,4.92,0,0,1-2.66-.69,4.83,4.83,0,0,1-1.7-1.78,4.91,4.91,0,0,1-.59-2.35,4.57,4.57,0,0,1,.82-2.77,6,6,0,0,1,2.1-1.81,10.27,10.27,0,0,1,2.7-1,12.26,12.26,0,0,1,2.64-.31c.16,0,.42,0,.78.05l1.07.1.76.09v-2.37a2.93,2.93,0,0,0-.88-2.49,3.75,3.75,0,0,0-2.33-.69,4.86,4.86,0,0,0-1.63.28,9.62,9.62,0,0,0-1.57.7c-.5.29-1,.57-1.39.86l-1.08.72h-.64l-.11-3.12c.62-.23,1.25-.46,1.9-.68a14.75,14.75,0,0,1,2.11-.54,13.56,13.56,0,0,1,2.6-.22,9.59,9.59,0,0,1,3,.46,4.68,4.68,0,0,1,2.34,1.64,5.55,5.55,0,0,1,.89,3.42l0,8.88a1.2,1.2,0,0,0,.47,1,1.66,1.66,0,0,0,1,.37,2.2,2.2,0,0,0,.76-.16,7.59,7.59,0,0,0,.81-.33h.26v1.34a9.89,9.89,0,0,1-.89.56,8.7,8.7,0,0,1-1.23.59,3,3,0,0,1-1.15.26,3.18,3.18,0,0,1-2.25-.7,3,3,0,0,1-.74-2.21H82a6.39,6.39,0,0,1-2,1.87,6.86,6.86,0,0,1-2.14.83A9.72,9.72,0,0,1,76,392.76Zm1.57-2.3a7.51,7.51,0,0,0,2.34-.44,4,4,0,0,0,2-1.4v-4.84a24.79,24.79,0,0,0-3.91.28,5.5,5.5,0,0,0-2.61,1.05,2.74,2.74,0,0,0-.94,2.26,3.17,3.17,0,0,0,.48,1.87,2.55,2.55,0,0,0,1.2.94A3.87,3.87,0,0,0,77.54,390.46Z" transform="translate(-2.02)"/><path class="cls-3" d="M89.71,392.42v-1.16l2.42-.64a1.13,1.13,0,0,0,.45-.27.67.67,0,0,0,.19-.52v-19a.71.71,0,0,0-.22-.55,1.54,1.54,0,0,0-.49-.3l-2.46-.91V368l6.35-.29v22.16a.67.67,0,0,0,.2.52,1.33,1.33,0,0,0,.46.27l2.33.64v1.16Z" transform="translate(-2.02)"/><path class="cls-3" d="M118.7,392.76a6.09,6.09,0,0,1-3.65-1.09,6.94,6.94,0,0,1-2.33-3,10.61,10.61,0,0,1-.82-4.28,11.66,11.66,0,0,1,1-4.86,8.4,8.4,0,0,1,2.81-3.5,7.34,7.34,0,0,1,4.38-1.3,5.74,5.74,0,0,1,2.55.51,5.88,5.88,0,0,1,1.67,1.17v-5.58a.78.78,0,0,0-.18-.55,1.15,1.15,0,0,0-.51-.3l-2.41-.91V368l6.29-.29V389.1a.66.66,0,0,0,.2.52,2,2,0,0,0,.52.31l1.88.77v1.15l-5.42.89h-.08v-2.91h-.21a6.23,6.23,0,0,1-2,2,6.09,6.09,0,0,1-2.06.77A10.9,10.9,0,0,1,118.7,392.76Zm1.78-2.35a5.52,5.52,0,0,0,1.29-.18,5.15,5.15,0,0,0,1.43-.57,3.24,3.24,0,0,0,1.1-1v-11a3.53,3.53,0,0,0-1.13-.46,10,10,0,0,0-1.43-.26,9.85,9.85,0,0,0-1.17-.09,4.77,4.77,0,0,0-3,.88,5.15,5.15,0,0,0-1.75,2.35,8.88,8.88,0,0,0-.57,3.23,11.48,11.48,0,0,0,.54,3.65,5.4,5.4,0,0,0,1.68,2.55A4.5,4.5,0,0,0,120.48,390.41Z" transform="translate(-2.02)"/><path class="cls-3" d="M141.18,392.82a8.61,8.61,0,0,1-4.37-1.08,7.54,7.54,0,0,1-2.91-3.11,10.37,10.37,0,0,1-1-4.8,10.19,10.19,0,0,1,1-4.62,8,8,0,0,1,2.94-3.25,8.28,8.28,0,0,1,4.51-1.2A8.06,8.06,0,0,1,146,376a7.57,7.57,0,0,1,2.75,3.3,11,11,0,0,1,.9,4.45,10.17,10.17,0,0,1-1,4.58,8.06,8.06,0,0,1-2.93,3.27A8.32,8.32,0,0,1,141.18,392.82Zm.23-1.74a3.9,3.9,0,0,0,2.3-.64,4.64,4.64,0,0,0,1.45-1.68,8,8,0,0,0,.76-2.26,13.54,13.54,0,0,0-.27-6,6.41,6.41,0,0,0-1.6-2.85,4.45,4.45,0,0,0-5.24-.47,4.47,4.47,0,0,0-1.44,1.66,8,8,0,0,0-.77,2.25,12.19,12.19,0,0,0-.23,2.37,15.07,15.07,0,0,0,.24,2.64,9.17,9.17,0,0,0,.83,2.48,5.13,5.13,0,0,0,1.54,1.84A4,4,0,0,0,141.41,391.08Z" transform="translate(-2.02)"/><path class="cls-3" d="M153.73,384.5v-2.73h9.61v2.73Z" transform="translate(-2.02)"/><path class="cls-3" d="M174.53,386.44a9.11,9.11,0,0,1-1.84-.18,6.53,6.53,0,0,1-1.3-.35,1.7,1.7,0,0,0-.77.59,1.86,1.86,0,0,0-.37,1.17,2,2,0,0,0,1.28,1.78h6a7.69,7.69,0,0,1,3.49.66,4.12,4.12,0,0,1,2.4,3.71,5.14,5.14,0,0,1-1.22,3.37,8.1,8.1,0,0,1-3.28,2.31,12.33,12.33,0,0,1-4.61.83,13.87,13.87,0,0,1-3.91-.51,6.35,6.35,0,0,1-2.74-1.48,3.2,3.2,0,0,1-1-2.36,3.33,3.33,0,0,1,1.07-2.6,5.55,5.55,0,0,1,2.47-1.32v-.21a5.05,5.05,0,0,1-1.15-.56,3.49,3.49,0,0,1-1-1,2.63,2.63,0,0,1-.41-1.48,3,3,0,0,1,.46-1.7,3.72,3.72,0,0,1,1.16-1.11,4.13,4.13,0,0,1,1.36-.56v-.18a7.32,7.32,0,0,1-1.25-.93,4.62,4.62,0,0,1-1.55-3.63,5.58,5.58,0,0,1,3.22-5.18,8.1,8.1,0,0,1,3.64-.77,14.14,14.14,0,0,1,2.05.13c.61.08,1.2.19,1.77.32h5.67l-.1,2L180,377v.14A9.46,9.46,0,0,1,181,378.7a4.5,4.5,0,0,1,.4,2.06,5.23,5.23,0,0,1-1.81,4.06A7.34,7.34,0,0,1,174.53,386.44ZM175,398.5a9.81,9.81,0,0,0,2.66-.36,4.82,4.82,0,0,0,2.13-1.18,2.92,2.92,0,0,0,.84-2.18,2.62,2.62,0,0,0-.79-1.77,3.38,3.38,0,0,0-2.6-.87h-5.54a2.77,2.77,0,0,0-1.29.89,3,3,0,0,0-.64,2.05,2.6,2.6,0,0,0,.53,1.68,3.67,3.67,0,0,0,1.37,1.05,6.93,6.93,0,0,0,1.73.53A8.91,8.91,0,0,0,175,398.5ZM174.56,385a3.62,3.62,0,0,0,1.95-.5,3.12,3.12,0,0,0,1.22-1.48,6.11,6.11,0,0,0,.43-2.47,4.53,4.53,0,0,0-1-3.2,3.6,3.6,0,0,0-4.28-.62,3.12,3.12,0,0,0-1.24,1.36,5.62,5.62,0,0,0-.47,2.48,5,5,0,0,0,.94,3.33A3,3,0,0,0,174.56,385Z" transform="translate(-2.02)"/><path class="cls-3" d="M195.12,392.82a8.58,8.58,0,0,1-4.37-1.08,7.42,7.42,0,0,1-2.91-3.11,10.24,10.24,0,0,1-1-4.8,10.07,10.07,0,0,1,1-4.62,8,8,0,0,1,2.94-3.25,8.25,8.25,0,0,1,4.51-1.2A8.09,8.09,0,0,1,200,376a7.55,7.55,0,0,1,2.74,3.3,10.8,10.8,0,0,1,.91,4.45,10,10,0,0,1-1,4.58,8,8,0,0,1-2.92,3.27A8.32,8.32,0,0,1,195.12,392.82Zm.22-1.74a3.91,3.91,0,0,0,2.31-.64,4.61,4.61,0,0,0,1.44-1.68,8,8,0,0,0,.76-2.26,13.15,13.15,0,0,0-.27-6,6.31,6.31,0,0,0-1.6-2.85,4.44,4.44,0,0,0-5.23-.47,4.49,4.49,0,0,0-1.45,1.66,8.31,8.31,0,0,0-.77,2.25,13,13,0,0,0-.23,2.37,14.19,14.19,0,0,0,.25,2.64,9.15,9.15,0,0,0,.82,2.48,5.16,5.16,0,0,0,1.55,1.84A4,4,0,0,0,195.34,391.08Z" transform="translate(-2.02)"/><path class="cls-3" d="M215.2,392.82a8.58,8.58,0,0,1-4.37-1.08,7.42,7.42,0,0,1-2.91-3.11,10.24,10.24,0,0,1-1-4.8,10.07,10.07,0,0,1,1-4.62,8.08,8.08,0,0,1,2.93-3.25,8.31,8.31,0,0,1,4.52-1.2A8.11,8.11,0,0,1,220,376a7.61,7.61,0,0,1,2.74,3.3,10.8,10.8,0,0,1,.91,4.45,10.17,10.17,0,0,1-1,4.58,8.06,8.06,0,0,1-2.93,3.27A8.26,8.26,0,0,1,215.2,392.82Zm.22-1.74a3.86,3.86,0,0,0,2.3-.64,4.55,4.55,0,0,0,1.45-1.68,8,8,0,0,0,.76-2.26,13.15,13.15,0,0,0-.27-6,6.31,6.31,0,0,0-1.6-2.85,4.44,4.44,0,0,0-5.23-.47,4.49,4.49,0,0,0-1.45,1.66,8.31,8.31,0,0,0-.77,2.25,13,13,0,0,0-.23,2.37,14.19,14.19,0,0,0,.25,2.64,9.15,9.15,0,0,0,.82,2.48,5.16,5.16,0,0,0,1.55,1.84A4,4,0,0,0,215.42,391.08Z" transform="translate(-2.02)"/><path class="cls-3" d="M233.76,392.76a6.07,6.07,0,0,1-3.65-1.09,7,7,0,0,1-2.34-3,10.78,10.78,0,0,1-.81-4.28,11.66,11.66,0,0,1,1-4.86,8.5,8.5,0,0,1,2.82-3.5,7.33,7.33,0,0,1,4.37-1.3,5.68,5.68,0,0,1,2.55.51,6.08,6.08,0,0,1,1.68,1.17v-5.58a.78.78,0,0,0-.19-.55,1.17,1.17,0,0,0-.5-.3l-2.42-.91V368l6.29-.29V389.1a.63.63,0,0,0,.21.52,2.1,2.1,0,0,0,.51.31l1.89.77v1.15l-5.43.89h-.08v-2.91h-.2a6.25,6.25,0,0,1-2,2,6.09,6.09,0,0,1-2.06.77A10.91,10.91,0,0,1,233.76,392.76Zm1.77-2.35a5.52,5.52,0,0,0,1.3-.18,5.22,5.22,0,0,0,1.42-.57,3.28,3.28,0,0,0,1.11-1v-11a3.63,3.63,0,0,0-1.13-.46,10.24,10.24,0,0,0-1.43-.26,9.85,9.85,0,0,0-1.17-.09,4.78,4.78,0,0,0-3,.88,5.13,5.13,0,0,0-1.74,2.35,8.88,8.88,0,0,0-.57,3.23,11.78,11.78,0,0,0,.53,3.65,5.4,5.4,0,0,0,1.68,2.55A4.54,4.54,0,0,0,235.53,390.41Z" transform="translate(-2.02)"/><path class="cls-3" d="M256.06,392.79a8.71,8.71,0,0,1-4.19-1,7.31,7.31,0,0,1-3-3,10,10,0,0,1-1.09-4.87,10.16,10.16,0,0,1,1.05-4.65,8.34,8.34,0,0,1,2.91-3.28,7.76,7.76,0,0,1,4.33-1.22,7.54,7.54,0,0,1,3.88.94,6.56,6.56,0,0,1,2.46,2.5,6.88,6.88,0,0,1,.86,3.38c0,.14,0,.31,0,.53s0,.44,0,.65a2.57,2.57,0,0,1-.08.54H250.91l.09-1.66h8.9a8.49,8.49,0,0,0-.39-2.72,3.46,3.46,0,0,0-1.27-1.78,3.87,3.87,0,0,0-2.32-.64,4.24,4.24,0,0,0-2.34.6,4.17,4.17,0,0,0-1.46,1.6,7.39,7.39,0,0,0-.76,2.16,12.41,12.41,0,0,0-.23,2.32,10.81,10.81,0,0,0,.59,3.66,5.21,5.21,0,0,0,1.91,2.58,6,6,0,0,0,3.57,1,7.15,7.15,0,0,0,2.3-.36,10.3,10.3,0,0,0,1.92-.86,12.48,12.48,0,0,0,1.39-.91h.45v1.84a14.41,14.41,0,0,1-3.1,1.84A9.91,9.91,0,0,1,256.06,392.79Z" transform="translate(-2.02)"/><path class="cls-3" d="M266.56,392.42v-1.16l2-.64a1.1,1.1,0,0,0,.46-.27.7.7,0,0,0,.18-.52v-11.1a.85.85,0,0,0-.23-.65,1.48,1.48,0,0,0-.5-.34l-2-.84v-1.13l5.67-.88v3.73h.16a16.88,16.88,0,0,1,1.82-2.24,6,6,0,0,1,1.69-1.24,4.23,4.23,0,0,1,1.74-.38,6.92,6.92,0,0,1,1.56.18,3.15,3.15,0,0,1,1.43.73v4h-1.95l-.47-1.24a1.25,1.25,0,0,0-.69-.64,2.63,2.63,0,0,0-1.07-.24,3.2,3.2,0,0,0-1.62.41,5.23,5.23,0,0,0-1.28,1c-.38.4-.74.81-1.08,1.21v9.65a.75.75,0,0,0,.64.79l2.48.64v1.16Z" transform="translate(-2.02)"/><path class="cls-4" d="M142.43,201.57h-3.24c-.28,0-.5-.46-.51-1L138.54,1c0-.57.22-1,.5-1h3.24c.28,0,.5.46.5,1l.15,199.5C142.93,201.11,142.7,201.57,142.43,201.57Z" transform="translate(-2.02)"/><path class="cls-5" d="M40,102.48V99.24c0-.28.46-.5,1-.5l199.5-.15c.57,0,1,.22,1,.5v3.24c0,.28-.46.5-1,.5L41,103C40.41,103,40,102.76,40,102.48Z" transform="translate(-2.02)"/><path class="cls-6" d="M213.2,170.85l-2.29,2.29c-.2.2-.69,0-1.09-.37L68.65,31.81c-.41-.41-.58-.89-.38-1.09l2.29-2.29c.2-.2.68,0,1.09.37l141.17,141C213.22,170.17,213.39,170.66,213.2,170.85Z" transform="translate(-2.02)"/><path class="cls-7" d="M70.67,173.25,68.37,171c-.19-.2,0-.68.38-1.09l141-141.17c.41-.4.89-.57,1.09-.38l2.29,2.29c.2.2,0,.68-.37,1.09l-141,141.17C71.35,173.28,70.86,173.44,70.67,173.25Z" transform="translate(-2.02)"/><path class="cls-8" d="M234.49,137.79l-1.23,3c-.11.26-.62.29-1.15.07L47.74,64.64c-.53-.22-.87-.6-.77-.86l1.24-3c.11-.26.62-.29,1.15-.07l184.37,76.21C234.26,137.15,234.6,137.53,234.49,137.79Z" transform="translate(-2.02)"/><path class="cls-9" d="M103.73,194.55l-3-1.24c-.26-.11-.29-.62-.07-1.15L176.88,7.79c.21-.53.6-.87.86-.76l3,1.23c.26.11.29.62.07,1.15L104.59,193.78C104.37,194.31,104,194.65,103.73,194.55Z" transform="translate(-2.02)"/><path class="cls-10" d="M233.2,60.65l1.24,3c.1.26-.24.65-.76.86L49.42,141c-.53.22-1,.19-1.15-.07l-1.24-3c-.11-.26.23-.64.76-.86L232.05,60.58C232.58,60.37,233.09,60.4,233.2,60.65Z" transform="translate(-2.02)"/><path class="cls-11" d="M180.87,193.25l-3,1.24c-.25.11-.64-.23-.86-.76L100.53,9.47c-.22-.53-.19-1,.07-1.15l3-1.24c.26-.11.64.24.86.76L180.93,192.1C181.15,192.63,181.12,193.14,180.87,193.25Z" transform="translate(-2.02)"/><path id="path4476" class="cls-12" d="M148.31,173.24a73.75,73.75,0,1,1,65.78-80.93A73.74,73.74,0,0,1,148.31,173.24Z" transform="translate(-2.02)"/><path id="path4796" class="cls-13" d="M214.85,93.14C210.6,52,174,22.06,133,26.29s-70.67,41-66.42,82.15,40.87,71.07,81.8,66.84S219.09,134.28,214.85,93.14Zm-5.32.54a69.16,69.16,0,1,1-75.93-62A69.35,69.35,0,0,1,209.53,93.68Z" transform="translate(-2.02)"/><path class="cls-14" d="M131.65,96.63h41c-3.62-39.08-63-37.15-63.87,2.37-1.3,33.83,46.46,45.05,60.66,15m2.05-17.4H109.94" transform="translate(-2.02)"/></g></g></svg>