<svg xmlns="http://www.w3.org/2000/svg" xmlns:xlink="http://www.w3.org/1999/xlink" viewBox="0 0 297.53 100.6"><defs><style>.cls-1,.cls-15{fill:#b38b6d;}.cls-16,.cls-2{fill:#fff;}.cls-3{fill:tan;}.cls-4{fill:url(#linear-gradient);}.cls-5{fill:url(#linear-gradient-2);}.cls-6{fill:url(#linear-gradient-3);}.cls-7{fill:url(#linear-gradient-4);}.cls-8{fill:url(#linear-gradient-5);}.cls-9{fill:url(#linear-gradient-6);}.cls-10{fill:url(#linear-gradient-7);}.cls-11{fill:url(#linear-gradient-8);}.cls-12{fill:url(#linear-gradient-9);}.cls-13{fill:url(#linear-gradient-10);}.cls-14{fill:none;stroke:#ebd400;stroke-linecap:round;stroke-linejoin:round;stroke-width:4.21px;}.cls-15{font-size:64.05px;font-family:TrebuchetMS, Trebuchet MS;}.cls-16{stroke:#000;stroke-miterlimit:10;stroke-width:0.05px;}</style><linearGradient id="linear-gradient" x1="-14.58" y1="-342.78" x2="-14.28" y2="-339.86" gradientTransform="matrix(0, 5.5, -1, 0, -296.43, 116.75)" gradientUnits="userSpaceOnUse"><stop offset="0" stop-color="#f4d24c"/><stop offset="0.7" stop-color="#fc0" stop-opacity="0.97"/><stop offset="1" stop-color="#dab31a" stop-opacity="0.96"/></linearGradient><linearGradient id="linear-gradient-2" x1="-51.85" y1="-770.6" x2="-51.55" y2="-767.68" gradientTransform="matrix(-5.5, 0, 0, -1, -239.87, -731.73)" xlink:href="#linear-gradient"/><linearGradient id="linear-gradient-3" x1="-48.14" y1="-186.78" x2="-47.84" y2="-183.86" gradientTransform="matrix(3.89, 3.88, -0.71, 0.71, 100.5, 354.69)" xlink:href="#linear-gradient"/><linearGradient id="linear-gradient-4" x1="-23.47" y1="-586.17" x2="-23.16" y2="-583.25" gradientTransform="matrix(-3.88, 3.89, -0.71, -0.71, -459.47, -285.27)" xlink:href="#linear-gradient"/><linearGradient id="linear-gradient-5" x1="-70.4" y1="-172.89" x2="-70.1" y2="-169.97" gradientTransform="matrix(5.08, 2.1, -0.38, 0.92, 336.15, 343.12)" xlink:href="#linear-gradient"/><linearGradient id="linear-gradient-6" x1="-20.94" y1="-463.81" x2="-20.64" y2="-460.89" gradientTransform="matrix(-2.1, 5.08, -0.92, -0.38, -426.1, -33.83)" xlink:href="#linear-gradient"/><linearGradient id="linear-gradient-7" x1="-109.47" y1="-283.59" x2="-109.17" y2="-280.67" gradientTransform="matrix(5.08, -2.11, 0.38, 0.92, 707.87, 67.46)" xlink:href="#linear-gradient"/><linearGradient id="linear-gradient-8" x1="-41.08" y1="-249.11" x2="-40.78" y2="-246.19" gradientTransform="matrix(2.11, 5.08, -0.92, 0.38, -97.67, 339.9)" xlink:href="#linear-gradient"/><linearGradient id="linear-gradient-9" x1="25.58" y1="17.62" x2="64.08" y2="56.12" gradientUnits="userSpaceOnUse"><stop offset="0.11" stop-color="#cd9b44"/><stop offset="0.33" stop-color="#c8aa4a"/><stop offset="0.78" stop-color="#c5a646"/><stop offset="1" stop-color="#9d7118"/></linearGradient><linearGradient id="linear-gradient-10" x1="260.43" y1="185.01" x2="315.72" y2="185.01" gradientTransform="translate(199.29 -268.34) rotate(84.11)" xlink:href="#linear-gradient"/></defs><g id="Layer_2" data-name="Layer 2"><g id="Layer_2-2" data-name="Layer 2"><path class="cls-1" d="M89.66,44.15l0-4a.48.48,0,0,0-.16-.35L89,39.39a2.87,2.87,0,0,0-1.14-.62c-.59-.11-.57-.06-.81-1.92-.16-1.28-.41-1.74-1.16-2a2.71,2.71,0,0,0-2.5.11,8.36,8.36,0,0,0-2.88,2.74c-.16.38-.38.55-1.09.82a6.5,6.5,0,0,0-3.92,3.34c-.47.94-.61,1.1-1.24,1.33-2.42.92-3.9,4.07-3.9,8.27a4.85,4.85,0,0,1-.73,3.09,11.93,11.93,0,0,0-1.51,4.86L68,60.93a.5.5,0,0,1-.13.26l-1.11,1.19a10.16,10.16,0,0,0-1.65,2.22c-.38.83-.54,1-1.6,1.63a15.2,15.2,0,0,0-3.86,3.42,1.75,1.75,0,0,1-1.16.86,26,26,0,0,0-5.62,2.26,14.25,14.25,0,0,0-4.39,2.79,20.85,20.85,0,0,0-2,2,12.44,12.44,0,0,0-1.44,3.23c0,.51-.42-.06-.81-1.15a9.06,9.06,0,0,0-3.12-4.17,14.65,14.65,0,0,0-4.37-2.76c-1.58-.75-3.58-1.61-4.45-1.89l-1.46-.46a.38.38,0,0,1-.21-.13l-1.29-1.4a15.31,15.31,0,0,0-2.82-2.38c-1.3-.85-1.49-1-2-2a11.94,11.94,0,0,0-1.72-2.22l-1-1.06a.48.48,0,0,1-.13-.3l-.07-1.13a12.66,12.66,0,0,0-1.38-5,6.43,6.43,0,0,1-.85-3.45c-.24-4.53-1.38-7-3.82-8.13a2.08,2.08,0,0,1-1.35-1.36,6,6,0,0,0-3.72-3.31A2.25,2.25,0,0,1,9,37.49a7,7,0,0,0-2.59-2.44,2.85,2.85,0,0,0-2.72-.24c-.73.3-1.08,1.09-1.19,2.71l-.06.79a.48.48,0,0,1-.35.42l-.4.11C.57,39.12.14,39.66,0,41a92.76,92.76,0,0,0,.35,9.82,39.36,39.36,0,0,1,.33,4.35c.1,2,.26,4.3.38,5a30.66,30.66,0,0,0,2.08,5.78C3.64,67,4.91,70.79,6,74.5a5.51,5.51,0,0,0,1.19,2.3,31,31,0,0,0,3.74,3.51c.27.19,1.12.92,1.9,1.6,4.67,4,6.21,5.24,8.5,6.64,1.92,1.17,2.6,1.93,2.74,3.09a46.85,46.85,0,0,1-.46,7.26c-.16,1.32-.2,1.65.2,1.69H65.73c.32,0,.46,0,.52-.14a14.71,14.71,0,0,0-.19-1.83,47.08,47.08,0,0,1-.49-6.73c.2-1.14.25-1.27.73-1.82a15.24,15.24,0,0,1,2.28-1.66,49.69,49.69,0,0,0,6.49-5c1.11-1,2.64-2.23,3.39-2.83s2.12-1.85,3-2.79c1.85-1.87,1.73-1.63,2.83-5.46a72.92,72.92,0,0,1,2.78-7.84c.49-1.17,1-2.53,1.18-3a32.63,32.63,0,0,0,.72-7c.06-1.39.23-3.32.38-4.27A34.37,34.37,0,0,0,89.66,44.15ZM1.11,45.64c-.24,0-.4-1.2-.4-3,0-1.29,0-1.38.34-1.38a1.62,1.62,0,0,1,.61.16C2.68,41.91,2.18,45.64,1.11,45.64Zm7.7,20.12a14.83,14.83,0,0,1-2.4-3.09,2.81,2.81,0,0,1,1.26-1.35,2.51,2.51,0,0,1,.77.61,4.46,4.46,0,0,1,1.3,2.43C9.74,64.76,9.06,65.76,8.81,65.76Zm5.54-5.23a16.46,16.46,0,0,1-1.5-.7A14.14,14.14,0,0,0,10.71,59c-.8-.19-.8-.19-.89-.92a22.16,22.16,0,0,0-1.63-5.81,3.73,3.73,0,0,1-.65-2.46c0-.36,0-.73,0-1.12,0-.15,0-.3,0-.44s0-.16,0-.25c0-.28,0-.57-.09-.86s-.09-.67-.15-1-.13-.68-.2-1c0-.14-.06-.28-.1-.42s-.07-.27-.11-.41-.16-.54-.25-.8L6.46,43c-.09-.26-.2-.52-.31-.76s-.22-.46-.33-.67a2.3,2.3,0,0,0-.23-.4l-.24-.36,0-.05L3.44,38.57a.67.67,0,0,1-.09-.14,1.21,1.21,0,0,1-.05-.18,1.25,1.25,0,0,1,0-.19,2,2,0,0,1,0-.35,4.36,4.36,0,0,1,.17-1.09,1.46,1.46,0,0,1,.66-1.11,3.3,3.3,0,0,1,2.55.42A7.86,7.86,0,0,1,9.15,40a24.14,24.14,0,0,1,.94,5.71c.05,1.46,0,1.49-.59,1.25-.2-.08,0,.23.51.84a10.59,10.59,0,0,1,2.17,4.25c.7,2.48,1,5.67.54,5.81-.13.05,0,.29.4.6C13.7,59,14.64,60.53,14.35,60.53Zm3.18,3.12c-.44-.54-1.12-1.3-1.52-1.69a3.17,3.17,0,0,1-.88-1.27A9.06,9.06,0,0,0,14.26,59a4.4,4.4,0,0,1-.74-1.58,21.62,21.62,0,0,0-.61-4.32,10.67,10.67,0,0,0-1.62-4.45l-.61-1a.58.58,0,0,1,0-.18l0-2.25a21.84,21.84,0,0,0-.37-4c-.49-2.39-.5-2.34.81-1.68a4.31,4.31,0,0,1,2.14,2.35,10.72,10.72,0,0,1,1,5c0,1.76-.11,2.15-.46,1.93a1.09,1.09,0,0,0-.43-.16c-.38,0-.2.29.37.65a4.81,4.81,0,0,1,.88.68l.34.34-.13-.4a4.65,4.65,0,0,1-.08-1.35c0-.52.08-1.79.08-2.82a4.74,4.74,0,0,1,.16-1.85c.44,0,1.77,1.27,2.17,2.06a19.09,19.09,0,0,1,1.35,5.29c.07,1.09.06,1.28-.2,1.47s-.27.24.2.73c1.12,1.16,2.26,4.66,2.26,6.92,0,.75,0,.8-.4.8-.58,0-.47.23.22.44A4.86,4.86,0,0,1,23.3,65c.09.48.09.49-.29.35a16,16,0,0,0-1.74-.41l-1.08-.22a.45.45,0,0,1-.36-.33l-.27-.93a11.21,11.21,0,0,0-2.14-4.15l-.6-.62a.58.58,0,0,1-.09-.23l-.07-1.76a16.1,16.1,0,0,0-.35-2.83c-.3-1.13-.84-2.4-1-2.29a4.93,4.93,0,0,0,.23,1.34,20.1,20.1,0,0,1,.65,4.35v.28a.47.47,0,0,1-.47.47h-.08c-.3,0-.55,0-.55,0a5.29,5.29,0,0,0,.91.82,8.57,8.57,0,0,1,3,5.32c.1.46.06.51-.3.51S18.12,64.41,17.53,63.65Zm9.68,6.57-1.68.09a.5.5,0,0,1-.33-.12l-.57-.5a12,12,0,0,0-3.8-2.11,1.77,1.77,0,0,1-1.44-1.16c-.37-.65-.45-.9-.29-1a8.22,8.22,0,0,1,3.44.41,10.61,10.61,0,0,1,3.91,1.87A12.09,12.09,0,0,1,29.06,70,6.79,6.79,0,0,1,27.21,70.22ZM81.72,37.38A6.86,6.86,0,0,1,82.83,36c1.16-.75,2.61-.85,3.12-.22A3,3,0,0,1,86.17,38l-.06.24a1.94,1.94,0,0,1,0,.2,3.33,3.33,0,0,1-.14.37l0,.08-.26.34c-.09.11-.16.22-.24.31l-.14.19-.32.41a11.38,11.38,0,0,0-2.28,4.49,11.1,11.1,0,0,0-.44,4l0,2.26a.47.47,0,0,1,0,.17l-.48.82a20,20,0,0,0-1.8,6.32c-.05.52-.1.57-.92.81a17.9,17.9,0,0,0-2.2.93,5.2,5.2,0,0,1-1.4.59c-.19-.18.65-1.56,1.27-2.08.43-.36.55-.55.38-.55s-.33-.48-.11-2.7c.33-3,1.4-5.87,2.77-7.34.76-.81.83-1,.22-.73l-.34.19.09-1.87C79.8,42,80.56,39.1,81.72,37.38ZM66.61,64.25a4.71,4.71,0,0,1,2.47-2.58l.92-.43-.54-.05h-.09a.46.46,0,0,1-.41-.46L69,60a18.71,18.71,0,0,1,1.3-5.18,7,7,0,0,1,1-1.43c.4-.44.49-.63.3-.63-.62,0-.46-2.23.35-4.92a7.13,7.13,0,0,1,1.27-2.79,6.07,6.07,0,0,1,1.6-1.16A15.3,15.3,0,0,1,75,46.09c0,1.18.06,2.48.08,2.88a2.86,2.86,0,0,1-.13,1c-.08.19.19.05.73-.38a4.11,4.11,0,0,0,.9-.81c.08-.18-.4-.17-.52,0a.37.37,0,0,1-.27.16,8.2,8.2,0,0,1-.1-2.66,9.76,9.76,0,0,1,.42-3.53,6.27,6.27,0,0,1,2.4-3.12c1-.62,1.37-.6,1.3.05,0,.26-.17.9-.3,1.42a19.47,19.47,0,0,0-.35,3.72L79,47.51a.42.42,0,0,1,0,.2l-.46.7a19.56,19.56,0,0,0-2.34,8.48,3.69,3.69,0,0,1-.79,2.22,9,9,0,0,0-.86,1.59,2.67,2.67,0,0,1-.66,1c-.27.26-1,1-1.52,1.68-.76.92-1.13,1.24-1.41,1.24-.46,0-.46,0-.07-1.4a7.9,7.9,0,0,1,3.22-4.75c.76-.5.74-.65,0-.55h-.1a.46.46,0,0,1-.53-.46v-.1A22.9,22.9,0,0,1,74.06,53c.36-1.41.31-1.91-.1-1a14.36,14.36,0,0,0-1,4.67l-.09,1.66a.47.47,0,0,1-.12.29l-.6.66q-.14.15-.27.33c-.05.06-.09.13-.14.2a9.11,9.11,0,0,0-.85,1.5c-.1.21-.19.43-.28.65a13.67,13.67,0,0,0-.51,1.45c-.08.26-.16.52-.23.79,0,0,0,0,0,0a.41.41,0,0,1-.18.23,3.05,3.05,0,0,1-.64.2l-.27.06c-.54.11-1.33.3-1.74.41s-.76.16-.76.08A6.32,6.32,0,0,1,66.61,64.25ZM62.8,68A14.56,14.56,0,0,1,67,65.88a18.89,18.89,0,0,1,3.21-.57.62.62,0,0,1,.38.12c.17.11.13.29-.24,1s-.5.85-1.65,1.25a10.3,10.3,0,0,0-3.65,2l-.49.47a.48.48,0,0,1-.34.13l-1.71-.07a9.62,9.62,0,0,1-1.88-.19A11,11,0,0,1,62.8,68ZM88.69,49.68c-.13.87-.35,2.79-.47,4.28-.53,5.71-.69,6.65-1.46,8.63-.4,1-.89,2.14-1.08,2.53a65,65,0,0,0-3,8.79A6.72,6.72,0,0,1,82,75.63a47.66,47.66,0,0,1-5.82,5.47c-.8.61-2,1.52-2.58,2S71.9,84.49,71.17,85c-3,2.2-3.64,2.69-4.48,3.28-2.12,1.51-2.56,3.34-2.09,8.76.06.65.12,1.29.16,1.82a.57.57,0,0,1,0,.13l0,.08a.46.46,0,0,1-.43.3H46.48V99c0-.9-.14-3.48-.33-5.73-.43-5.37-.27-8.79.59-12.26a6.26,6.26,0,0,1,2.18-3.56,25.81,25.81,0,0,1,8.27-5.34l1.65-.65a.45.45,0,0,1,.16,0l2.45,0,3,0a2.56,2.56,0,0,0,1.22-.72,12.39,12.39,0,0,1,3.5-2.26c1.13-.49,1.22-.56,1.68-1.46a15.62,15.62,0,0,1,6-6.21l1.45-.78a.46.46,0,0,1,.23-.06h3.39a.51.51,0,0,1,.33.13l.43.42c.62.59,1.11,1.4,1,1.56s-.33-.15-.62-.42c-.84-.81-1.61-.65-2.52.53a6.29,6.29,0,0,0-.85,1.44,1.37,1.37,0,0,0,0,1.42A4.25,4.25,0,0,0,80.28,66l.14.15a.48.48,0,0,1,0,.55l-.62,1c-1.38,2.43-2.09,3.23-5,5.74a11.48,11.48,0,0,0-2.61,2.77,23.18,23.18,0,0,1-2.14,2.42c-.41.41-.78.8-1,1.12a.47.47,0,0,0,.53.75,2.65,2.65,0,0,0,.62-.33,8.5,8.5,0,0,0,1.23-1.32c.81-1.08,3.14-3.75,3.8-4.37.27-.25,1.29-1.22,2.25-2.17a11.29,11.29,0,0,0,2.88-3.83,29.8,29.8,0,0,1,2.27-3.51c1.36-1.72,2-2.9,1.82-3.6a4.16,4.16,0,0,0-1.88-2.2,5.37,5.37,0,0,0-1.37-.45l-.28,0a.46.46,0,0,1-.37-.3.31.31,0,0,1,0-.21l0-.26a15.89,15.89,0,0,1,2.85-8A4.67,4.67,0,0,0,84,49s-.26.1-.57.33h0a.46.46,0,0,1-.6,0,.42.42,0,0,1-.15-.34,25.06,25.06,0,0,1,.44-3.89,7.59,7.59,0,0,1,2.31-4.58c1.19-1,2.19-1.15,3.08-.33.49.46.42.71-.21.71-.82,0-1,.48-1,2.28s.24,2.49,1.11,2.85c.54.24.56.26.56,1.18A21.39,21.39,0,0,1,88.69,49.68Zm-5.46,13a13,13,0,0,1-2.4,3.06,3,3,0,0,1-.93-1.49c0-.73,1.57-2.95,2.09-2.95a2.2,2.2,0,0,1,.7.54A1.79,1.79,0,0,1,83.23,62.7ZM88.9,43.33c0,.62-.05,1.19-.08,1.6a.47.47,0,0,1-.83.27,1.59,1.59,0,0,1-.26-.43,4.71,4.71,0,0,1,0-3.06c.2-.41.36-.5.74-.5H89Z"/><path class="cls-2" d="M83.23,62.7a13,13,0,0,1-2.4,3.06,3,3,0,0,1-.93-1.49c0-.73,1.57-2.95,2.09-2.95a2.2,2.2,0,0,1,.7.54A1.79,1.79,0,0,1,83.23,62.7Z"/><path class="cls-2" d="M89,41.21l-.06,2.12c0,.62-.05,1.19-.08,1.6a.47.47,0,0,1-.83.27,1.59,1.59,0,0,1-.26-.43,4.71,4.71,0,0,1,0-3.06c.2-.41.36-.5.74-.5Z"/><path class="cls-2" d="M1.11,45.64c-.24,0-.4-1.2-.4-3,0-1.29,0-1.38.34-1.38a1.62,1.62,0,0,1,.61.16C2.68,41.91,2.18,45.64,1.11,45.64Z"/><path class="cls-2" d="M9.74,64.36c0,.4-.68,1.4-.93,1.4a14.83,14.83,0,0,1-2.4-3.09,2.81,2.81,0,0,1,1.26-1.35,2.51,2.51,0,0,1,.77.61A4.46,4.46,0,0,1,9.74,64.36Z"/><path class="cls-3" d="M29.06,70a7,7,0,0,1-1.85.2l-1.87.09-.71-.63a12,12,0,0,0-3.8-2.11,1.77,1.77,0,0,1-1.44-1.16c-.37-.65-.45-.9-.29-1a8.12,8.12,0,0,1,3.44.42,10.41,10.41,0,0,1,3.91,1.86A12.09,12.09,0,0,1,29.06,70Z"/><path class="cls-3" d="M14.35,60.53a16.46,16.46,0,0,1-1.5-.7A14.14,14.14,0,0,0,10.71,59c-.8-.19-.8-.19-.89-.92a22.67,22.67,0,0,0-1.63-5.81,3.73,3.73,0,0,1-.65-2.46c.16-3-.77-7-2.2-9l-2-2.25a3.25,3.25,0,0,1,0-1.88,1.48,1.48,0,0,1,.66-1.11,3.31,3.31,0,0,1,2.55.43A7.78,7.78,0,0,1,9.15,40a24.66,24.66,0,0,1,.94,5.72c.05,1.45,0,1.48-.59,1.25-.2-.08,0,.22.51.83a10.59,10.59,0,0,1,2.17,4.25c.69,2.48,1,5.67.54,5.81-.13.05,0,.29.39.6C13.7,59,14.64,60.53,14.35,60.53Z"/><path class="cls-3" d="M23,65.3a16,16,0,0,0-1.74-.41l-1.36-.27-.35-1.2a11,11,0,0,0-2.14-4.15l-.68-.72-.08-1.9a16.1,16.1,0,0,0-.35-2.83c-.3-1.13-.84-2.4-1-2.28a4.89,4.89,0,0,0,.23,1.33,20.1,20.1,0,0,1,.65,4.35V58L15.68,58c-.3,0-.55,0-.55,0a5.29,5.29,0,0,0,.91.82,8.57,8.57,0,0,1,3,5.32c.1.46.06.51-.3.51s-.6-.24-1.19-1c-.44-.54-1.12-1.3-1.52-1.69a3.17,3.17,0,0,1-.88-1.27A9,9,0,0,0,14.26,59a4.5,4.5,0,0,1-.74-1.59,21.62,21.62,0,0,0-.61-4.32,10.67,10.67,0,0,0-1.62-4.45l-.65-1,0-2.38a21.84,21.84,0,0,0-.37-4c-.49-2.39-.5-2.34.81-1.68a4.35,4.35,0,0,1,2.14,2.35,10.72,10.72,0,0,1,1,5c0,1.76-.11,2.15-.46,1.93a1.09,1.09,0,0,0-.43-.16c-.38,0-.2.29.37.65a4.42,4.42,0,0,1,.88.69l.34.33-.13-.4a4.6,4.6,0,0,1-.08-1.34c0-.53.08-1.8.08-2.83a4.74,4.74,0,0,1,.16-1.85c.44,0,1.77,1.27,2.17,2.06a18.83,18.83,0,0,1,1.34,5.29c.08,1.09.07,1.29-.19,1.47s-.27.24.19.73c1.13,1.16,2.27,4.66,2.27,6.92,0,.75,0,.8-.4.8-.58,0-.47.23.22.44A4.86,4.86,0,0,1,23.3,65C23.39,65.43,23.39,65.44,23,65.3Z"/><path class="cls-3" d="M70.3,66.41c-.44.8-.51.85-1.65,1.25A10.31,10.31,0,0,0,65,69.72l-.64.6-1.9-.08a9.62,9.62,0,0,1-1.88-.19,11.26,11.26,0,0,1,2.22-2A14.82,14.82,0,0,1,67,65.88a19.08,19.08,0,0,1,3.21-.56.6.6,0,0,1,.38.11C70.71,65.54,70.67,65.73,70.3,66.41Z"/><path class="cls-3" d="M86.17,38a4.28,4.28,0,0,1-.27.85,21,21,0,0,0-2.29,3.25,11.6,11.6,0,0,0-1,2.53,11.1,11.1,0,0,0-.45,4V51l-.51.87a20,20,0,0,0-1.8,6.32c-.05.52-.1.57-.92.81a17.9,17.9,0,0,0-2.2.93,5.2,5.2,0,0,1-1.4.59c-.19-.17.65-1.55,1.27-2.08.43-.36.55-.55.38-.55s-.33-.48-.11-2.69c.33-3,1.4-5.88,2.77-7.35.76-.81.83-1,.22-.73l-.34.19.09-1.87c.17-3.39.93-6.29,2.09-8a6.43,6.43,0,0,1,1.11-1.33c1.16-.76,2.61-.86,3.12-.23A3,3,0,0,1,86.17,38Z"/><path class="cls-3" d="M79.77,39.71c0,.26-.17.9-.3,1.42a19.47,19.47,0,0,0-.35,3.72L79,47.64l-.51.78a19.51,19.51,0,0,0-2.34,8.47,3.69,3.69,0,0,1-.79,2.22,9,9,0,0,0-.86,1.6,2.82,2.82,0,0,1-.66,1c-.27.25-1,1-1.52,1.68-.76.91-1.13,1.23-1.41,1.23-.46,0-.46,0-.07-1.39a7.86,7.86,0,0,1,3.22-4.75c.76-.51.74-.65,0-.56l-.63.09V57.4A22.9,22.9,0,0,1,74.06,53c.36-1.41.31-1.9-.1-1a14.36,14.36,0,0,0-1,4.67l-.1,1.82-.71.79a12.79,12.79,0,0,0-2.33,5.09,2.21,2.21,0,0,1-1.06.36c-.54.11-1.33.3-1.74.42s-.76.15-.76.07a6.65,6.65,0,0,1,.33-1,4.78,4.78,0,0,1,2.47-2.58l.92-.43-.54,0-.54-.05L69,60a18.36,18.36,0,0,1,1.3-5.18,7.23,7.23,0,0,1,1-1.43c.4-.44.49-.63.3-.63-.62,0-.46-2.23.35-4.92a7.13,7.13,0,0,1,1.27-2.79,6.07,6.07,0,0,1,1.6-1.16A15.3,15.3,0,0,1,75,46.09c0,1.19.06,2.49.08,2.88a2.89,2.89,0,0,1-.13,1c-.08.18.19,0,.73-.38a5.59,5.59,0,0,0,.9-.81c.08-.19-.4-.18-.52,0a.37.37,0,0,1-.27.16,8.2,8.2,0,0,1-.1-2.66,9.76,9.76,0,0,1,.42-3.53,6.27,6.27,0,0,1,2.4-3.12C79.52,39,79.84,39.06,79.77,39.71Z"/><path class="cls-3" d="M88.93,47.2a21.39,21.39,0,0,1-.24,2.48c-.13.87-.35,2.79-.47,4.28-.53,5.72-.69,6.65-1.46,8.63-.4,1-.89,2.14-1.08,2.53a65,65,0,0,0-3,8.79A6.58,6.58,0,0,1,82,75.63a48.43,48.43,0,0,1-5.82,5.48c-.8.6-2,1.52-2.58,2S71.9,84.49,71.17,85c-3,2.2-3.64,2.69-4.48,3.28-2.12,1.51-2.57,3.34-2.09,8.76.06.66.12,1.29.16,1.82a.47.47,0,0,1-.47.51H46.48V99c0-.9-.14-3.48-.33-5.73-.43-5.37-.27-8.79.59-12.26a6.29,6.29,0,0,1,2.18-3.56,26,26,0,0,1,8.27-5.34l1.65-.65a.45.45,0,0,1,.16,0l2.45,0,3,0a2.61,2.61,0,0,0,1.22-.71,12.65,12.65,0,0,1,3.5-2.27c1.13-.49,1.22-.55,1.68-1.46a15.53,15.53,0,0,1,6-6.2l1.45-.79a.46.46,0,0,1,.23-.06h3.39a.51.51,0,0,1,.33.13l.43.42c.62.59,1.11,1.4,1,1.56s-.33-.15-.62-.42c-.84-.8-1.62-.65-2.52.53a6.29,6.29,0,0,0-.85,1.44,1.37,1.37,0,0,0,0,1.42A4.25,4.25,0,0,0,80.28,66l.14.15a.49.49,0,0,1,0,.55l-.62,1.06c-1.38,2.42-2.09,3.23-5,5.73a11.48,11.48,0,0,0-2.61,2.77,23.18,23.18,0,0,1-2.14,2.42c-.41.41-.78.81-1,1.12a.47.47,0,0,0,.53.75,2.65,2.65,0,0,0,.62-.33,8.5,8.5,0,0,0,1.23-1.32c.81-1.07,3.14-3.75,3.8-4.37.27-.25,1.29-1.21,2.25-2.17a11.29,11.29,0,0,0,2.88-3.83,30.65,30.65,0,0,1,2.27-3.51c1.36-1.72,2-2.9,1.82-3.6a4.2,4.2,0,0,0-1.88-2.2,5.5,5.5,0,0,0-1.37-.45l-.28,0a.48.48,0,0,1-.41-.51l0-.26a15.92,15.92,0,0,1,2.85-8A4.67,4.67,0,0,0,84,49s-.26.1-.57.34h0a.47.47,0,0,1-.75-.39,25.06,25.06,0,0,1,.44-3.89,7.59,7.59,0,0,1,2.31-4.58c1.19-1,2.19-1.15,3.07-.33.5.46.43.71-.2.71-.83,0-1,.48-1,2.28s.24,2.49,1.11,2.85C88.91,46.26,88.93,46.28,88.93,47.2Z"/><path class="cls-3" d="M43.85,98.1l-.05,1.3H24.94l0-.46c.31-4.91.33-6.8.06-7.7a5.79,5.79,0,0,0-2.64-3.37c-1.29-.91-4.17-3.08-8.78-6.64a49.84,49.84,0,0,1-4-3.52c-2.27-2.24-2.22-2.15-3-5.14A67.92,67.92,0,0,0,3.9,64.93c-.27-.57-.76-1.8-1.11-2.71-.61-1.58-.67-1.86-1-5.52-.22-2.11-.44-4.39-.49-5s-.21-1.72-.33-2.37c-.4-2.16-.29-3,.45-3.33s1.06-1.09,1.06-2.86c0-1.39,0-1.54-.36-1.86a1.34,1.34,0,0,0-.79-.35c-.57,0-.56-.35.06-.85a1.82,1.82,0,0,1,2.39.06c1.72,1.12,2.71,3.4,3.14,7,.2,1.85.2,2.61,0,2.61a1.72,1.72,0,0,1-.65-.4c-.66-.57-.74-.36-.14.32A15.1,15.1,0,0,1,9,56.6c.36,2.28.39,2.13-.51,2.24a4.39,4.39,0,0,0-1.3.34,5.3,5.3,0,0,0-1.9,2.11c-.14.44-.11.64.3,1.51a15.85,15.85,0,0,0,1.55,2.36A21.8,21.8,0,0,1,9,68a13.54,13.54,0,0,0,3.6,4.75,52.63,52.63,0,0,1,5.57,6.08,8.87,8.87,0,0,0,1.28,1.41c.59.44,1.53.62,1.64.28a9.29,9.29,0,0,0-1.65-2,32.73,32.73,0,0,1-2.31-2.71,17.18,17.18,0,0,0-2.71-2.69c-2.49-2.14-3.33-3.06-4.17-4.6l-.93-1.63c-.3-.5-.29-.5.05-.87a3.19,3.19,0,0,0,.77-2.25,6.61,6.61,0,0,0-1.82-2.61,1.38,1.38,0,0,0-1.68.32c-.36.33-.55.41-.55.27a3.25,3.25,0,0,1,1.26-1.68c.51-.35.7-.37,2.17-.32a5,5,0,0,1,3.14.84A15.23,15.23,0,0,1,18.8,66.8c.49,1,.52,1,2.17,1.76a12.61,12.61,0,0,1,2.77,1.78l1.11,1H30.2l1.78.62a16.67,16.67,0,0,1,4.62,2.25c3,1.86,5,3.78,5.86,5.52A21.57,21.57,0,0,1,44,84.76C44.14,85.93,44.09,92.05,43.85,98.1Z"/><ellipse class="cls-3" cx="11.4" cy="66.22" rx="0.65" ry="0.04"/><path class="cls-4" d="M45.45,74.41H44.26c-.1,0-.19-.17-.19-.38L44,.38c0-.21.08-.38.18-.38h1.2c.1,0,.18.17.18.38L45.64,74C45.64,74.24,45.56,74.41,45.45,74.41Z"/><path class="cls-5" d="M7.62,37.83V36.64c0-.11.17-.19.38-.19l73.65-.06c.21,0,.38.09.38.19v1.2c0,.1-.17.18-.38.18L8,38C7.8,38,7.62,37.93,7.62,37.83Z"/><path class="cls-6" d="M71.58,63.07l-.85.85c-.07.07-.25,0-.4-.14l-52.11-52c-.15-.15-.21-.33-.14-.4l.84-.85c.08-.07.26,0,.41.14l52.11,52C71.59,62.82,71.65,63,71.58,63.07Z"/><path class="cls-7" d="M19,64l-.84-.85c-.08-.07,0-.25.14-.4l52-52.12c.15-.14.33-.21.4-.13l.85.84c.07.07,0,.25-.14.4l-52,52.12C19.22,64,19,64,19,64Z"/><path class="cls-8" d="M79.44,50.87,79,52c0,.1-.22.11-.42,0L10.5,23.86c-.2-.08-.32-.22-.28-.31l.45-1.11c0-.09.23-.11.43,0L79.16,50.55C79.35,50.63,79.48,50.77,79.44,50.87Z"/><path class="cls-9" d="M31.17,71.82l-1.11-.46c-.09,0-.1-.23,0-.42L58.17,2.88c.08-.2.22-.33.32-.29l1.1.46c.1,0,.11.23,0,.42L31.49,71.54C31.41,71.73,31.26,71.86,31.17,71.82Z"/><path class="cls-10" d="M79,22.39l.46,1.1c0,.1-.09.24-.28.32l-68,28.24c-.2.08-.39.07-.42,0l-.46-1.1c0-.1.08-.24.28-.32l68-28.23C78.73,22.28,78.92,22.3,79,22.39Z"/><path class="cls-11" d="M59.64,71.34l-1.1.46c-.09,0-.24-.09-.32-.28L30,3.5c-.08-.2-.07-.39,0-.43l1.11-.46c.09,0,.23.09.32.29l28.23,68C59.75,71.11,59.74,71.3,59.64,71.34Z"/><path id="path4476" class="cls-12" d="M47.62,64A27.22,27.22,0,1,1,71.91,34.08,27.22,27.22,0,0,1,47.62,64Z"/><path id="path4796" class="cls-13" d="M72.19,34.38A27.51,27.51,0,1,0,47.67,64.71,27.59,27.59,0,0,0,72.19,34.38Zm-2,.2a25.54,25.54,0,1,1-28-22.9A25.6,25.6,0,0,1,70.23,34.58Z"/><path class="cls-14" d="M41.32,36.16H56.47C55.13,21.73,33.23,22.44,32.89,37,32.41,49.52,50,53.66,55.28,42.58"/><text class="cls-15" transform="translate(96.04 60.53)">eHulog</text><path class="cls-16" d="M92.68,92.42l-.07-4.51H94l.49,2.44a.64.64,0,0,0,.22.33l.31.26a9,9,0,0,0,1,.54,6.8,6.8,0,0,0,1.12.42,5,5,0,0,0,1.22.16,4.65,4.65,0,0,0,2.88-.8,2.62,2.62,0,0,0,1-2.19,2.52,2.52,0,0,0-.62-1.74A4.69,4.69,0,0,0,100,86.22a19.46,19.46,0,0,0-2-.73c-.65-.2-1.3-.43-1.92-.69a5.18,5.18,0,0,1-2.24-1.66A4.15,4.15,0,0,1,93,80.55a4.06,4.06,0,0,1,.76-2.43,5.17,5.17,0,0,1,2-1.68,6.67,6.67,0,0,1,2.9-.62,13.65,13.65,0,0,1,1.84.12c.58.08,1.14.18,1.67.29l1.51.36v4.32h-1.37l-.47-2.31a.64.64,0,0,0-.22-.32,3.05,3.05,0,0,0-.31-.26,4.11,4.11,0,0,0-.67-.37,5.12,5.12,0,0,0-1.91-.38,4.21,4.21,0,0,0-2.6.71,2.11,2.11,0,0,0-.92,1.73,3.1,3.1,0,0,0,.5,1.71,3.66,3.66,0,0,0,1.92,1.32c.63.23,1.25.45,1.85.65s1.26.46,2,.76A6.86,6.86,0,0,1,103,85a4.35,4.35,0,0,1,1.19,1.36,4.22,4.22,0,0,1,.47,2.07,4.79,4.79,0,0,1-.68,2.44,4.84,4.84,0,0,1-2.11,1.89,8.42,8.42,0,0,1-3.79.73,9.5,9.5,0,0,1-1.72-.16c-.61-.11-1.22-.25-1.85-.42Z"/><path class="cls-16" d="M113.35,93.39a6.29,6.29,0,0,1-3.21-.8A5.53,5.53,0,0,1,108,90.3a7.6,7.6,0,0,1-.76-3.53,7.39,7.39,0,0,1,.76-3.4A5.8,5.8,0,0,1,110.15,81a6.07,6.07,0,0,1,3.32-.88,5.9,5.9,0,0,1,3.43.92,5.62,5.62,0,0,1,2,2.43,7.91,7.91,0,0,1,.67,3.27,7.52,7.52,0,0,1-.75,3.38,5.87,5.87,0,0,1-5.49,3.29Zm.16-1.29a2.84,2.84,0,0,0,1.7-.47,3.25,3.25,0,0,0,1.06-1.23,5.77,5.77,0,0,0,.56-1.67A9.79,9.79,0,0,0,117,87a9.48,9.48,0,0,0-.37-2.68,4.68,4.68,0,0,0-1.17-2.1,2.94,2.94,0,0,0-2.17-.81,2.87,2.87,0,0,0-1.68.46,3.28,3.28,0,0,0-1.07,1.23,6,6,0,0,0-.56,1.65,8.84,8.84,0,0,0-.17,1.74,10.89,10.89,0,0,0,.18,2,6.71,6.71,0,0,0,.6,1.82,3.77,3.77,0,0,0,1.14,1.35A2.93,2.93,0,0,0,113.51,92.1Z"/><path class="cls-16" d="M132.4,90h.35v1.34a13.9,13.9,0,0,1-2.08,1.4,5.81,5.81,0,0,1-2.84.67,5.62,5.62,0,0,1-3.11-.83,5.53,5.53,0,0,1-2-2.28A7.41,7.41,0,0,1,122,87a6.73,6.73,0,0,1,.56-2.75A6.89,6.89,0,0,1,124.06,82a7,7,0,0,1,2.16-1.42,6.88,6.88,0,0,1,4.14-.32,6.23,6.23,0,0,1,1.18.4l.79.37-.09,2.38h-.53c-.41-.24-.82-.5-1.23-.76a6.32,6.32,0,0,0-1.32-.68,4.44,4.44,0,0,0-1.66-.28,2.75,2.75,0,0,0-1,.22,2.1,2.1,0,0,0-.88.57,4.25,4.25,0,0,0-.52.75,4.39,4.39,0,0,0-.43,1.22,9.6,9.6,0,0,0-.17,2,6,6,0,0,0,1.06,3.77,3.69,3.69,0,0,0,3.08,1.34,4.08,4.08,0,0,0,1.5-.27,7.22,7.22,0,0,0,1.27-.66Z"/><path class="cls-16" d="M134.49,93.09v-.86l1.78-.47a.79.79,0,0,0,.35-.19.53.53,0,0,0,.13-.39V83a.53.53,0,0,0-.14-.4.92.92,0,0,0-.38-.21l-1.71-.58v-.85l4.59-.63V91.18a.53.53,0,0,0,.13.39.61.61,0,0,0,.33.19l1.76.47v.86Zm3.23-15.15a2,2,0,0,1-.84-.18,1.46,1.46,0,0,1-.62-.53,1.41,1.41,0,0,1-.24-.82,1.4,1.4,0,0,1,.51-1.16,1.84,1.84,0,0,1,1.19-.4,2,2,0,0,1,1.27.37,1.3,1.3,0,0,1,.49,1.1,1.57,1.57,0,0,1-.23.87,1.49,1.49,0,0,1-.63.56A2,2,0,0,1,137.72,77.94Z"/><path class="cls-16" d="M147,93.34a3.62,3.62,0,0,1-2-.51,3.49,3.49,0,0,1-1.25-1.31,3.57,3.57,0,0,1-.43-1.72,3.43,3.43,0,0,1,.6-2,4.52,4.52,0,0,1,1.54-1.33,7.77,7.77,0,0,1,2-.72,9.3,9.3,0,0,1,1.94-.22l.57,0,.8.08.55.06V83.91a2.17,2.17,0,0,0-.65-1.84,2.78,2.78,0,0,0-1.71-.5,3.87,3.87,0,0,0-1.2.2,7.09,7.09,0,0,0-1.16.52c-.37.21-.7.42-1,.63l-.79.53h-.47l-.08-2.3,1.39-.5a12.21,12.21,0,0,1,1.56-.4,10.89,10.89,0,0,1,1.91-.15,7.28,7.28,0,0,1,2.2.33,3.45,3.45,0,0,1,1.72,1.21,4,4,0,0,1,.66,2.52l0,6.53a.86.86,0,0,0,.34.71,1.18,1.18,0,0,0,.77.28,1.61,1.61,0,0,0,.56-.12,5.72,5.72,0,0,0,.6-.25h.19v1a6.29,6.29,0,0,1-.66.41,6.82,6.82,0,0,1-.9.44,2.23,2.23,0,0,1-.85.19,2.3,2.3,0,0,1-1.65-.52,2.16,2.16,0,0,1-.55-1.62h-.15A4.53,4.53,0,0,1,150,92.57a5.34,5.34,0,0,1-1.57.62A7.51,7.51,0,0,1,147,93.34Zm1.15-1.7a5.26,5.26,0,0,0,1.72-.32,2.94,2.94,0,0,0,1.48-1V86.73a17.28,17.28,0,0,0-2.87.21,4,4,0,0,0-1.92.77,2,2,0,0,0-.69,1.66,2.31,2.31,0,0,0,.35,1.38,1.84,1.84,0,0,0,.88.69A2.83,2.83,0,0,0,148.17,91.64Z"/><path class="cls-16" d="M157.13,93.09v-.86l1.78-.47a.78.78,0,0,0,.33-.19.53.53,0,0,0,.14-.39v-14a.54.54,0,0,0-.16-.4,1.34,1.34,0,0,0-.36-.22l-1.81-.67v-.84l4.67-.21v16.3a.5.5,0,0,0,.15.39.92.92,0,0,0,.33.19l1.72.47v.86Z"/><path class="cls-16" d="M178.46,93.34a4.5,4.5,0,0,1-2.68-.8,5.16,5.16,0,0,1-1.72-2.19,7.88,7.88,0,0,1-.6-3.14,8.67,8.67,0,0,1,.72-3.58,6.16,6.16,0,0,1,2.07-2.58,5.4,5.4,0,0,1,3.22-1,4.23,4.23,0,0,1,1.88.37,4.38,4.38,0,0,1,1.23.86V77.22a.57.57,0,0,0-.14-.4.89.89,0,0,0-.37-.22l-1.77-.67v-.84l4.62-.21V90.64a.46.46,0,0,0,.16.39,1.46,1.46,0,0,0,.37.23l1.39.56v.85l-4,.66h-.06V91.18h-.15a4.47,4.47,0,0,1-1.5,1.48,4.68,4.68,0,0,1-1.52.57A8.34,8.34,0,0,1,178.46,93.34Zm1.31-1.73a4,4,0,0,0,.95-.13,4.27,4.27,0,0,0,1.05-.42,2.34,2.34,0,0,0,.81-.75V82.2a2.59,2.59,0,0,0-.83-.34,7.72,7.72,0,0,0-1.05-.19,6.36,6.36,0,0,0-.86-.07,3.58,3.58,0,0,0-2.19.65A3.88,3.88,0,0,0,176.37,84a6.5,6.5,0,0,0-.42,2.38,8.25,8.25,0,0,0,.4,2.68,4,4,0,0,0,1.23,1.88A3.34,3.34,0,0,0,179.77,91.61Z"/><path class="cls-16" d="M195,93.39a6.33,6.33,0,0,1-3.22-.8,5.57,5.57,0,0,1-2.14-2.29,7.6,7.6,0,0,1-.76-3.53,7.39,7.39,0,0,1,.76-3.4A5.8,5.8,0,0,1,191.8,81a6.07,6.07,0,0,1,3.32-.88,5.9,5.9,0,0,1,3.43.92,5.62,5.62,0,0,1,2,2.43,7.91,7.91,0,0,1,.67,3.27,7.4,7.4,0,0,1-.76,3.38,6,6,0,0,1-2.15,2.4A6.09,6.09,0,0,1,195,93.39Zm.16-1.29a2.84,2.84,0,0,0,1.7-.47,3.25,3.25,0,0,0,1.06-1.23,5.77,5.77,0,0,0,.56-1.67,9.79,9.79,0,0,0,.17-1.76,9.48,9.48,0,0,0-.37-2.68,4.68,4.68,0,0,0-1.17-2.1,3,3,0,0,0-2.17-.81,2.85,2.85,0,0,0-1.68.46,3.28,3.28,0,0,0-1.07,1.23,6,6,0,0,0-.56,1.65,8.84,8.84,0,0,0-.17,1.74,10.89,10.89,0,0,0,.18,2,6.71,6.71,0,0,0,.6,1.82,3.68,3.68,0,0,0,1.14,1.35A2.91,2.91,0,0,0,195.16,92.1Z"/><path class="cls-16" d="M204.23,87.26v-2h7.07v2Z"/><path class="cls-16" d="M219.53,88.69a6.58,6.58,0,0,1-1.35-.13,5.6,5.6,0,0,1-1-.26,1.22,1.22,0,0,0-.56.44,1.32,1.32,0,0,0-.27.86,1.43,1.43,0,0,0,.94,1.3h4.4a5.73,5.73,0,0,1,2.57.49,3.09,3.09,0,0,1,1.36,1.22,3.13,3.13,0,0,1,.4,1.51,3.76,3.76,0,0,1-.89,2.48,5.89,5.89,0,0,1-2.41,1.69,9,9,0,0,1-3.39.62,10.59,10.59,0,0,1-2.88-.37,4.81,4.81,0,0,1-2-1.09,2.35,2.35,0,0,1-.73-1.75,2.47,2.47,0,0,1,.78-1.91,4.18,4.18,0,0,1,1.82-1v-.15a4.11,4.11,0,0,1-.85-.41,2.67,2.67,0,0,1-.73-.73,1.91,1.91,0,0,1-.3-1.09,2.18,2.18,0,0,1,.34-1.25,2.66,2.66,0,0,1,.85-.82,3.26,3.26,0,0,1,1-.41v-.13a5.64,5.64,0,0,1-.92-.69,3.46,3.46,0,0,1-1.14-2.67,4.21,4.21,0,0,1,.61-2.26A4.37,4.37,0,0,1,217,80.66a5.91,5.91,0,0,1,2.68-.56,11.3,11.3,0,0,1,1.5.09c.45.06.89.14,1.31.23h4.17l-.07,1.49-3-.19v.11a6.94,6.94,0,0,1,.78,1.16,3.32,3.32,0,0,1,.29,1.52,3.82,3.82,0,0,1-1.33,3A5.37,5.37,0,0,1,219.53,88.69Zm.38,8.88a7.13,7.13,0,0,0,2-.27,3.61,3.61,0,0,0,1.56-.87,2.17,2.17,0,0,0,.62-1.61,1.93,1.93,0,0,0-.58-1.3,2.48,2.48,0,0,0-1.92-.64h-4.07a2.16,2.16,0,0,0-.95.66,2.2,2.2,0,0,0-.47,1.51,1.93,1.93,0,0,0,.39,1.23,2.67,2.67,0,0,0,1,.77,5.21,5.21,0,0,0,1.27.4A7.73,7.73,0,0,0,219.91,97.57Zm-.36-10a2.7,2.7,0,0,0,1.44-.37,2.34,2.34,0,0,0,.9-1.09,4.58,4.58,0,0,0,.31-1.82,3.36,3.36,0,0,0-.72-2.35,2.48,2.48,0,0,0-1.91-.78,2.52,2.52,0,0,0-1.24.32,2.26,2.26,0,0,0-.91,1,4,4,0,0,0-.35,1.82,3.71,3.71,0,0,0,.69,2.45A2.25,2.25,0,0,0,219.55,87.61Z"/><path class="cls-16" d="M234.68,93.39a6.29,6.29,0,0,1-3.21-.8,5.53,5.53,0,0,1-2.15-2.29,7.6,7.6,0,0,1-.76-3.53,7.39,7.39,0,0,1,.76-3.4A5.8,5.8,0,0,1,231.48,81a6.07,6.07,0,0,1,3.32-.88,6,6,0,0,1,3.44.92,5.67,5.67,0,0,1,2,2.43,7.91,7.91,0,0,1,.67,3.27,7.52,7.52,0,0,1-.75,3.38,5.87,5.87,0,0,1-5.49,3.29Zm.16-1.29a2.84,2.84,0,0,0,1.7-.47,3.37,3.37,0,0,0,1.07-1.23,6.44,6.44,0,0,0,.56-1.67,10.76,10.76,0,0,0,.16-1.76,9.85,9.85,0,0,0-.36-2.68,4.79,4.79,0,0,0-1.18-2.1,2.94,2.94,0,0,0-2.17-.81,2.89,2.89,0,0,0-1.68.46,3.37,3.37,0,0,0-1.07,1.23,6,6,0,0,0-.56,1.65,8.84,8.84,0,0,0-.17,1.74,10.89,10.89,0,0,0,.18,2,6.4,6.4,0,0,0,.61,1.82,3.65,3.65,0,0,0,1.13,1.35A2.93,2.93,0,0,0,234.84,92.1Z"/><path class="cls-16" d="M249.45,93.39a6.32,6.32,0,0,1-3.21-.8,5.51,5.51,0,0,1-2.14-2.29,8.23,8.23,0,0,1,0-6.93A5.94,5.94,0,0,1,246.25,81a6.1,6.1,0,0,1,3.32-.88A5.94,5.94,0,0,1,253,81a5.76,5.76,0,0,1,2,2.43,8.06,8.06,0,0,1,.66,3.27,7.52,7.52,0,0,1-.75,3.38,6,6,0,0,1-2.15,2.4A6.15,6.15,0,0,1,249.45,93.39Zm.17-1.29a2.81,2.81,0,0,0,1.69-.47,3.28,3.28,0,0,0,1.07-1.23,6.08,6.08,0,0,0,.56-1.67,10,10,0,0,0-.2-4.44,4.69,4.69,0,0,0-1.18-2.1,2.93,2.93,0,0,0-2.17-.81,2.89,2.89,0,0,0-1.68.46,3.25,3.25,0,0,0-1.06,1.23,5.66,5.66,0,0,0-.57,1.65,9.66,9.66,0,0,0-.17,1.74,10.89,10.89,0,0,0,.18,2,7.09,7.09,0,0,0,.61,1.82,3.59,3.59,0,0,0,1.14,1.35A2.89,2.89,0,0,0,249.62,92.1Z"/><path class="cls-16" d="M263.11,93.34a4.5,4.5,0,0,1-2.68-.8,5.16,5.16,0,0,1-1.72-2.19,7.88,7.88,0,0,1-.6-3.14,8.67,8.67,0,0,1,.72-3.58,6.16,6.16,0,0,1,2.07-2.58,5.4,5.4,0,0,1,3.22-1,4.23,4.23,0,0,1,1.88.37,4.38,4.38,0,0,1,1.23.86V77.22a.57.57,0,0,0-.14-.4.89.89,0,0,0-.37-.22L265,75.93v-.84l4.62-.21V90.64a.48.48,0,0,0,.15.39,1.74,1.74,0,0,0,.38.23l1.39.56v.85l-4,.66h-.06V91.18h-.15a4.47,4.47,0,0,1-1.5,1.48,4.68,4.68,0,0,1-1.52.57A8.34,8.34,0,0,1,263.11,93.34Zm1.31-1.73a4,4,0,0,0,.95-.13,4.27,4.27,0,0,0,1.05-.42,2.43,2.43,0,0,0,.81-.75V82.2a2.7,2.7,0,0,0-.83-.34,7.72,7.72,0,0,0-1-.19,6.36,6.36,0,0,0-.86-.07,3.58,3.58,0,0,0-2.19.65A3.88,3.88,0,0,0,261,84a6.5,6.5,0,0,0-.42,2.38A8.25,8.25,0,0,0,261,89a4,4,0,0,0,1.23,1.88A3.34,3.34,0,0,0,264.42,91.61Z"/><path class="cls-16" d="M279.52,93.36a6.36,6.36,0,0,1-3.09-.75,5.35,5.35,0,0,1-2.17-2.2,7.32,7.32,0,0,1-.8-3.58,7.42,7.42,0,0,1,.77-3.42A6.13,6.13,0,0,1,276.37,81a5.66,5.66,0,0,1,3.18-.89,5.58,5.58,0,0,1,2.86.69,4.7,4.7,0,0,1,1.81,1.84,5.05,5.05,0,0,1,.63,2.48c0,.1,0,.23,0,.39s0,.32,0,.48a2,2,0,0,1-.06.4h-9l.07-1.22h6.54a6.27,6.27,0,0,0-.28-2,2.69,2.69,0,0,0-.93-1.32,2.87,2.87,0,0,0-1.72-.46,3.16,3.16,0,0,0-1.72.44A3.1,3.1,0,0,0,276.62,83a5.33,5.33,0,0,0-.56,1.6,9,9,0,0,0-.17,1.7,8.12,8.12,0,0,0,.43,2.69,3.89,3.89,0,0,0,1.41,1.9,4.4,4.4,0,0,0,2.62.7,5.22,5.22,0,0,0,1.7-.26,7.67,7.67,0,0,0,1.41-.63,10.35,10.35,0,0,0,1-.67h.33v1.35a10.64,10.64,0,0,1-2.29,1.36A7.25,7.25,0,0,1,279.52,93.36Z"/><path class="cls-16" d="M287.24,93.09v-.86l1.45-.47a.78.78,0,0,0,.33-.19.53.53,0,0,0,.14-.39V83a.64.64,0,0,0-.17-.47,1.14,1.14,0,0,0-.37-.26l-1.46-.61v-.83l4.17-.65v2.74h.11a12.75,12.75,0,0,1,1.35-1.65,4.41,4.41,0,0,1,1.24-.9,3,3,0,0,1,1.27-.28,5.09,5.09,0,0,1,1.16.13,2.3,2.3,0,0,1,1.05.54V83.7h-1.44l-.34-.91a1,1,0,0,0-.51-.47,1.93,1.93,0,0,0-.79-.18,2.36,2.36,0,0,0-1.19.3,4,4,0,0,0-.94.75c-.28.3-.55.6-.8.9v7.09a.55.55,0,0,0,.47.58l1.83.47v.86Z"/></g></g></svg>