<?xml version="1.0" encoding="UTF-8" standalone="no"?>
<svg
   viewBox="0 0 297.53 100.6"
   version="1.1"
   id="svg119"
   sodipodi:docname="logo-black-slogan-non-rasterized-text.svg"
   inkscape:version="1.2.1 (9c6d41e410, 2022-07-14)"
   xmlns:inkscape="http://www.inkscape.org/namespaces/inkscape"
   xmlns:sodipodi="http://sodipodi.sourceforge.net/DTD/sodipodi-0.dtd"
   xmlns:xlink="http://www.w3.org/1999/xlink"
   xmlns="http://www.w3.org/2000/svg"
   xmlns:svg="http://www.w3.org/2000/svg">
  <sodipodi:namedview
     id="namedview121"
     pagecolor="#ffffff"
     bordercolor="#000000"
     borderopacity="0.25"
     inkscape:showpageshadow="2"
     inkscape:pageopacity="0.0"
     inkscape:pagecheckerboard="0"
     inkscape:deskcolor="#d1d1d1"
     showgrid="false"
     inkscape:zoom="8.1336336"
     inkscape:cx="231.87669"
     inkscape:cy="95.037475"
     inkscape:window-width="1920"
     inkscape:window-height="1009"
     inkscape:window-x="1912"
     inkscape:window-y="4"
     inkscape:window-maximized="1"
     inkscape:current-layer="Layer_2-2" />
  <defs
     id="defs35">
    <style
       id="style9">.cls-1,.cls-15{fill:#b38b6d;}.cls-16,.cls-2{fill:#fff;}.cls-3{fill:tan;}.cls-4{fill:url(#linear-gradient);}.cls-5{fill:url(#linear-gradient-2);}.cls-6{fill:url(#linear-gradient-3);}.cls-7{fill:url(#linear-gradient-4);}.cls-8{fill:url(#linear-gradient-5);}.cls-9{fill:url(#linear-gradient-6);}.cls-10{fill:url(#linear-gradient-7);}.cls-11{fill:url(#linear-gradient-8);}.cls-12{fill:url(#linear-gradient-9);}.cls-13{fill:url(#linear-gradient-10);}.cls-14{fill:none;stroke:#ebd400;stroke-linecap:round;stroke-linejoin:round;stroke-width:4.21px;}.cls-15{font-size:64.05px;font-family:TrebuchetMS, Trebuchet MS;}.cls-16{stroke:#000;stroke-miterlimit:10;stroke-width:0.05px;}</style>
    <linearGradient
       id="linear-gradient"
       x1="-14.58"
       y1="-342.78"
       x2="-14.28"
       y2="-339.86"
       gradientTransform="matrix(0, 5.5, -1, 0, -296.43, 116.75)"
       gradientUnits="userSpaceOnUse">
      <stop
         offset="0"
         stop-color="#f4d24c"
         id="stop11" />
      <stop
         offset="0.7"
         stop-color="#fc0"
         stop-opacity="0.97"
         id="stop13" />
      <stop
         offset="1"
         stop-color="#dab31a"
         stop-opacity="0.96"
         id="stop15" />
    </linearGradient>
    <linearGradient
       id="linear-gradient-2"
       x1="-51.85"
       y1="-770.6"
       x2="-51.55"
       y2="-767.68"
       gradientTransform="matrix(-5.5, 0, 0, -1, -239.87, -731.73)"
       xlink:href="#linear-gradient" />
    <linearGradient
       id="linear-gradient-3"
       x1="-48.14"
       y1="-186.78"
       x2="-47.84"
       y2="-183.86"
       gradientTransform="matrix(3.89, 3.88, -0.71, 0.71, 100.5, 354.69)"
       xlink:href="#linear-gradient" />
    <linearGradient
       id="linear-gradient-4"
       x1="-23.47"
       y1="-586.17"
       x2="-23.16"
       y2="-583.25"
       gradientTransform="matrix(-3.88, 3.89, -0.71, -0.71, -459.47, -285.27)"
       xlink:href="#linear-gradient" />
    <linearGradient
       id="linear-gradient-5"
       x1="-70.4"
       y1="-172.89"
       x2="-70.1"
       y2="-169.97"
       gradientTransform="matrix(5.08, 2.1, -0.38, 0.92, 336.15, 343.12)"
       xlink:href="#linear-gradient" />
    <linearGradient
       id="linear-gradient-6"
       x1="-20.94"
       y1="-463.81"
       x2="-20.64"
       y2="-460.89"
       gradientTransform="matrix(-2.1, 5.08, -0.92, -0.38, -426.1, -33.83)"
       xlink:href="#linear-gradient" />
    <linearGradient
       id="linear-gradient-7"
       x1="-109.47"
       y1="-283.59"
       x2="-109.17"
       y2="-280.67"
       gradientTransform="matrix(5.08, -2.11, 0.38, 0.92, 707.87, 67.46)"
       xlink:href="#linear-gradient" />
    <linearGradient
       id="linear-gradient-8"
       x1="-41.08"
       y1="-249.11"
       x2="-40.78"
       y2="-246.19"
       gradientTransform="matrix(2.11, 5.08, -0.92, 0.38, -97.67, 339.9)"
       xlink:href="#linear-gradient" />
    <linearGradient
       id="linear-gradient-9"
       x1="25.58"
       y1="17.62"
       x2="64.08"
       y2="56.12"
       gradientUnits="userSpaceOnUse">
      <stop
         offset="0.11"
         stop-color="#cd9b44"
         id="stop25" />
      <stop
         offset="0.33"
         stop-color="#c8aa4a"
         id="stop27" />
      <stop
         offset="0.78"
         stop-color="#c5a646"
         id="stop29" />
      <stop
         offset="1"
         stop-color="#9d7118"
         id="stop31" />
    </linearGradient>
    <linearGradient
       id="linear-gradient-10"
       x1="260.43"
       y1="185.01"
       x2="315.72"
       y2="185.01"
       gradientTransform="translate(199.29 -268.34) rotate(84.11)"
       xlink:href="#linear-gradient" />
  </defs>
  <g
     id="Layer_2"
     data-name="Layer 2">
    <g
       id="Layer_2-2"
       data-name="Layer 2">
      <path
         class="cls-1"
         d="M89.66,44.15l0-4a.48.48,0,0,0-.16-.35L89,39.39a2.87,2.87,0,0,0-1.14-.62c-.59-.11-.57-.06-.81-1.92-.16-1.28-.41-1.74-1.16-2a2.71,2.71,0,0,0-2.5.11,8.36,8.36,0,0,0-2.88,2.74c-.16.38-.38.55-1.09.82a6.5,6.5,0,0,0-3.92,3.34c-.47.94-.61,1.1-1.24,1.33-2.42.92-3.9,4.07-3.9,8.27a4.85,4.85,0,0,1-.73,3.09,11.93,11.93,0,0,0-1.51,4.86L68,60.93a.5.5,0,0,1-.13.26l-1.11,1.19a10.16,10.16,0,0,0-1.65,2.22c-.38.83-.54,1-1.6,1.63a15.2,15.2,0,0,0-3.86,3.42,1.75,1.75,0,0,1-1.16.86,26,26,0,0,0-5.62,2.26,14.25,14.25,0,0,0-4.39,2.79,20.85,20.85,0,0,0-2,2,12.44,12.44,0,0,0-1.44,3.23c0,.51-.42-.06-.81-1.15a9.06,9.06,0,0,0-3.12-4.17,14.65,14.65,0,0,0-4.37-2.76c-1.58-.75-3.58-1.61-4.45-1.89l-1.46-.46a.38.38,0,0,1-.21-.13l-1.29-1.4a15.31,15.31,0,0,0-2.82-2.38c-1.3-.85-1.49-1-2-2a11.94,11.94,0,0,0-1.72-2.22l-1-1.06a.48.48,0,0,1-.13-.3l-.07-1.13a12.66,12.66,0,0,0-1.38-5,6.43,6.43,0,0,1-.85-3.45c-.24-4.53-1.38-7-3.82-8.13a2.08,2.08,0,0,1-1.35-1.36,6,6,0,0,0-3.72-3.31A2.25,2.25,0,0,1,9,37.49a7,7,0,0,0-2.59-2.44,2.85,2.85,0,0,0-2.72-.24c-.73.3-1.08,1.09-1.19,2.71l-.06.79a.48.48,0,0,1-.35.42l-.4.11C.57,39.12.14,39.66,0,41a92.76,92.76,0,0,0,.35,9.82,39.36,39.36,0,0,1,.33,4.35c.1,2,.26,4.3.38,5a30.66,30.66,0,0,0,2.08,5.78C3.64,67,4.91,70.79,6,74.5a5.51,5.51,0,0,0,1.19,2.3,31,31,0,0,0,3.74,3.51c.27.19,1.12.92,1.9,1.6,4.67,4,6.21,5.24,8.5,6.64,1.92,1.17,2.6,1.93,2.74,3.09a46.85,46.85,0,0,1-.46,7.26c-.16,1.32-.2,1.65.2,1.69H65.73c.32,0,.46,0,.52-.14a14.71,14.71,0,0,0-.19-1.83,47.08,47.08,0,0,1-.49-6.73c.2-1.14.25-1.27.73-1.82a15.24,15.24,0,0,1,2.28-1.66,49.69,49.69,0,0,0,6.49-5c1.11-1,2.64-2.23,3.39-2.83s2.12-1.85,3-2.79c1.85-1.87,1.73-1.63,2.83-5.46a72.92,72.92,0,0,1,2.78-7.84c.49-1.17,1-2.53,1.18-3a32.63,32.63,0,0,0,.72-7c.06-1.39.23-3.32.38-4.27A34.37,34.37,0,0,0,89.66,44.15ZM1.11,45.64c-.24,0-.4-1.2-.4-3,0-1.29,0-1.38.34-1.38a1.62,1.62,0,0,1,.61.16C2.68,41.91,2.18,45.64,1.11,45.64Zm7.7,20.12a14.83,14.83,0,0,1-2.4-3.09,2.81,2.81,0,0,1,1.26-1.35,2.51,2.51,0,0,1,.77.61,4.46,4.46,0,0,1,1.3,2.43C9.74,64.76,9.06,65.76,8.81,65.76Zm5.54-5.23a16.46,16.46,0,0,1-1.5-.7A14.14,14.14,0,0,0,10.71,59c-.8-.19-.8-.19-.89-.92a22.16,22.16,0,0,0-1.63-5.81,3.73,3.73,0,0,1-.65-2.46c0-.36,0-.73,0-1.12,0-.15,0-.3,0-.44s0-.16,0-.25c0-.28,0-.57-.09-.86s-.09-.67-.15-1-.13-.68-.2-1c0-.14-.06-.28-.1-.42s-.07-.27-.11-.41-.16-.54-.25-.8L6.46,43c-.09-.26-.2-.52-.31-.76s-.22-.46-.33-.67a2.3,2.3,0,0,0-.23-.4l-.24-.36,0-.05L3.44,38.57a.67.67,0,0,1-.09-.14,1.21,1.21,0,0,1-.05-.18,1.25,1.25,0,0,1,0-.19,2,2,0,0,1,0-.35,4.36,4.36,0,0,1,.17-1.09,1.46,1.46,0,0,1,.66-1.11,3.3,3.3,0,0,1,2.55.42A7.86,7.86,0,0,1,9.15,40a24.14,24.14,0,0,1,.94,5.71c.05,1.46,0,1.49-.59,1.25-.2-.08,0,.23.51.84a10.59,10.59,0,0,1,2.17,4.25c.7,2.48,1,5.67.54,5.81-.13.05,0,.29.4.6C13.7,59,14.64,60.53,14.35,60.53Zm3.18,3.12c-.44-.54-1.12-1.3-1.52-1.69a3.17,3.17,0,0,1-.88-1.27A9.06,9.06,0,0,0,14.26,59a4.4,4.4,0,0,1-.74-1.58,21.62,21.62,0,0,0-.61-4.32,10.67,10.67,0,0,0-1.62-4.45l-.61-1a.58.58,0,0,1,0-.18l0-2.25a21.84,21.84,0,0,0-.37-4c-.49-2.39-.5-2.34.81-1.68a4.31,4.31,0,0,1,2.14,2.35,10.72,10.72,0,0,1,1,5c0,1.76-.11,2.15-.46,1.93a1.09,1.09,0,0,0-.43-.16c-.38,0-.2.29.37.65a4.81,4.81,0,0,1,.88.68l.34.34-.13-.4a4.65,4.65,0,0,1-.08-1.35c0-.52.08-1.79.08-2.82a4.74,4.74,0,0,1,.16-1.85c.44,0,1.77,1.27,2.17,2.06a19.09,19.09,0,0,1,1.35,5.29c.07,1.09.06,1.28-.2,1.47s-.27.24.2.73c1.12,1.16,2.26,4.66,2.26,6.92,0,.75,0,.8-.4.8-.58,0-.47.23.22.44A4.86,4.86,0,0,1,23.3,65c.09.48.09.49-.29.35a16,16,0,0,0-1.74-.41l-1.08-.22a.45.45,0,0,1-.36-.33l-.27-.93a11.21,11.21,0,0,0-2.14-4.15l-.6-.62a.58.58,0,0,1-.09-.23l-.07-1.76a16.1,16.1,0,0,0-.35-2.83c-.3-1.13-.84-2.4-1-2.29a4.93,4.93,0,0,0,.23,1.34,20.1,20.1,0,0,1,.65,4.35v.28a.47.47,0,0,1-.47.47h-.08c-.3,0-.55,0-.55,0a5.29,5.29,0,0,0,.91.82,8.57,8.57,0,0,1,3,5.32c.1.46.06.51-.3.51S18.12,64.41,17.53,63.65Zm9.68,6.57-1.68.09a.5.5,0,0,1-.33-.12l-.57-.5a12,12,0,0,0-3.8-2.11,1.77,1.77,0,0,1-1.44-1.16c-.37-.65-.45-.9-.29-1a8.22,8.22,0,0,1,3.44.41,10.61,10.61,0,0,1,3.91,1.87A12.09,12.09,0,0,1,29.06,70,6.79,6.79,0,0,1,27.21,70.22ZM81.72,37.38A6.86,6.86,0,0,1,82.83,36c1.16-.75,2.61-.85,3.12-.22A3,3,0,0,1,86.17,38l-.06.24a1.94,1.94,0,0,1,0,.2,3.33,3.33,0,0,1-.14.37l0,.08-.26.34c-.09.11-.16.22-.24.31l-.14.19-.32.41a11.38,11.38,0,0,0-2.28,4.49,11.1,11.1,0,0,0-.44,4l0,2.26a.47.47,0,0,1,0,.17l-.48.82a20,20,0,0,0-1.8,6.32c-.05.52-.1.57-.92.81a17.9,17.9,0,0,0-2.2.93,5.2,5.2,0,0,1-1.4.59c-.19-.18.65-1.56,1.27-2.08.43-.36.55-.55.38-.55s-.33-.48-.11-2.7c.33-3,1.4-5.87,2.77-7.34.76-.81.83-1,.22-.73l-.34.19.09-1.87C79.8,42,80.56,39.1,81.72,37.38ZM66.61,64.25a4.71,4.71,0,0,1,2.47-2.58l.92-.43-.54-.05h-.09a.46.46,0,0,1-.41-.46L69,60a18.71,18.71,0,0,1,1.3-5.18,7,7,0,0,1,1-1.43c.4-.44.49-.63.3-.63-.62,0-.46-2.23.35-4.92a7.13,7.13,0,0,1,1.27-2.79,6.07,6.07,0,0,1,1.6-1.16A15.3,15.3,0,0,1,75,46.09c0,1.18.06,2.48.08,2.88a2.86,2.86,0,0,1-.13,1c-.08.19.19.05.73-.38a4.11,4.11,0,0,0,.9-.81c.08-.18-.4-.17-.52,0a.37.37,0,0,1-.27.16,8.2,8.2,0,0,1-.1-2.66,9.76,9.76,0,0,1,.42-3.53,6.27,6.27,0,0,1,2.4-3.12c1-.62,1.37-.6,1.3.05,0,.26-.17.9-.3,1.42a19.47,19.47,0,0,0-.35,3.72L79,47.51a.42.42,0,0,1,0,.2l-.46.7a19.56,19.56,0,0,0-2.34,8.48,3.69,3.69,0,0,1-.79,2.22,9,9,0,0,0-.86,1.59,2.67,2.67,0,0,1-.66,1c-.27.26-1,1-1.52,1.68-.76.92-1.13,1.24-1.41,1.24-.46,0-.46,0-.07-1.4a7.9,7.9,0,0,1,3.22-4.75c.76-.5.74-.65,0-.55h-.1a.46.46,0,0,1-.53-.46v-.1A22.9,22.9,0,0,1,74.06,53c.36-1.41.31-1.91-.1-1a14.36,14.36,0,0,0-1,4.67l-.09,1.66a.47.47,0,0,1-.12.29l-.6.66q-.14.15-.27.33c-.05.06-.09.13-.14.2a9.11,9.11,0,0,0-.85,1.5c-.1.21-.19.43-.28.65a13.67,13.67,0,0,0-.51,1.45c-.08.26-.16.52-.23.79,0,0,0,0,0,0a.41.41,0,0,1-.18.23,3.05,3.05,0,0,1-.64.2l-.27.06c-.54.11-1.33.3-1.74.41s-.76.16-.76.08A6.32,6.32,0,0,1,66.61,64.25ZM62.8,68A14.56,14.56,0,0,1,67,65.88a18.89,18.89,0,0,1,3.21-.57.62.62,0,0,1,.38.12c.17.11.13.29-.24,1s-.5.85-1.65,1.25a10.3,10.3,0,0,0-3.65,2l-.49.47a.48.48,0,0,1-.34.13l-1.71-.07a9.62,9.62,0,0,1-1.88-.19A11,11,0,0,1,62.8,68ZM88.69,49.68c-.13.87-.35,2.79-.47,4.28-.53,5.71-.69,6.65-1.46,8.63-.4,1-.89,2.14-1.08,2.53a65,65,0,0,0-3,8.79A6.72,6.72,0,0,1,82,75.63a47.66,47.66,0,0,1-5.82,5.47c-.8.61-2,1.52-2.58,2S71.9,84.49,71.17,85c-3,2.2-3.64,2.69-4.48,3.28-2.12,1.51-2.56,3.34-2.09,8.76.06.65.12,1.29.16,1.82a.57.57,0,0,1,0,.13l0,.08a.46.46,0,0,1-.43.3H46.48V99c0-.9-.14-3.48-.33-5.73-.43-5.37-.27-8.79.59-12.26a6.26,6.26,0,0,1,2.18-3.56,25.81,25.81,0,0,1,8.27-5.34l1.65-.65a.45.45,0,0,1,.16,0l2.45,0,3,0a2.56,2.56,0,0,0,1.22-.72,12.39,12.39,0,0,1,3.5-2.26c1.13-.49,1.22-.56,1.68-1.46a15.62,15.62,0,0,1,6-6.21l1.45-.78a.46.46,0,0,1,.23-.06h3.39a.51.51,0,0,1,.33.13l.43.42c.62.59,1.11,1.4,1,1.56s-.33-.15-.62-.42c-.84-.81-1.61-.65-2.52.53a6.29,6.29,0,0,0-.85,1.44,1.37,1.37,0,0,0,0,1.42A4.25,4.25,0,0,0,80.28,66l.14.15a.48.48,0,0,1,0,.55l-.62,1c-1.38,2.43-2.09,3.23-5,5.74a11.48,11.48,0,0,0-2.61,2.77,23.18,23.18,0,0,1-2.14,2.42c-.41.41-.78.8-1,1.12a.47.47,0,0,0,.53.75,2.65,2.65,0,0,0,.62-.33,8.5,8.5,0,0,0,1.23-1.32c.81-1.08,3.14-3.75,3.8-4.37.27-.25,1.29-1.22,2.25-2.17a11.29,11.29,0,0,0,2.88-3.83,29.8,29.8,0,0,1,2.27-3.51c1.36-1.72,2-2.9,1.82-3.6a4.16,4.16,0,0,0-1.88-2.2,5.37,5.37,0,0,0-1.37-.45l-.28,0a.46.46,0,0,1-.37-.3.31.31,0,0,1,0-.21l0-.26a15.89,15.89,0,0,1,2.85-8A4.67,4.67,0,0,0,84,49s-.26.1-.57.33h0a.46.46,0,0,1-.6,0,.42.42,0,0,1-.15-.34,25.06,25.06,0,0,1,.44-3.89,7.59,7.59,0,0,1,2.31-4.58c1.19-1,2.19-1.15,3.08-.33.49.46.42.71-.21.71-.82,0-1,.48-1,2.28s.24,2.49,1.11,2.85c.54.24.56.26.56,1.18A21.39,21.39,0,0,1,88.69,49.68Zm-5.46,13a13,13,0,0,1-2.4,3.06,3,3,0,0,1-.93-1.49c0-.73,1.57-2.95,2.09-2.95a2.2,2.2,0,0,1,.7.54A1.79,1.79,0,0,1,83.23,62.7ZM88.9,43.33c0,.62-.05,1.19-.08,1.6a.47.47,0,0,1-.83.27,1.59,1.59,0,0,1-.26-.43,4.71,4.71,0,0,1,0-3.06c.2-.41.36-.5.74-.5H89Z"
         id="path37" />
      <path
         class="cls-2"
         d="M83.23,62.7a13,13,0,0,1-2.4,3.06,3,3,0,0,1-.93-1.49c0-.73,1.57-2.95,2.09-2.95a2.2,2.2,0,0,1,.7.54A1.79,1.79,0,0,1,83.23,62.7Z"
         id="path39" />
      <path
         class="cls-2"
         d="M89,41.21l-.06,2.12c0,.62-.05,1.19-.08,1.6a.47.47,0,0,1-.83.27,1.59,1.59,0,0,1-.26-.43,4.71,4.71,0,0,1,0-3.06c.2-.41.36-.5.74-.5Z"
         id="path41" />
      <path
         class="cls-2"
         d="M1.11,45.64c-.24,0-.4-1.2-.4-3,0-1.29,0-1.38.34-1.38a1.62,1.62,0,0,1,.61.16C2.68,41.91,2.18,45.64,1.11,45.64Z"
         id="path43" />
      <path
         class="cls-2"
         d="M9.74,64.36c0,.4-.68,1.4-.93,1.4a14.83,14.83,0,0,1-2.4-3.09,2.81,2.81,0,0,1,1.26-1.35,2.51,2.51,0,0,1,.77.61A4.46,4.46,0,0,1,9.74,64.36Z"
         id="path45" />
      <path
         class="cls-3"
         d="M29.06,70a7,7,0,0,1-1.85.2l-1.87.09-.71-.63a12,12,0,0,0-3.8-2.11,1.77,1.77,0,0,1-1.44-1.16c-.37-.65-.45-.9-.29-1a8.12,8.12,0,0,1,3.44.42,10.41,10.41,0,0,1,3.91,1.86A12.09,12.09,0,0,1,29.06,70Z"
         id="path47" />
      <path
         class="cls-3"
         d="M14.35,60.53a16.46,16.46,0,0,1-1.5-.7A14.14,14.14,0,0,0,10.71,59c-.8-.19-.8-.19-.89-.92a22.67,22.67,0,0,0-1.63-5.81,3.73,3.73,0,0,1-.65-2.46c.16-3-.77-7-2.2-9l-2-2.25a3.25,3.25,0,0,1,0-1.88,1.48,1.48,0,0,1,.66-1.11,3.31,3.31,0,0,1,2.55.43A7.78,7.78,0,0,1,9.15,40a24.66,24.66,0,0,1,.94,5.72c.05,1.45,0,1.48-.59,1.25-.2-.08,0,.22.51.83a10.59,10.59,0,0,1,2.17,4.25c.69,2.48,1,5.67.54,5.81-.13.05,0,.29.39.6C13.7,59,14.64,60.53,14.35,60.53Z"
         id="path49" />
      <path
         class="cls-3"
         d="M23,65.3a16,16,0,0,0-1.74-.41l-1.36-.27-.35-1.2a11,11,0,0,0-2.14-4.15l-.68-.72-.08-1.9a16.1,16.1,0,0,0-.35-2.83c-.3-1.13-.84-2.4-1-2.28a4.89,4.89,0,0,0,.23,1.33,20.1,20.1,0,0,1,.65,4.35V58L15.68,58c-.3,0-.55,0-.55,0a5.29,5.29,0,0,0,.91.82,8.57,8.57,0,0,1,3,5.32c.1.46.06.51-.3.51s-.6-.24-1.19-1c-.44-.54-1.12-1.3-1.52-1.69a3.17,3.17,0,0,1-.88-1.27A9,9,0,0,0,14.26,59a4.5,4.5,0,0,1-.74-1.59,21.62,21.62,0,0,0-.61-4.32,10.67,10.67,0,0,0-1.62-4.45l-.65-1,0-2.38a21.84,21.84,0,0,0-.37-4c-.49-2.39-.5-2.34.81-1.68a4.35,4.35,0,0,1,2.14,2.35,10.72,10.72,0,0,1,1,5c0,1.76-.11,2.15-.46,1.93a1.09,1.09,0,0,0-.43-.16c-.38,0-.2.29.37.65a4.42,4.42,0,0,1,.88.69l.34.33-.13-.4a4.6,4.6,0,0,1-.08-1.34c0-.53.08-1.8.08-2.83a4.74,4.74,0,0,1,.16-1.85c.44,0,1.77,1.27,2.17,2.06a18.83,18.83,0,0,1,1.34,5.29c.08,1.09.07,1.29-.19,1.47s-.27.24.19.73c1.13,1.16,2.27,4.66,2.27,6.92,0,.75,0,.8-.4.8-.58,0-.47.23.22.44A4.86,4.86,0,0,1,23.3,65C23.39,65.43,23.39,65.44,23,65.3Z"
         id="path51" />
      <path
         class="cls-3"
         d="M70.3,66.41c-.44.8-.51.85-1.65,1.25A10.31,10.31,0,0,0,65,69.72l-.64.6-1.9-.08a9.62,9.62,0,0,1-1.88-.19,11.26,11.26,0,0,1,2.22-2A14.82,14.82,0,0,1,67,65.88a19.08,19.08,0,0,1,3.21-.56.6.6,0,0,1,.38.11C70.71,65.54,70.67,65.73,70.3,66.41Z"
         id="path53" />
      <path
         class="cls-3"
         d="M86.17,38a4.28,4.28,0,0,1-.27.85,21,21,0,0,0-2.29,3.25,11.6,11.6,0,0,0-1,2.53,11.1,11.1,0,0,0-.45,4V51l-.51.87a20,20,0,0,0-1.8,6.32c-.05.52-.1.57-.92.81a17.9,17.9,0,0,0-2.2.93,5.2,5.2,0,0,1-1.4.59c-.19-.17.65-1.55,1.27-2.08.43-.36.55-.55.38-.55s-.33-.48-.11-2.69c.33-3,1.4-5.88,2.77-7.35.76-.81.83-1,.22-.73l-.34.19.09-1.87c.17-3.39.93-6.29,2.09-8a6.43,6.43,0,0,1,1.11-1.33c1.16-.76,2.61-.86,3.12-.23A3,3,0,0,1,86.17,38Z"
         id="path55" />
      <path
         class="cls-3"
         d="M79.77,39.71c0,.26-.17.9-.3,1.42a19.47,19.47,0,0,0-.35,3.72L79,47.64l-.51.78a19.51,19.51,0,0,0-2.34,8.47,3.69,3.69,0,0,1-.79,2.22,9,9,0,0,0-.86,1.6,2.82,2.82,0,0,1-.66,1c-.27.25-1,1-1.52,1.68-.76.91-1.13,1.23-1.41,1.23-.46,0-.46,0-.07-1.39a7.86,7.86,0,0,1,3.22-4.75c.76-.51.74-.65,0-.56l-.63.09V57.4A22.9,22.9,0,0,1,74.06,53c.36-1.41.31-1.9-.1-1a14.36,14.36,0,0,0-1,4.67l-.1,1.82-.71.79a12.79,12.79,0,0,0-2.33,5.09,2.21,2.21,0,0,1-1.06.36c-.54.11-1.33.3-1.74.42s-.76.15-.76.07a6.65,6.65,0,0,1,.33-1,4.78,4.78,0,0,1,2.47-2.58l.92-.43-.54,0-.54-.05L69,60a18.36,18.36,0,0,1,1.3-5.18,7.23,7.23,0,0,1,1-1.43c.4-.44.49-.63.3-.63-.62,0-.46-2.23.35-4.92a7.13,7.13,0,0,1,1.27-2.79,6.07,6.07,0,0,1,1.6-1.16A15.3,15.3,0,0,1,75,46.09c0,1.19.06,2.49.08,2.88a2.89,2.89,0,0,1-.13,1c-.08.18.19,0,.73-.38a5.59,5.59,0,0,0,.9-.81c.08-.19-.4-.18-.52,0a.37.37,0,0,1-.27.16,8.2,8.2,0,0,1-.1-2.66,9.76,9.76,0,0,1,.42-3.53,6.27,6.27,0,0,1,2.4-3.12C79.52,39,79.84,39.06,79.77,39.71Z"
         id="path57" />
      <path
         class="cls-3"
         d="M88.93,47.2a21.39,21.39,0,0,1-.24,2.48c-.13.87-.35,2.79-.47,4.28-.53,5.72-.69,6.65-1.46,8.63-.4,1-.89,2.14-1.08,2.53a65,65,0,0,0-3,8.79A6.58,6.58,0,0,1,82,75.63a48.43,48.43,0,0,1-5.82,5.48c-.8.6-2,1.52-2.58,2S71.9,84.49,71.17,85c-3,2.2-3.64,2.69-4.48,3.28-2.12,1.51-2.57,3.34-2.09,8.76.06.66.12,1.29.16,1.82a.47.47,0,0,1-.47.51H46.48V99c0-.9-.14-3.48-.33-5.73-.43-5.37-.27-8.79.59-12.26a6.29,6.29,0,0,1,2.18-3.56,26,26,0,0,1,8.27-5.34l1.65-.65a.45.45,0,0,1,.16,0l2.45,0,3,0a2.61,2.61,0,0,0,1.22-.71,12.65,12.65,0,0,1,3.5-2.27c1.13-.49,1.22-.55,1.68-1.46a15.53,15.53,0,0,1,6-6.2l1.45-.79a.46.46,0,0,1,.23-.06h3.39a.51.51,0,0,1,.33.13l.43.42c.62.59,1.11,1.4,1,1.56s-.33-.15-.62-.42c-.84-.8-1.62-.65-2.52.53a6.29,6.29,0,0,0-.85,1.44,1.37,1.37,0,0,0,0,1.42A4.25,4.25,0,0,0,80.28,66l.14.15a.49.49,0,0,1,0,.55l-.62,1.06c-1.38,2.42-2.09,3.23-5,5.73a11.48,11.48,0,0,0-2.61,2.77,23.18,23.18,0,0,1-2.14,2.42c-.41.41-.78.81-1,1.12a.47.47,0,0,0,.53.75,2.65,2.65,0,0,0,.62-.33,8.5,8.5,0,0,0,1.23-1.32c.81-1.07,3.14-3.75,3.8-4.37.27-.25,1.29-1.21,2.25-2.17a11.29,11.29,0,0,0,2.88-3.83,30.65,30.65,0,0,1,2.27-3.51c1.36-1.72,2-2.9,1.82-3.6a4.2,4.2,0,0,0-1.88-2.2,5.5,5.5,0,0,0-1.37-.45l-.28,0a.48.48,0,0,1-.41-.51l0-.26a15.92,15.92,0,0,1,2.85-8A4.67,4.67,0,0,0,84,49s-.26.1-.57.34h0a.47.47,0,0,1-.75-.39,25.06,25.06,0,0,1,.44-3.89,7.59,7.59,0,0,1,2.31-4.58c1.19-1,2.19-1.15,3.07-.33.5.46.43.71-.2.71-.83,0-1,.48-1,2.28s.24,2.49,1.11,2.85C88.91,46.26,88.93,46.28,88.93,47.2Z"
         id="path59" />
      <path
         class="cls-3"
         d="M43.85,98.1l-.05,1.3H24.94l0-.46c.31-4.91.33-6.8.06-7.7a5.79,5.79,0,0,0-2.64-3.37c-1.29-.91-4.17-3.08-8.78-6.64a49.84,49.84,0,0,1-4-3.52c-2.27-2.24-2.22-2.15-3-5.14A67.92,67.92,0,0,0,3.9,64.93c-.27-.57-.76-1.8-1.11-2.71-.61-1.58-.67-1.86-1-5.52-.22-2.11-.44-4.39-.49-5s-.21-1.72-.33-2.37c-.4-2.16-.29-3,.45-3.33s1.06-1.09,1.06-2.86c0-1.39,0-1.54-.36-1.86a1.34,1.34,0,0,0-.79-.35c-.57,0-.56-.35.06-.85a1.82,1.82,0,0,1,2.39.06c1.72,1.12,2.71,3.4,3.14,7,.2,1.85.2,2.61,0,2.61a1.72,1.72,0,0,1-.65-.4c-.66-.57-.74-.36-.14.32A15.1,15.1,0,0,1,9,56.6c.36,2.28.39,2.13-.51,2.24a4.39,4.39,0,0,0-1.3.34,5.3,5.3,0,0,0-1.9,2.11c-.14.44-.11.64.3,1.51a15.85,15.85,0,0,0,1.55,2.36A21.8,21.8,0,0,1,9,68a13.54,13.54,0,0,0,3.6,4.75,52.63,52.63,0,0,1,5.57,6.08,8.87,8.87,0,0,0,1.28,1.41c.59.44,1.53.62,1.64.28a9.29,9.29,0,0,0-1.65-2,32.73,32.73,0,0,1-2.31-2.71,17.18,17.18,0,0,0-2.71-2.69c-2.49-2.14-3.33-3.06-4.17-4.6l-.93-1.63c-.3-.5-.29-.5.05-.87a3.19,3.19,0,0,0,.77-2.25,6.61,6.61,0,0,0-1.82-2.61,1.38,1.38,0,0,0-1.68.32c-.36.33-.55.41-.55.27a3.25,3.25,0,0,1,1.26-1.68c.51-.35.7-.37,2.17-.32a5,5,0,0,1,3.14.84A15.23,15.23,0,0,1,18.8,66.8c.49,1,.52,1,2.17,1.76a12.61,12.61,0,0,1,2.77,1.78l1.11,1H30.2l1.78.62a16.67,16.67,0,0,1,4.62,2.25c3,1.86,5,3.78,5.86,5.52A21.57,21.57,0,0,1,44,84.76C44.14,85.93,44.09,92.05,43.85,98.1Z"
         id="path61" />
      <ellipse
         class="cls-3"
         cx="11.4"
         cy="66.22"
         rx="0.65"
         ry="0.04"
         id="ellipse63" />
      <path
         class="cls-4"
         d="M45.45,74.41H44.26c-.1,0-.19-.17-.19-.38L44,.38c0-.21.08-.38.18-.38h1.2c.1,0,.18.17.18.38L45.64,74C45.64,74.24,45.56,74.41,45.45,74.41Z"
         id="path65" />
      <path
         class="cls-5"
         d="M7.62,37.83V36.64c0-.11.17-.19.38-.19l73.65-.06c.21,0,.38.09.38.19v1.2c0,.1-.17.18-.38.18L8,38C7.8,38,7.62,37.93,7.62,37.83Z"
         id="path67" />
      <path
         class="cls-6"
         d="M71.58,63.07l-.85.85c-.07.07-.25,0-.4-.14l-52.11-52c-.15-.15-.21-.33-.14-.4l.84-.85c.08-.07.26,0,.41.14l52.11,52C71.59,62.82,71.65,63,71.58,63.07Z"
         id="path69" />
      <path
         class="cls-7"
         d="M19,64l-.84-.85c-.08-.07,0-.25.14-.4l52-52.12c.15-.14.33-.21.4-.13l.85.84c.07.07,0,.25-.14.4l-52,52.12C19.22,64,19,64,19,64Z"
         id="path71" />
      <path
         class="cls-8"
         d="M79.44,50.87,79,52c0,.1-.22.11-.42,0L10.5,23.86c-.2-.08-.32-.22-.28-.31l.45-1.11c0-.09.23-.11.43,0L79.16,50.55C79.35,50.63,79.48,50.77,79.44,50.87Z"
         id="path73" />
      <path
         class="cls-9"
         d="M31.17,71.82l-1.11-.46c-.09,0-.1-.23,0-.42L58.17,2.88c.08-.2.22-.33.32-.29l1.1.46c.1,0,.11.23,0,.42L31.49,71.54C31.41,71.73,31.26,71.86,31.17,71.82Z"
         id="path75" />
      <path
         class="cls-10"
         d="M79,22.39l.46,1.1c0,.1-.09.24-.28.32l-68,28.24c-.2.08-.39.07-.42,0l-.46-1.1c0-.1.08-.24.28-.32l68-28.23C78.73,22.28,78.92,22.3,79,22.39Z"
         id="path77" />
      <path
         class="cls-11"
         d="M59.64,71.34l-1.1.46c-.09,0-.24-.09-.32-.28L30,3.5c-.08-.2-.07-.39,0-.43l1.11-.46c.09,0,.23.09.32.29l28.23,68C59.75,71.11,59.74,71.3,59.64,71.34Z"
         id="path79" />
      <path
         id="path4476"
         class="cls-12"
         d="M47.62,64A27.22,27.22,0,1,1,71.91,34.08,27.22,27.22,0,0,1,47.62,64Z" />
      <path
         id="path4796"
         class="cls-13"
         d="M72.19,34.38A27.51,27.51,0,1,0,47.67,64.71,27.59,27.59,0,0,0,72.19,34.38Zm-2,.2a25.54,25.54,0,1,1-28-22.9A25.6,25.6,0,0,1,70.23,34.58Z" />
      <path
         class="cls-14"
         d="M41.32,36.16H56.47C55.13,21.73,33.23,22.44,32.89,37,32.41,49.52,50,53.66,55.28,42.58"
         id="path83" />
      <text
         class="cls-15"
         transform="translate(96.04 60.53)"
         id="text85">eHulog</text>
      <path
         class="cls-16"
         d="M92.68,92.42l-.07-4.51H94l.49,2.44a.64.64,0,0,0,.22.33l.31.26a9,9,0,0,0,1,.54,6.8,6.8,0,0,0,1.12.42,5,5,0,0,0,1.22.16,4.65,4.65,0,0,0,2.88-.8,2.62,2.62,0,0,0,1-2.19,2.52,2.52,0,0,0-.62-1.74A4.69,4.69,0,0,0,100,86.22a19.46,19.46,0,0,0-2-.73c-.65-.2-1.3-.43-1.92-.69a5.18,5.18,0,0,1-2.24-1.66A4.15,4.15,0,0,1,93,80.55a4.06,4.06,0,0,1,.76-2.43,5.17,5.17,0,0,1,2-1.68,6.67,6.67,0,0,1,2.9-.62,13.65,13.65,0,0,1,1.84.12c.58.08,1.14.18,1.67.29l1.51.36v4.32h-1.37l-.47-2.31a.64.64,0,0,0-.22-.32,3.05,3.05,0,0,0-.31-.26,4.11,4.11,0,0,0-.67-.37,5.12,5.12,0,0,0-1.91-.38,4.21,4.21,0,0,0-2.6.71,2.11,2.11,0,0,0-.92,1.73,3.1,3.1,0,0,0,.5,1.71,3.66,3.66,0,0,0,1.92,1.32c.63.23,1.25.45,1.85.65s1.26.46,2,.76A6.86,6.86,0,0,1,103,85a4.35,4.35,0,0,1,1.19,1.36,4.22,4.22,0,0,1,.47,2.07,4.79,4.79,0,0,1-.68,2.44,4.84,4.84,0,0,1-2.11,1.89,8.42,8.42,0,0,1-3.79.73,9.5,9.5,0,0,1-1.72-.16c-.61-.11-1.22-.25-1.85-.42Z"
         id="path87" />
      <path
         class="cls-16"
         d="M113.35,93.39a6.29,6.29,0,0,1-3.21-.8A5.53,5.53,0,0,1,108,90.3a7.6,7.6,0,0,1-.76-3.53,7.39,7.39,0,0,1,.76-3.4A5.8,5.8,0,0,1,110.15,81a6.07,6.07,0,0,1,3.32-.88,5.9,5.9,0,0,1,3.43.92,5.62,5.62,0,0,1,2,2.43,7.91,7.91,0,0,1,.67,3.27,7.52,7.52,0,0,1-.75,3.38,5.87,5.87,0,0,1-5.49,3.29Zm.16-1.29a2.84,2.84,0,0,0,1.7-.47,3.25,3.25,0,0,0,1.06-1.23,5.77,5.77,0,0,0,.56-1.67A9.79,9.79,0,0,0,117,87a9.48,9.48,0,0,0-.37-2.68,4.68,4.68,0,0,0-1.17-2.1,2.94,2.94,0,0,0-2.17-.81,2.87,2.87,0,0,0-1.68.46,3.28,3.28,0,0,0-1.07,1.23,6,6,0,0,0-.56,1.65,8.84,8.84,0,0,0-.17,1.74,10.89,10.89,0,0,0,.18,2,6.71,6.71,0,0,0,.6,1.82,3.77,3.77,0,0,0,1.14,1.35A2.93,2.93,0,0,0,113.51,92.1Z"
         id="path89" />
      <path
         class="cls-16"
         d="M132.4,90h.35v1.34a13.9,13.9,0,0,1-2.08,1.4,5.81,5.81,0,0,1-2.84.67,5.62,5.62,0,0,1-3.11-.83,5.53,5.53,0,0,1-2-2.28A7.41,7.41,0,0,1,122,87a6.73,6.73,0,0,1,.56-2.75A6.89,6.89,0,0,1,124.06,82a7,7,0,0,1,2.16-1.42,6.88,6.88,0,0,1,4.14-.32,6.23,6.23,0,0,1,1.18.4l.79.37-.09,2.38h-.53c-.41-.24-.82-.5-1.23-.76a6.32,6.32,0,0,0-1.32-.68,4.44,4.44,0,0,0-1.66-.28,2.75,2.75,0,0,0-1,.22,2.1,2.1,0,0,0-.88.57,4.25,4.25,0,0,0-.52.75,4.39,4.39,0,0,0-.43,1.22,9.6,9.6,0,0,0-.17,2,6,6,0,0,0,1.06,3.77,3.69,3.69,0,0,0,3.08,1.34,4.08,4.08,0,0,0,1.5-.27,7.22,7.22,0,0,0,1.27-.66Z"
         id="path91" />
      <path
         class="cls-16"
         d="M134.49,93.09v-.86l1.78-.47a.79.79,0,0,0,.35-.19.53.53,0,0,0,.13-.39V83a.53.53,0,0,0-.14-.4.92.92,0,0,0-.38-.21l-1.71-.58v-.85l4.59-.63V91.18a.53.53,0,0,0,.13.39.61.61,0,0,0,.33.19l1.76.47v.86Zm3.23-15.15a2,2,0,0,1-.84-.18,1.46,1.46,0,0,1-.62-.53,1.41,1.41,0,0,1-.24-.82,1.4,1.4,0,0,1,.51-1.16,1.84,1.84,0,0,1,1.19-.4,2,2,0,0,1,1.27.37,1.3,1.3,0,0,1,.49,1.1,1.57,1.57,0,0,1-.23.87,1.49,1.49,0,0,1-.63.56A2,2,0,0,1,137.72,77.94Z"
         id="path93" />
      <path
         class="cls-16"
         d="M147,93.34a3.62,3.62,0,0,1-2-.51,3.49,3.49,0,0,1-1.25-1.31,3.57,3.57,0,0,1-.43-1.72,3.43,3.43,0,0,1,.6-2,4.52,4.52,0,0,1,1.54-1.33,7.77,7.77,0,0,1,2-.72,9.3,9.3,0,0,1,1.94-.22l.57,0,.8.08.55.06V83.91a2.17,2.17,0,0,0-.65-1.84,2.78,2.78,0,0,0-1.71-.5,3.87,3.87,0,0,0-1.2.2,7.09,7.09,0,0,0-1.16.52c-.37.21-.7.42-1,.63l-.79.53h-.47l-.08-2.3,1.39-.5a12.21,12.21,0,0,1,1.56-.4,10.89,10.89,0,0,1,1.91-.15,7.28,7.28,0,0,1,2.2.33,3.45,3.45,0,0,1,1.72,1.21,4,4,0,0,1,.66,2.52l0,6.53a.86.86,0,0,0,.34.71,1.18,1.18,0,0,0,.77.28,1.61,1.61,0,0,0,.56-.12,5.72,5.72,0,0,0,.6-.25h.19v1a6.29,6.29,0,0,1-.66.41,6.82,6.82,0,0,1-.9.44,2.23,2.23,0,0,1-.85.19,2.3,2.3,0,0,1-1.65-.52,2.16,2.16,0,0,1-.55-1.62h-.15A4.53,4.53,0,0,1,150,92.57a5.34,5.34,0,0,1-1.57.62A7.51,7.51,0,0,1,147,93.34Zm1.15-1.7a5.26,5.26,0,0,0,1.72-.32,2.94,2.94,0,0,0,1.48-1V86.73a17.28,17.28,0,0,0-2.87.21,4,4,0,0,0-1.92.77,2,2,0,0,0-.69,1.66,2.31,2.31,0,0,0,.35,1.38,1.84,1.84,0,0,0,.88.69A2.83,2.83,0,0,0,148.17,91.64Z"
         id="path95" />
      <path
         class="cls-16"
         d="M157.13,93.09v-.86l1.78-.47a.78.78,0,0,0,.33-.19.53.53,0,0,0,.14-.39v-14a.54.54,0,0,0-.16-.4,1.34,1.34,0,0,0-.36-.22l-1.81-.67v-.84l4.67-.21v16.3a.5.5,0,0,0,.15.39.92.92,0,0,0,.33.19l1.72.47v.86Z"
         id="path97" />
      <path
         class="cls-16"
         d="M178.46,93.34a4.5,4.5,0,0,1-2.68-.8,5.16,5.16,0,0,1-1.72-2.19,7.88,7.88,0,0,1-.6-3.14,8.67,8.67,0,0,1,.72-3.58,6.16,6.16,0,0,1,2.07-2.58,5.4,5.4,0,0,1,3.22-1,4.23,4.23,0,0,1,1.88.37,4.38,4.38,0,0,1,1.23.86V77.22a.57.57,0,0,0-.14-.4.89.89,0,0,0-.37-.22l-1.77-.67v-.84l4.62-.21V90.64a.46.46,0,0,0,.16.39,1.46,1.46,0,0,0,.37.23l1.39.56v.85l-4,.66h-.06V91.18h-.15a4.47,4.47,0,0,1-1.5,1.48,4.68,4.68,0,0,1-1.52.57A8.34,8.34,0,0,1,178.46,93.34Zm1.31-1.73a4,4,0,0,0,.95-.13,4.27,4.27,0,0,0,1.05-.42,2.34,2.34,0,0,0,.81-.75V82.2a2.59,2.59,0,0,0-.83-.34,7.72,7.72,0,0,0-1.05-.19,6.36,6.36,0,0,0-.86-.07,3.58,3.58,0,0,0-2.19.65A3.88,3.88,0,0,0,176.37,84a6.5,6.5,0,0,0-.42,2.38,8.25,8.25,0,0,0,.4,2.68,4,4,0,0,0,1.23,1.88A3.34,3.34,0,0,0,179.77,91.61Z"
         id="path99" />
      <path
         class="cls-16"
         d="M195,93.39a6.33,6.33,0,0,1-3.22-.8,5.57,5.57,0,0,1-2.14-2.29,7.6,7.6,0,0,1-.76-3.53,7.39,7.39,0,0,1,.76-3.4A5.8,5.8,0,0,1,191.8,81a6.07,6.07,0,0,1,3.32-.88,5.9,5.9,0,0,1,3.43.92,5.62,5.62,0,0,1,2,2.43,7.91,7.91,0,0,1,.67,3.27,7.4,7.4,0,0,1-.76,3.38,6,6,0,0,1-2.15,2.4A6.09,6.09,0,0,1,195,93.39Zm.16-1.29a2.84,2.84,0,0,0,1.7-.47,3.25,3.25,0,0,0,1.06-1.23,5.77,5.77,0,0,0,.56-1.67,9.79,9.79,0,0,0,.17-1.76,9.48,9.48,0,0,0-.37-2.68,4.68,4.68,0,0,0-1.17-2.1,3,3,0,0,0-2.17-.81,2.85,2.85,0,0,0-1.68.46,3.28,3.28,0,0,0-1.07,1.23,6,6,0,0,0-.56,1.65,8.84,8.84,0,0,0-.17,1.74,10.89,10.89,0,0,0,.18,2,6.71,6.71,0,0,0,.6,1.82,3.68,3.68,0,0,0,1.14,1.35A2.91,2.91,0,0,0,195.16,92.1Z"
         id="path101" />
      <path
         class="cls-16"
         d="M204.23,87.26v-2h7.07v2Z"
         id="path103" />
      <path
         class="cls-16"
         d="M219.53,88.69a6.58,6.58,0,0,1-1.35-.13,5.6,5.6,0,0,1-1-.26,1.22,1.22,0,0,0-.56.44,1.32,1.32,0,0,0-.27.86,1.43,1.43,0,0,0,.94,1.3h4.4a5.73,5.73,0,0,1,2.57.49,3.09,3.09,0,0,1,1.36,1.22,3.13,3.13,0,0,1,.4,1.51,3.76,3.76,0,0,1-.89,2.48,5.89,5.89,0,0,1-2.41,1.69,9,9,0,0,1-3.39.62,10.59,10.59,0,0,1-2.88-.37,4.81,4.81,0,0,1-2-1.09,2.35,2.35,0,0,1-.73-1.75,2.47,2.47,0,0,1,.78-1.91,4.18,4.18,0,0,1,1.82-1v-.15a4.11,4.11,0,0,1-.85-.41,2.67,2.67,0,0,1-.73-.73,1.91,1.91,0,0,1-.3-1.09,2.18,2.18,0,0,1,.34-1.25,2.66,2.66,0,0,1,.85-.82,3.26,3.26,0,0,1,1-.41v-.13a5.64,5.64,0,0,1-.92-.69,3.46,3.46,0,0,1-1.14-2.67,4.21,4.21,0,0,1,.61-2.26A4.37,4.37,0,0,1,217,80.66a5.91,5.91,0,0,1,2.68-.56,11.3,11.3,0,0,1,1.5.09c.45.06.89.14,1.31.23h4.17l-.07,1.49-3-.19v.11a6.94,6.94,0,0,1,.78,1.16,3.32,3.32,0,0,1,.29,1.52,3.82,3.82,0,0,1-1.33,3A5.37,5.37,0,0,1,219.53,88.69Zm.38,8.88a7.13,7.13,0,0,0,2-.27,3.61,3.61,0,0,0,1.56-.87,2.17,2.17,0,0,0,.62-1.61,1.93,1.93,0,0,0-.58-1.3,2.48,2.48,0,0,0-1.92-.64h-4.07a2.16,2.16,0,0,0-.95.66,2.2,2.2,0,0,0-.47,1.51,1.93,1.93,0,0,0,.39,1.23,2.67,2.67,0,0,0,1,.77,5.21,5.21,0,0,0,1.27.4A7.73,7.73,0,0,0,219.91,97.57Zm-.36-10a2.7,2.7,0,0,0,1.44-.37,2.34,2.34,0,0,0,.9-1.09,4.58,4.58,0,0,0,.31-1.82,3.36,3.36,0,0,0-.72-2.35,2.48,2.48,0,0,0-1.91-.78,2.52,2.52,0,0,0-1.24.32,2.26,2.26,0,0,0-.91,1,4,4,0,0,0-.35,1.82,3.71,3.71,0,0,0,.69,2.45A2.25,2.25,0,0,0,219.55,87.61Z"
         id="path105" />
      <path
         class="cls-16"
         d="M234.68,93.39a6.29,6.29,0,0,1-3.21-.8,5.53,5.53,0,0,1-2.15-2.29,7.6,7.6,0,0,1-.76-3.53,7.39,7.39,0,0,1,.76-3.4A5.8,5.8,0,0,1,231.48,81a6.07,6.07,0,0,1,3.32-.88,6,6,0,0,1,3.44.92,5.67,5.67,0,0,1,2,2.43,7.91,7.91,0,0,1,.67,3.27,7.52,7.52,0,0,1-.75,3.38,5.87,5.87,0,0,1-5.49,3.29Zm.16-1.29a2.84,2.84,0,0,0,1.7-.47,3.37,3.37,0,0,0,1.07-1.23,6.44,6.44,0,0,0,.56-1.67,10.76,10.76,0,0,0,.16-1.76,9.85,9.85,0,0,0-.36-2.68,4.79,4.79,0,0,0-1.18-2.1,2.94,2.94,0,0,0-2.17-.81,2.89,2.89,0,0,0-1.68.46,3.37,3.37,0,0,0-1.07,1.23,6,6,0,0,0-.56,1.65,8.84,8.84,0,0,0-.17,1.74,10.89,10.89,0,0,0,.18,2,6.4,6.4,0,0,0,.61,1.82,3.65,3.65,0,0,0,1.13,1.35A2.93,2.93,0,0,0,234.84,92.1Z"
         id="path107" />
      <path
         class="cls-16"
         d="M249.45,93.39a6.32,6.32,0,0,1-3.21-.8,5.51,5.51,0,0,1-2.14-2.29,8.23,8.23,0,0,1,0-6.93A5.94,5.94,0,0,1,246.25,81a6.1,6.1,0,0,1,3.32-.88A5.94,5.94,0,0,1,253,81a5.76,5.76,0,0,1,2,2.43,8.06,8.06,0,0,1,.66,3.27,7.52,7.52,0,0,1-.75,3.38,6,6,0,0,1-2.15,2.4A6.15,6.15,0,0,1,249.45,93.39Zm.17-1.29a2.81,2.81,0,0,0,1.69-.47,3.28,3.28,0,0,0,1.07-1.23,6.08,6.08,0,0,0,.56-1.67,10,10,0,0,0-.2-4.44,4.69,4.69,0,0,0-1.18-2.1,2.93,2.93,0,0,0-2.17-.81,2.89,2.89,0,0,0-1.68.46,3.25,3.25,0,0,0-1.06,1.23,5.66,5.66,0,0,0-.57,1.65,9.66,9.66,0,0,0-.17,1.74,10.89,10.89,0,0,0,.18,2,7.09,7.09,0,0,0,.61,1.82,3.59,3.59,0,0,0,1.14,1.35A2.89,2.89,0,0,0,249.62,92.1Z"
         id="path109" />
      <path
         class="cls-16"
         d="M263.11,93.34a4.5,4.5,0,0,1-2.68-.8,5.16,5.16,0,0,1-1.72-2.19,7.88,7.88,0,0,1-.6-3.14,8.67,8.67,0,0,1,.72-3.58,6.16,6.16,0,0,1,2.07-2.58,5.4,5.4,0,0,1,3.22-1,4.23,4.23,0,0,1,1.88.37,4.38,4.38,0,0,1,1.23.86V77.22a.57.57,0,0,0-.14-.4.89.89,0,0,0-.37-.22L265,75.93v-.84l4.62-.21V90.64a.48.48,0,0,0,.15.39,1.74,1.74,0,0,0,.38.23l1.39.56v.85l-4,.66h-.06V91.18h-.15a4.47,4.47,0,0,1-1.5,1.48,4.68,4.68,0,0,1-1.52.57A8.34,8.34,0,0,1,263.11,93.34Zm1.31-1.73a4,4,0,0,0,.95-.13,4.27,4.27,0,0,0,1.05-.42,2.43,2.43,0,0,0,.81-.75V82.2a2.7,2.7,0,0,0-.83-.34,7.72,7.72,0,0,0-1-.19,6.36,6.36,0,0,0-.86-.07,3.58,3.58,0,0,0-2.19.65A3.88,3.88,0,0,0,261,84a6.5,6.5,0,0,0-.42,2.38A8.25,8.25,0,0,0,261,89a4,4,0,0,0,1.23,1.88A3.34,3.34,0,0,0,264.42,91.61Z"
         id="path111" />
      <path
         class="cls-16"
         d="M279.52,93.36a6.36,6.36,0,0,1-3.09-.75,5.35,5.35,0,0,1-2.17-2.2,7.32,7.32,0,0,1-.8-3.58,7.42,7.42,0,0,1,.77-3.42A6.13,6.13,0,0,1,276.37,81a5.66,5.66,0,0,1,3.18-.89,5.58,5.58,0,0,1,2.86.69,4.7,4.7,0,0,1,1.81,1.84,5.05,5.05,0,0,1,.63,2.48c0,.1,0,.23,0,.39s0,.32,0,.48a2,2,0,0,1-.06.4h-9l.07-1.22h6.54a6.27,6.27,0,0,0-.28-2,2.69,2.69,0,0,0-.93-1.32,2.87,2.87,0,0,0-1.72-.46,3.16,3.16,0,0,0-1.72.44A3.1,3.1,0,0,0,276.62,83a5.33,5.33,0,0,0-.56,1.6,9,9,0,0,0-.17,1.7,8.12,8.12,0,0,0,.43,2.69,3.89,3.89,0,0,0,1.41,1.9,4.4,4.4,0,0,0,2.62.7,5.22,5.22,0,0,0,1.7-.26,7.67,7.67,0,0,0,1.41-.63,10.35,10.35,0,0,0,1-.67h.33v1.35a10.64,10.64,0,0,1-2.29,1.36A7.25,7.25,0,0,1,279.52,93.36Z"
         id="path113" />
      <path
         class="cls-16"
         d="M287.24,93.09v-.86l1.45-.47a.78.78,0,0,0,.33-.19.53.53,0,0,0,.14-.39V83a.64.64,0,0,0-.17-.47,1.14,1.14,0,0,0-.37-.26l-1.46-.61v-.83l4.17-.65v2.74h.11a12.75,12.75,0,0,1,1.35-1.65,4.41,4.41,0,0,1,1.24-.9,3,3,0,0,1,1.27-.28,5.09,5.09,0,0,1,1.16.13,2.3,2.3,0,0,1,1.05.54V83.7h-1.44l-.34-.91a1,1,0,0,0-.51-.47,1.93,1.93,0,0,0-.79-.18,2.36,2.36,0,0,0-1.19.3,4,4,0,0,0-.94.75c-.28.3-.55.6-.8.9v7.09a.55.55,0,0,0,.47.58l1.83.47v.86Z"
         id="path115" />
      <path
         style="fill:#000000;stroke-width:0.0869361"
         d="m 97.074025,93.366784 c -0.37712,-0.043 -1.495885,-0.280075 -2.486142,-0.526836 L 92.787414,92.391291 92.73094,90.90256 C 92.69988,90.083758 92.67435,89.091079 92.6742,88.696606 l -2.65e-4,-0.717223 h 0.634091 0.634092 l 0.245632,1.259819 c 0.239801,1.229915 0.253588,1.267008 0.580846,1.562666 0.412276,0.372466 1.315321,0.834626 2.110013,1.079862 2.141567,0.66087 4.521771,-0.06295 5.191691,-1.578801 0.28908,-0.654121 0.28994,-1.749527 0.002,-2.390497 -0.45258,-1.00699 -1.5029,-1.653798 -4.051662,-2.495102 -2.813221,-0.928598 -3.816295,-1.602961 -4.52886,-3.044738 -0.306611,-0.620386 -0.337271,-0.748527 -0.369179,-1.542936 -0.02573,-0.640685 0.0046,-1.011873 0.116412,-1.424975 0.40404,-1.492645 1.888684,-2.823801 3.694925,-3.31293 0.907665,-0.245796 3.097054,-0.20057 4.607614,0.09518 0.6455,0.126381 1.36925,0.281258 1.60832,0.344171 l 0.43468,0.114387 0.0233,2.102566 0.0233,2.102565 h -0.63477 -0.63477 l -0.23441,-1.18863 c -0.27536,-1.39736 -0.37302,-1.543713 -1.32849,-1.990893 -1.507432,-0.705514 -3.404261,-0.610409 -4.680074,0.234654 -1.185303,0.785112 -1.293313,2.631163 -0.225128,3.847759 0.455054,0.518278 1.046915,0.817808 2.961373,1.498699 1.023356,0.363964 2.199469,0.807686 2.613589,0.986049 2.20045,0.947741 3.21854,2.405466 3.09139,4.426288 -0.0586,0.930831 -0.29309,1.616069 -0.81643,2.385553 -0.72547,1.06667 -1.7312,1.709069 -3.2979,2.106496 -0.955827,0.242465 -2.334567,0.328419 -3.371505,0.210189 z"
         id="path452" />
      <path
         style="fill:#000000;stroke-width:0.0869361"
         d="m 112.75618,93.286145 c -1.52789,-0.131255 -2.64307,-0.636915 -3.66551,-1.662082 -0.51604,-0.517402 -0.74614,-0.83309 -1.0207,-1.400338 -0.5715,-1.180712 -0.72615,-1.899389 -0.72615,-3.374512 0,-1.513721 0.15857,-2.225491 0.77447,-3.476393 0.73374,-1.490223 2.09785,-2.581878 3.76853,-3.015839 0.7776,-0.201982 2.45743,-0.20301 3.21664,-0.002 2.00941,0.532092 3.4952,2.042523 4.08162,4.149304 0.81888,2.941918 -0.041,6.048613 -2.10679,7.611998 -1.26331,0.956054 -2.59979,1.317788 -4.32211,1.169831 z m 2.12994,-1.393234 c 1.52363,-0.740661 2.37359,-3.047903 2.12872,-5.778426 -0.15896,-1.772438 -0.64402,-3.051839 -1.47123,-3.880484 -0.6942,-0.695415 -1.24164,-0.888542 -2.39621,-0.845348 -0.7608,0.02846 -0.92678,0.06399 -1.32912,0.284496 -0.59618,0.326742 -1.10102,0.881281 -1.41345,1.552599 -1.27203,2.733218 -0.62903,7.166223 1.22591,8.451697 0.53474,0.370575 0.98841,0.47513 1.95134,0.449716 0.713,-0.01882 0.94754,-0.06095 1.30404,-0.23425 z"
         id="path454" />
      <path
         style="fill:#000000;stroke-width:0.0869361"
         d="m 126.87299,93.282528 c -1.81554,-0.266025 -3.30287,-1.400101 -4.10523,-3.130202 -1.65151,-3.561089 -0.24659,-7.717167 3.15925,-9.345792 0.96852,-0.463132 1.59483,-0.596727 2.82543,-0.60268 1.22338,-0.0059 1.69752,0.08634 2.76022,0.537068 l 0.71722,0.304202 v 0.891646 c 0,1.127869 -0.0577,1.434997 -0.26979,1.434997 -0.0886,0 -0.63879,-0.29267 -1.2226,-0.650378 -1.40321,-0.859762 -1.94742,-1.044877 -3.07176,-1.044877 -0.77698,0 -0.92224,0.02597 -1.367,0.244373 -0.84322,0.414073 -1.42039,1.273752 -1.6945,2.523901 -0.20249,0.923564 -0.19948,3.143103 0.005,3.882341 0.3877,1.399726 1.05524,2.332233 2.03916,2.848601 0.70153,0.368165 1.29569,0.485993 2.18038,0.432388 0.95145,-0.05765 1.63728,-0.30682 2.76802,-1.005659 0.47754,-0.295134 0.91308,-0.536607 0.96787,-0.536607 0.0657,0 0.0995,0.214283 0.0992,0.630287 l -4.4e-4,0.630287 -0.47945,0.347745 c -1.955,1.417942 -3.47316,1.877679 -5.31119,1.608359 z"
         id="path456" />
      <path
         style="fill:#000000;stroke-width:0.173872"
         d="m 134.57716,92.680636 c 0,-0.256055 0.18415,-0.387521 0.73896,-0.527553 0.40642,-0.102581 0.915,-0.260405 1.13017,-0.350719 l 0.39121,-0.164208 v -4.503118 c 0,-3.394762 -0.0535,-4.54549 -0.21734,-4.675273 -0.11954,-0.09469 -0.62812,-0.30616 -1.13017,-0.469944 -0.68076,-0.22208 -0.91283,-0.382644 -0.91283,-0.631559 0,-0.183574 0.0978,-0.335293 0.21734,-0.337152 0.11954,-0.0019 0.99976,-0.116742 1.95606,-0.255295 0.9563,-0.138553 1.83653,-0.254395 1.95607,-0.257428 0.16925,-0.0043 0.21734,1.170368 0.21734,5.309022 0,3.198766 0.069,5.443448 0.17329,5.638345 0.0981,0.183253 0.58865,0.444555 1.13017,0.60198 0.74241,0.215822 0.95688,0.355024 0.95688,0.621058 0,0.329237 -0.13152,0.342887 -3.30358,0.342887 -3.16602,0 -3.30357,-0.0142 -3.30357,-0.341043 z"
         id="path458" />
      <path
         style="fill:#000000;stroke-width:0.0434681"
         d="m 137.23961,77.830406 c -0.67733,-0.190644 -1.09148,-0.650302 -1.16732,-1.295583 -0.0596,-0.50745 0.20363,-1.070621 0.62601,-1.339131 0.81685,-0.51928 2.07982,-0.329206 2.53008,0.38077 0.47882,0.755017 0.0952,1.848537 -0.76637,2.184342 -0.32852,0.128053 -0.89928,0.160551 -1.2224,0.0696 z"
         id="path460" />
      <path
         style="fill:#000000;stroke-width:0.122946"
         d="m 146.27197,93.182 c -2.74841,-0.431637 -3.80253,-3.983788 -1.74501,-5.880341 1.22903,-1.132876 2.91053,-1.659483 5.25235,-1.644905 l 1.56756,0.0098 0.0248,-0.939311 c 0.0374,-1.416638 0.005,-1.689734 -0.26258,-2.214303 -0.37769,-0.740342 -1.1109,-1.046862 -2.32228,-0.97084 -1.08763,0.06826 -1.86902,0.375922 -3.16812,1.247417 -0.46576,0.312456 -0.90935,0.568102 -0.98575,0.568102 -0.16373,0 -0.29078,-0.671007 -0.29267,-1.545799 l -0.001,-0.623703 1.2602,-0.400625 c 3.086,-0.981054 5.80185,-0.729788 7.07818,0.65486 0.85838,0.931242 0.88669,1.105457 0.91706,5.645102 l 0.027,4.037201 0.35725,0.30723 c 0.29893,0.257074 0.44946,0.29805 0.9221,0.250999 0.31066,-0.03093 0.69311,-0.09845 0.84988,-0.150059 0.26808,-0.08825 0.28271,-0.06625 0.24589,0.369639 -0.037,0.437956 -0.0858,0.487186 -0.8865,0.894419 -1.75134,0.890702 -3.20942,0.373213 -3.47299,-1.2326 -0.0416,-0.253576 -0.10455,-0.461048 -0.13983,-0.461048 -0.0353,0 -0.33093,0.278228 -0.65697,0.618285 -0.6695,0.69828 -1.82059,1.303497 -2.68156,1.409911 -1.10203,0.136207 -1.30669,0.141698 -1.88668,0.05061 z m 3.71264,-1.817525 c 0.36649,-0.13944 0.85059,-0.432103 1.07578,-0.650361 l 0.40943,-0.396834 v -1.820076 -1.820076 h -0.85173 c -2.47158,0 -4.07991,0.563632 -4.63106,1.622932 -0.3941,0.757432 -0.11408,2.413568 0.49331,2.917656 0.66282,0.550089 2.26755,0.617295 3.50427,0.146759 z"
         id="path462" />
      <path
         style="fill:#000000;stroke-width:0.122946"
         d="m 157.27086,92.621837 c 0.035,-0.292866 0.13631,-0.353583 1.00906,-0.604766 0.53359,-0.153569 1.01684,-0.352857 1.0739,-0.442864 0.0571,-0.09001 0.10459,-3.438565 0.10562,-7.441243 l 0.002,-7.277596 -0.26582,-0.186183 c -0.1462,-0.1024 -0.67179,-0.334252 -1.16799,-0.515225 -0.83454,-0.304376 -0.90217,-0.355457 -0.90217,-0.681412 0,-0.336535 0.0262,-0.35297 0.58399,-0.365715 0.3212,-0.0073 1.34481,-0.04883 2.2747,-0.09221 l 1.69071,-0.07887 -2e-4,8.249082 c -2.2e-4,9.461635 -0.14775,8.474024 1.32148,8.846372 0.84119,0.213183 0.89136,0.245325 0.89136,0.571038 v 0.345138 h -3.32771 -3.32772 z"
         id="path464" />
      <path
         style="fill:#000000;stroke-width:0.122946"
         d="m 177.71885,93.186128 c -1.87669,-0.254456 -3.37301,-1.788833 -3.94487,-4.045191 -0.15405,-0.607833 -0.18735,-1.156145 -0.14189,-2.33598 0.0909,-2.358574 0.68345,-3.799481 2.12206,-5.160063 0.98051,-0.927325 2.0239,-1.377695 3.36951,-1.454418 1.28037,-0.073 2.06118,0.137033 2.90562,0.781605 0.30144,0.230096 0.57526,0.418357 0.60848,0.418357 0.0332,0 0.0604,-0.985291 0.0604,-2.189535 0,-1.561464 -0.0441,-2.247728 -0.15368,-2.392407 -0.0845,-0.111581 -0.59629,-0.363999 -1.13725,-0.560929 -0.92116,-0.335334 -0.98602,-0.382467 -1.0221,-0.742723 l -0.0385,-0.384667 h 0.72617 c 0.39939,0 1.39876,-0.03616 2.22082,-0.08037 l 1.49466,-0.08037 v 7.895539 c 0,4.946635 0.0452,7.980024 0.12106,8.121744 0.0666,0.124413 0.50919,0.378483 0.98357,0.564599 0.78445,0.307767 0.86251,0.369808 0.86251,0.685466 0,0.258974 -0.0702,0.363342 -0.27663,0.411163 -0.39639,0.09184 -3.32069,0.555274 -3.50397,0.555302 -0.11089,1.9e-5 -0.15368,-0.290935 -0.15368,-1.045019 0,-0.577374 -0.0522,-1.045043 -0.11669,-1.045043 -0.0642,0 -0.27165,0.203573 -0.46105,0.452386 -0.90165,1.184508 -2.79141,1.865537 -4.52453,1.630548 z m 3.54018,-1.78245 c 0.32422,-0.112413 0.7814,-0.385388 1.01596,-0.606614 l 0.42649,-0.402228 -0.0324,-4.164096 -0.0324,-4.164098 -0.64664,-0.214528 c -1.05525,-0.350089 -2.56554,-0.414473 -3.42422,-0.145976 -1.91793,0.599712 -2.95244,2.869677 -2.62423,5.758174 0.25226,2.220049 1.1358,3.598619 2.61816,4.085087 0.62713,0.205806 1.88058,0.138138 2.69926,-0.145721 z"
         id="path466" />
      <path
         style="fill:#000000;stroke-width:0.122946"
         d="m 193.70187,93.199031 c -2.40272,-0.521012 -4.03181,-2.18662 -4.55554,-4.657659 -0.53908,-2.543453 0.1821,-5.212956 1.81728,-6.726844 1.08905,-1.00827 2.14038,-1.462885 3.69699,-1.598651 3.12086,-0.272198 5.62622,1.676446 6.28512,4.888503 0.71899,3.505 -0.84829,6.735624 -3.80136,7.835688 -0.82141,0.305986 -2.6064,0.440264 -3.44249,0.258963 z m 2.95323,-1.359383 c 1.24192,-0.601204 1.89262,-2.051154 1.99263,-4.4402 0.12366,-2.953623 -0.64726,-4.949425 -2.24105,-5.801778 -0.72147,-0.38584 -2.12128,-0.374405 -2.9304,0.02394 -0.71346,0.351251 -1.31688,1.123713 -1.69221,2.166281 -0.3717,1.032478 -0.4688,3.603872 -0.18425,4.879569 0.3979,1.783886 1.26044,2.993603 2.39384,3.357394 0.76921,0.246896 1.93666,0.165655 2.66144,-0.185206 z"
         id="path468" />
      <path
         style="fill:#000000;stroke-width:0.122946"
         d="m 204.33672,86.246816 v -0.922097 h 3.44249 3.4425 v 0.922097 0.922097 h -3.4425 -3.44249 z"
         id="path470" />
      <path
         style="fill:#000000;stroke-width:0.122946"
         d="m 218.1067,98.768654 c -2.88044,-0.384541 -4.42076,-1.573221 -4.27748,-3.300974 0.0361,-0.435432 0.16347,-0.825452 0.37289,-1.141912 0.35092,-0.530269 1.31856,-1.23313 1.84524,-1.340311 0.45385,-0.09236 0.42696,-0.355757 -0.0615,-0.602205 -1.2968,-0.654319 -1.78088,-1.860187 -1.20216,-2.994582 0.28769,-0.563912 0.6712,-0.886641 1.41917,-1.194229 0.48193,-0.198189 0.75753,-0.533743 0.43836,-0.533743 -0.0622,0 -0.4189,-0.279545 -0.79274,-0.62121 -0.90121,-0.823656 -1.23247,-1.651889 -1.15297,-2.882759 0.13159,-2.03761 1.57659,-3.46559 3.93305,-3.886713 0.70937,-0.12677 1.1026,-0.124283 2.17011,0.01372 0.71707,0.0927 2.31345,0.189414 3.54753,0.214915 l 2.24377,0.04636 -0.002,0.330499 c -9.8e-4,0.181775 -0.0371,0.462803 -0.0804,0.624508 l -0.0787,0.294009 -1.45647,-0.08231 c -0.8863,-0.05009 -1.45647,-0.03703 -1.45647,0.03336 0,0.06362 0.19172,0.406791 0.42605,0.7626 1.28284,1.947902 0.55368,4.406652 -1.63439,5.511186 -1.30263,0.657565 -2.62572,0.761338 -4.57462,0.358798 -0.73037,-0.150855 -0.74254,-0.148785 -1.07407,0.182748 -0.28472,0.284719 -0.33533,0.438493 -0.33533,1.018827 0,0.616601 0.0393,0.718607 0.40152,1.042249 l 0.40151,0.358754 2.73362,0.0015 c 1.8873,10e-4 2.92393,0.0523 3.34834,0.165668 1.44268,0.385373 2.25578,1.090399 2.5922,2.247654 0.61865,2.128063 -1.20057,4.36205 -4.1905,5.145911 -0.76188,0.199741 -2.7471,0.328754 -3.50397,0.227714 z m 3.63061,-1.339853 c 0.97191,-0.253151 1.78797,-0.793692 2.13771,-1.415972 0.23264,-0.41393 0.2745,-0.63714 0.23134,-1.233792 -0.0635,-0.877867 -0.33218,-1.293641 -1.08432,-1.677966 -0.51121,-0.261215 -0.68697,-0.276629 -3.15439,-0.276629 h -2.61302 l -0.4529,0.397655 c -0.5497,0.482643 -0.78512,1.008548 -0.78512,1.753905 0,1.276079 0.68112,1.995891 2.33598,2.468684 0.77035,0.220086 2.51011,0.211922 3.38472,-0.01588 z m -0.88077,-10.072324 c 0.99451,-0.479412 1.51216,-1.75239 1.40318,-3.450581 -0.11363,-1.77051 -1.08683,-2.814087 -2.61094,-2.799749 -1.75492,0.01651 -2.64859,1.108047 -2.64859,3.235001 0,1.557961 0.61038,2.775674 1.5983,3.188593 0.44944,0.187854 1.70951,0.09117 2.25805,-0.173264 z"
         id="path472" />
      <path
         style="fill:#000000;stroke-width:0.122946"
         d="m 233.59793,93.231347 c -2.14323,-0.358365 -3.80971,-1.779729 -4.55318,-3.883484 -0.37892,-1.07222 -0.47113,-3.279682 -0.18346,-4.391983 0.84877,-3.281803 3.62822,-5.164401 6.91894,-4.686386 2.90446,0.421907 4.78642,2.660729 5.02129,5.973434 0.23144,3.264302 -1.65767,6.133831 -4.54406,6.902388 -0.59126,0.157434 -1.96645,0.201918 -2.65953,0.08603 z m 2.16267,-1.160206 c 1.20386,-0.303134 2.22115,-1.69699 2.50107,-3.426873 0.39879,-2.464512 -0.0986,-5.034322 -1.22203,-6.31385 -0.64462,-0.734177 -1.25603,-0.99527 -2.33847,-0.998604 -1.13394,-0.0035 -1.9431,0.359279 -2.5364,1.137144 -1.39876,1.833899 -1.48169,5.828426 -0.16825,8.103989 0.78376,1.357876 2.15454,1.903481 3.76408,1.498194 z"
         id="path474" />
      <path
         style="fill:#000000;stroke-width:0.122946"
         d="m 248.35149,93.231347 c -1.69951,-0.28417 -3.38612,-1.458035 -4.11762,-2.865831 -0.69903,-1.345275 -0.97002,-3.559267 -0.63063,-5.152179 0.3781,-1.774576 1.43998,-3.386841 2.72773,-4.141512 2.28233,-1.33753 5.37897,-1.129039 7.14377,0.480975 0.88746,0.809618 1.31956,1.493186 1.72374,2.726875 0.27089,0.826835 0.32267,1.208877 0.32497,2.397453 0.002,1.222973 -0.0424,1.544885 -0.3315,2.384099 -0.59975,1.740912 -1.61954,2.942545 -3.08209,3.631676 -1.15904,0.546119 -2.53421,0.743134 -3.75837,0.538444 z m 2.29937,-1.206575 c 1.57151,-0.46669 2.48964,-2.312984 2.49371,-5.014725 0.005,-3.375124 -1.24314,-5.486705 -3.37337,-5.706565 -0.8249,-0.08514 -1.82982,0.205785 -2.43071,0.703685 -0.538,0.445795 -1.1123,1.585886 -1.33052,2.641347 -0.35385,1.711445 -0.0662,4.371494 0.61778,5.712126 0.76744,1.504309 2.35291,2.160128 4.02311,1.664132 z"
         id="path476" />
      <path
         style="fill:#000000;stroke-width:0.122946"
         d="m 262.42884,93.181367 c -1.00331,-0.125963 -1.82134,-0.553649 -2.57972,-1.348725 -2.69547,-2.825926 -1.98486,-8.685552 1.31173,-10.816236 1.82238,-1.177862 4.08359,-1.143511 5.72479,0.08697 l 0.39957,0.29958 v -2.265709 c 0,-1.83697 -0.034,-2.293915 -0.1796,-2.414766 -0.0988,-0.08198 -0.58288,-0.305568 -1.07578,-0.496858 -0.82068,-0.318499 -0.89942,-0.379715 -0.9347,-0.726621 l -0.0385,-0.378821 h 0.72617 c 0.39939,0 1.39876,-0.03616 2.22082,-0.08037 l 1.49466,-0.08037 v 7.895539 c 0,4.946635 0.0452,7.980024 0.12106,8.121744 0.0666,0.124413 0.50919,0.378483 0.98357,0.564599 0.78444,0.307767 0.86251,0.369808 0.86251,0.685466 0,0.259644 -0.0697,0.362649 -0.27663,0.408902 -0.36743,0.08212 -3.38381,0.557588 -3.53738,0.557588 -0.069,0 -0.12027,-0.445785 -0.12027,-1.045044 0,-1.158746 -0.12998,-1.315715 -0.55326,-0.668156 -0.29301,0.448263 -1.20569,1.146972 -1.8497,1.416057 -0.58846,0.245875 -1.90485,0.384974 -2.69931,0.285229 z m 3.59227,-1.831392 c 0.32334,-0.14298 0.74005,-0.405663 0.926,-0.583741 l 0.3381,-0.323776 V 86.288444 82.13443 l -0.3381,-0.171951 c -0.18595,-0.09457 -0.70225,-0.234309 -1.14732,-0.310523 -1.88554,-0.322881 -2.87697,-0.08377 -3.92248,0.945998 -0.9462,0.931961 -1.24339,1.711017 -1.32419,3.471234 -0.0681,1.48306 0.22056,2.940929 0.76679,3.872993 0.40792,0.696064 1.21613,1.372905 1.90431,1.594786 0.73593,0.237274 2.03364,0.150512 2.79689,-0.186992 z"
         id="path478" />
      <path
         style="fill:#000000;stroke-width:0.122946"
         d="m 278.35563,93.183322 c -2.04599,-0.360743 -3.64851,-1.730671 -4.39223,-3.754749 -0.41648,-1.133439 -0.52163,-3.055119 -0.23397,-4.275924 0.78779,-3.343392 3.64984,-5.419081 6.74115,-4.888981 2.69684,0.462456 4.27301,2.337539 4.27301,5.083366 v 0.961255 h -4.3646 -4.36459 v -0.553258 -0.553259 h 3.26961 3.26962 l -0.0812,-0.645468 c -0.23419,-1.860662 -0.82265,-2.776006 -2.00574,-3.119941 -1.54193,-0.448251 -3.12154,0.149376 -3.89368,1.473125 -0.3948,0.676851 -0.80066,2.233315 -0.81284,3.11724 -0.0137,0.995741 0.30022,2.613075 0.65659,3.38259 1.17043,2.527314 4.65925,3.027916 7.54224,1.082213 0.30308,-0.204549 0.60361,-0.371907 0.66784,-0.371907 0.0642,0 0.11679,0.273787 0.11679,0.608416 v 0.608416 l -1.01431,0.624876 c -1.70356,1.049499 -3.73365,1.51115 -5.37365,1.22199 z"
         id="path480" />
      <path
         style="fill:#000000;stroke-width:0.122946"
         d="m 291.43706,87.660698 c 0,-1.994803 0.0169,-2.810859 0.0376,-1.813458 0.0207,0.997402 0.0207,2.629514 0,3.626916 -0.0207,0.997401 -0.0376,0.181345 -0.0376,-1.813458 z"
         id="path482" />
      <path
         style="fill:#000000;stroke-width:0.122946"
         d="m 287.34803,92.618988 c 0.0337,-0.28404 0.1445,-0.363557 0.82063,-0.588645 0.42994,-0.143134 0.85872,-0.365546 0.95283,-0.494249 0.26232,-0.358741 0.2509,-8.624613 -0.0124,-9.000573 -0.10095,-0.144122 -0.57122,-0.414139 -1.04504,-0.600039 -0.78534,-0.308115 -0.86151,-0.368893 -0.86151,-0.687414 0,-0.192179 0.0286,-0.349415 0.0635,-0.349415 0.0681,0 2.93045,-0.444012 3.59414,-0.55753 l 0.39958,-0.06834 v 1.368226 c 0,0.868009 0.0455,1.353068 0.12438,1.326766 0.0684,-0.0228 0.47151,-0.456188 0.8958,-0.963079 1.26708,-1.513785 2.41227,-2.027827 3.86684,-1.735707 1.23205,0.247431 1.26029,0.290532 1.26029,1.923438 v 1.411048 h -0.64926 -0.64926 l -0.18062,-0.511384 c -0.25179,-0.712844 -0.68143,-0.999099 -1.49956,-0.999099 -0.8817,0 -1.45264,0.292012 -2.32512,1.189186 l -0.72055,0.740943 v 3.705403 c 0,4.291093 -0.10343,3.960298 1.35241,4.325343 0.84098,0.210869 0.92552,0.260346 0.961,0.562368 l 0.0389,0.331157 h -3.21294 -3.21294 z"
         id="path484" />
      <text
         xml:space="preserve"
         style="fill:#000000"
         x="91.109085"
         y="87.631638"
         id="text621"><tspan
           sodipodi:role="line"
           id="tspan619"></tspan></text>
      <text
         xml:space="preserve"
         style="font-size:26.9664px;fill:#000000;stroke-width:2.2472"
         x="90.991867"
         y="106.28533"
         id="text675"><tspan
           sodipodi:role="line"
           id="tspan673"
           x="90.991867"
           y="106.28533"
           style="font-style:normal;font-variant:normal;font-weight:normal;font-stretch:normal;font-family:Constantia;-inkscape-font-specification:Constantia;stroke-width:2.2472">Social do-gooder</tspan></text>
    </g>
  </g>
</svg>
