<svg xmlns="http://www.w3.org/2000/svg" xmlns:xlink="http://www.w3.org/1999/xlink" viewBox="0 0 205 296.82"><defs><style>.cls-1{font-size:64.05px;fill:#c93;font-family:TrebuchetMS, Trebuchet MS;}.cls-2,.cls-4{fill:#fff;}.cls-2{stroke:#000;stroke-miterlimit:10;stroke-width:0.1px;}.cls-3{fill:#b38b6d;}.cls-5{fill:tan;}.cls-6{fill:url(#linear-gradient);}.cls-7{fill:url(#linear-gradient-2);}.cls-8{fill:url(#linear-gradient-3);}.cls-9{fill:url(#linear-gradient-4);}.cls-10{fill:url(#linear-gradient-5);}.cls-11{fill:url(#linear-gradient-6);}.cls-12{fill:url(#linear-gradient-7);}.cls-13{fill:url(#linear-gradient-8);}.cls-14{fill:url(#linear-gradient-9);}.cls-15{fill:url(#linear-gradient-10);}.cls-16{fill:none;stroke:#ebd400;stroke-linecap:round;stroke-linejoin:round;stroke-width:8.76px;}</style><linearGradient id="linear-gradient" x1="-309.56" y1="-241.12" x2="-308.94" y2="-235.06" gradientTransform="matrix(0, 5.5, -1, 0, -133.24, 1777.12)" gradientUnits="userSpaceOnUse"><stop offset="0" stop-color="#f4d24c"/><stop offset="0.7" stop-color="#fc0" stop-opacity="0.97"/><stop offset="1" stop-color="#dab31a" stop-opacity="0.96"/></linearGradient><linearGradient id="linear-gradient-2" x1="-335.39" y1="-26.68" x2="-334.77" y2="-20.61" gradientTransform="matrix(-5.5, 0, 0, -1, -1737.99, 55.06)" xlink:href="#linear-gradient"/><linearGradient id="linear-gradient-3" x1="-287.06" y1="-249.58" x2="-286.43" y2="-243.51" gradientTransform="matrix(3.89, 3.88, -0.71, 0.71, 1044.55, 1365.33)" xlink:href="#linear-gradient"/><linearGradient id="linear-gradient-4" x1="-336.93" y1="-150.36" x2="-336.31" y2="-144.29" gradientTransform="matrix(-3.88, 3.89, -0.71, -0.71, -1307.85, 1282.37)" xlink:href="#linear-gradient"/><linearGradient id="linear-gradient-5" x1="-277.09" y1="-218.14" x2="-276.46" y2="-212.07" gradientTransform="matrix(5.08, 2.1, -0.38, 0.92, 1427.17, 857.2)" xlink:href="#linear-gradient"/><linearGradient id="linear-gradient-6" x1="-331.21" y1="-205.18" x2="-330.59" y2="-199.11" gradientTransform="matrix(-2.1, 5.08, -0.92, -0.38, -777.92, 1680.78)" xlink:href="#linear-gradient"/><linearGradient id="linear-gradient-7" x1="-267.05" y1="-107.11" x2="-266.42" y2="-101.04" gradientTransform="matrix(5.08, -2.11, 0.38, 0.92, 1497.44, -388.53)" xlink:href="#linear-gradient"/><linearGradient id="linear-gradient-8" x1="-311.01" y1="-260.32" x2="-310.38" y2="-254.26" gradientTransform="matrix(2.11, 5.08, -0.92, 0.38, 520.57, 1753.06)" xlink:href="#linear-gradient"/><linearGradient id="linear-gradient-9" x1="63.57" y1="36.63" x2="143.61" y2="116.67" gradientUnits="userSpaceOnUse"><stop offset="0.11" stop-color="#cd9b44"/><stop offset="0.33" stop-color="#c8aa4a"/><stop offset="0.78" stop-color="#c5a646"/><stop offset="1" stop-color="#9d7118"/></linearGradient><linearGradient id="linear-gradient-10" x1="-321.27" y1="253.81" x2="-206.32" y2="253.81" gradientTransform="translate(383.15 313.69) rotate(84.11)" xlink:href="#linear-gradient"/></defs><g id="Layer_2" data-name="Layer 2"><g id="Layer_2-2" data-name="Layer 2"><text class="cls-1" transform="translate(3.48 258.39)">eHulog</text><path class="cls-2" d="M1.6,290.28l-.07-4.51H2.92l.5,2.44a.61.61,0,0,0,.21.33,4.12,4.12,0,0,0,.32.26,9.83,9.83,0,0,0,1,.54,6.92,6.92,0,0,0,1.13.42,4.92,4.92,0,0,0,1.22.16,4.67,4.67,0,0,0,2.88-.8,2.62,2.62,0,0,0,1-2.19,2.44,2.44,0,0,0-.63-1.73,4.5,4.5,0,0,0-1.67-1.12c-.67-.28-1.34-.53-2-.73s-1.3-.43-1.93-.68A5.31,5.31,0,0,1,2.75,281a4.38,4.38,0,0,1-.06-5,5.22,5.22,0,0,1,2.06-1.69,6.65,6.65,0,0,1,2.89-.62,13.69,13.69,0,0,1,1.85.12c.58.08,1.14.18,1.67.3s1,.23,1.51.35v4.32H11.29l-.47-2.31a.56.56,0,0,0-.21-.32,3.06,3.06,0,0,0-.32-.26,4,4,0,0,0-.66-.37,5.34,5.34,0,0,0-.88-.27,4.88,4.88,0,0,0-1-.11,4.18,4.18,0,0,0-2.59.71,2.11,2.11,0,0,0-.93,1.73,3.18,3.18,0,0,0,.5,1.71,3.8,3.8,0,0,0,1.93,1.33c.63.22,1.24.44,1.85.64s1.26.46,2,.76a7.21,7.21,0,0,1,1.52.86,4,4,0,0,1,1.65,3.42,4.75,4.75,0,0,1-.67,2.44,4.81,4.81,0,0,1-2.12,1.89,8.39,8.39,0,0,1-3.79.73,9.66,9.66,0,0,1-1.72-.16c-.6-.11-1.22-.25-1.85-.41Z" transform="translate(-1.48)"/><path class="cls-2" d="M22.28,291.25a6.33,6.33,0,0,1-3.22-.8,5.51,5.51,0,0,1-2.14-2.29,8.23,8.23,0,0,1,0-6.93,5.94,5.94,0,0,1,2.16-2.39,6.1,6.1,0,0,1,3.32-.88,5.94,5.94,0,0,1,3.44.92,5.69,5.69,0,0,1,2,2.43,8.1,8.1,0,0,1,.66,3.27,7.52,7.52,0,0,1-.75,3.38,5.88,5.88,0,0,1-2.15,2.4A6.14,6.14,0,0,1,22.28,291.25Zm.16-1.29a2.81,2.81,0,0,0,1.69-.47,3.28,3.28,0,0,0,1.07-1.23,6.08,6.08,0,0,0,.56-1.67,10,10,0,0,0-.2-4.44,4.69,4.69,0,0,0-1.18-2.1,2.92,2.92,0,0,0-2.16-.81,3,3,0,0,0-1.69.46,3.42,3.42,0,0,0-1.06,1.23,6.08,6.08,0,0,0-.57,1.65,9.69,9.69,0,0,0-.17,1.75,10.86,10.86,0,0,0,.18,1.94,7,7,0,0,0,.61,1.82,3.7,3.7,0,0,0,1.14,1.36A3,3,0,0,0,22.44,290Z" transform="translate(-1.48)"/><path class="cls-2" d="M41.32,287.81h.35v1.34a12.73,12.73,0,0,1-2.08,1.4,5.76,5.76,0,0,1-2.84.67,5.59,5.59,0,0,1-3.1-.83,5.49,5.49,0,0,1-2-2.27,7.35,7.35,0,0,1-.71-3.31,6.64,6.64,0,0,1,.55-2.74A6.85,6.85,0,0,1,33,279.9a6.75,6.75,0,0,1,2.16-1.42,6.54,6.54,0,0,1,2.51-.5,6.6,6.6,0,0,1,1.63.18,6.49,6.49,0,0,1,1.18.4l.78.37-.08,2.38h-.53c-.42-.24-.83-.5-1.23-.76a6.58,6.58,0,0,0-1.32-.68,4.67,4.67,0,0,0-1.67-.28,2.88,2.88,0,0,0-1,.22,2.36,2.36,0,0,0-.89.57,4.86,4.86,0,0,0-.51.75,4.09,4.09,0,0,0-.43,1.22,8.91,8.91,0,0,0-.18,2,6,6,0,0,0,1.06,3.76,3.69,3.69,0,0,0,3.09,1.34,4.16,4.16,0,0,0,1.5-.27,6.79,6.79,0,0,0,1.26-.66Z" transform="translate(-1.48)"/><path class="cls-2" d="M43.42,291v-.86l1.78-.47a.75.75,0,0,0,.34-.19.52.52,0,0,0,.14-.38v-8.21a.53.53,0,0,0-.14-.39,1,1,0,0,0-.38-.22l-1.72-.58v-.85l4.59-.63v10.88a.52.52,0,0,0,.14.38.63.63,0,0,0,.32.19l1.77.47V291Zm3.22-15.15a1.94,1.94,0,0,1-.83-.18,1.55,1.55,0,0,1-.63-.53,1.46,1.46,0,0,1-.23-.82,1.42,1.42,0,0,1,.5-1.16,1.86,1.86,0,0,1,1.19-.4,2,2,0,0,1,1.28.37,1.3,1.3,0,0,1,.49,1.1,1.61,1.61,0,0,1-.23.87,1.49,1.49,0,0,1-.63.56A2.06,2.06,0,0,1,46.64,275.8Z" transform="translate(-1.48)"/><path class="cls-2" d="M55.94,291.2a3.59,3.59,0,0,1-1.95-.51,3.41,3.41,0,0,1-1.25-1.31,3.58,3.58,0,0,1-.44-1.72,3.37,3.37,0,0,1,.61-2.05,4.43,4.43,0,0,1,1.54-1.33,7.77,7.77,0,0,1,2-.72,9.16,9.16,0,0,1,1.94-.22l.57,0,.79.08.56.06v-1.74a2.17,2.17,0,0,0-.65-1.84,2.83,2.83,0,0,0-1.72-.5,3.87,3.87,0,0,0-1.2.2,7,7,0,0,0-1.15.52q-.56.32-1,.63l-.79.53H53.3L53.22,279c.46-.18.92-.34,1.4-.5a10.6,10.6,0,0,1,1.55-.4,10,10,0,0,1,1.91-.16,7.34,7.34,0,0,1,2.21.33A3.48,3.48,0,0,1,62,279.5a4,4,0,0,1,.66,2.52l0,6.53a.87.87,0,0,0,.35.71,1.18,1.18,0,0,0,.77.28,1.66,1.66,0,0,0,.56-.12l.59-.24h.19v1c-.15.11-.37.25-.65.42a7.43,7.43,0,0,1-.9.43,2.27,2.27,0,0,1-.85.19,2.33,2.33,0,0,1-1.66-.52,2.14,2.14,0,0,1-.54-1.62h-.16a4.68,4.68,0,0,1-1.44,1.38,5.2,5.2,0,0,1-1.57.61A7.42,7.42,0,0,1,55.94,291.2Zm1.16-1.7a5.31,5.31,0,0,0,1.72-.32,2.93,2.93,0,0,0,1.48-1V284.6a17.36,17.36,0,0,0-2.87.2,4.13,4.13,0,0,0-1.93.77,2,2,0,0,0-.69,1.66,2.31,2.31,0,0,0,.36,1.38,1.84,1.84,0,0,0,.88.69A2.79,2.79,0,0,0,57.1,289.5Z" transform="translate(-1.48)"/><path class="cls-2" d="M66.05,291v-.86l1.78-.47a.81.81,0,0,0,.34-.19.52.52,0,0,0,.13-.38v-14a.51.51,0,0,0-.16-.4,1.28,1.28,0,0,0-.36-.22L66,273.79V273l4.68-.21v16.31a.48.48,0,0,0,.14.38.88.88,0,0,0,.34.19l1.72.47V291Z" transform="translate(-1.48)"/><path class="cls-2" d="M87.38,291.2a4.52,4.52,0,0,1-2.68-.8A5.12,5.12,0,0,1,83,288.21a7.85,7.85,0,0,1-.6-3.14,8.52,8.52,0,0,1,.73-3.58,6.13,6.13,0,0,1,2.07-2.57,5.4,5.4,0,0,1,3.22-1,4.18,4.18,0,0,1,1.87.37,4.38,4.38,0,0,1,1.23.86v-4.11a.57.57,0,0,0-.13-.4,1,1,0,0,0-.37-.22l-1.78-.67V273l4.63-.21V288.5a.47.47,0,0,0,.15.39,1.53,1.53,0,0,0,.38.23l1.39.56v.85l-4,.66h-.06v-2.14h-.16a4.6,4.6,0,0,1-1.49,1.47,4.46,4.46,0,0,1-1.52.57A8.6,8.6,0,0,1,87.38,291.2Zm1.31-1.73a3.91,3.91,0,0,0,1-.13,3.67,3.67,0,0,0,1-.42,2.25,2.25,0,0,0,.81-.75v-8.11a2.59,2.59,0,0,0-.83-.34,9.23,9.23,0,0,0-1-.19,8.36,8.36,0,0,0-.86-.07,3.55,3.55,0,0,0-2.18.65,3.83,3.83,0,0,0-1.29,1.73,6.76,6.76,0,0,0-.41,2.38,8.54,8.54,0,0,0,.39,2.68,3.94,3.94,0,0,0,1.24,1.88A3.33,3.33,0,0,0,88.69,289.47Z" transform="translate(-1.48)"/><path class="cls-2" d="M103.92,291.25a6.32,6.32,0,0,1-3.21-.8,5.51,5.51,0,0,1-2.14-2.29,8.23,8.23,0,0,1,0-6.93,5.94,5.94,0,0,1,2.16-2.39A6.1,6.1,0,0,1,104,278a5.94,5.94,0,0,1,3.44.92,5.76,5.76,0,0,1,2,2.43,8.1,8.1,0,0,1,.66,3.27,7.52,7.52,0,0,1-.75,3.38,5.88,5.88,0,0,1-2.15,2.4A6.15,6.15,0,0,1,103.92,291.25Zm.17-1.29a2.81,2.81,0,0,0,1.69-.47,3.28,3.28,0,0,0,1.07-1.23,6.08,6.08,0,0,0,.56-1.67,10,10,0,0,0-.2-4.44,4.79,4.79,0,0,0-1.18-2.1,2.92,2.92,0,0,0-2.16-.81,3,3,0,0,0-1.69.46,3.33,3.33,0,0,0-1.06,1.23,6.08,6.08,0,0,0-.57,1.65,9.69,9.69,0,0,0-.17,1.75,10.86,10.86,0,0,0,.18,1.94,6.61,6.61,0,0,0,.61,1.82,3.7,3.7,0,0,0,1.14,1.36A3,3,0,0,0,104.09,290Z" transform="translate(-1.48)"/><path class="cls-2" d="M113.15,285.13v-2h7.08v2Z" transform="translate(-1.48)"/><path class="cls-2" d="M128.46,286.55a6.68,6.68,0,0,1-1.36-.13,5.19,5.19,0,0,1-.95-.26,1.2,1.2,0,0,0-.57.44,1.4,1.4,0,0,0,0,1.68,1.28,1.28,0,0,0,.65.48h4.41a5.73,5.73,0,0,1,2.57.49,3.14,3.14,0,0,1,1.35,1.23A3.08,3.08,0,0,1,135,292a3.77,3.77,0,0,1-.9,2.48,5.94,5.94,0,0,1-2.41,1.7,9.14,9.14,0,0,1-3.39.61,10.59,10.59,0,0,1-2.88-.37,4.71,4.71,0,0,1-2-1.09,2.35,2.35,0,0,1-.74-1.74,2.46,2.46,0,0,1,.79-1.92,4.28,4.28,0,0,1,1.82-1v-.15a3.47,3.47,0,0,1-.85-.41,2.57,2.57,0,0,1-.74-.73,1.91,1.91,0,0,1-.3-1.09,2.26,2.26,0,0,1,.34-1.25,2.77,2.77,0,0,1,.85-.82,3.36,3.36,0,0,1,1-.41v-.13a6.11,6.11,0,0,1-.92-.69,3.53,3.53,0,0,1-.81-1.09,3.46,3.46,0,0,1-.33-1.57,4.19,4.19,0,0,1,.62-2.26,4.29,4.29,0,0,1,1.75-1.56,6,6,0,0,1,2.68-.56,11.46,11.46,0,0,1,1.51.09c.45.06.88.14,1.31.24h4.16l-.07,1.48-3-.19v.11a6.94,6.94,0,0,1,.78,1.16,3.46,3.46,0,0,1,.29,1.52,3.86,3.86,0,0,1-1.33,3A5.45,5.45,0,0,1,128.46,286.55Zm.37,8.88a7.08,7.08,0,0,0,2-.27,3.54,3.54,0,0,0,1.57-.87,2.15,2.15,0,0,0,.62-1.61,2,2,0,0,0-.59-1.3,2.46,2.46,0,0,0-1.91-.64h-4.07a2.11,2.11,0,0,0-1,.66,2.17,2.17,0,0,0-.48,1.51,1.88,1.88,0,0,0,.4,1.23,2.64,2.64,0,0,0,1,.77,5.28,5.28,0,0,0,1.28.4A6.54,6.54,0,0,0,128.83,295.43Zm-.35-10a2.66,2.66,0,0,0,1.44-.37,2.29,2.29,0,0,0,.9-1.09,4.74,4.74,0,0,0,.31-1.81,3.32,3.32,0,0,0-.73-2.36,2.48,2.48,0,0,0-1.91-.78,2.52,2.52,0,0,0-1.24.32,2.32,2.32,0,0,0-.91,1,4.08,4.08,0,0,0-.34,1.82,3.75,3.75,0,0,0,.68,2.45A2.25,2.25,0,0,0,128.48,285.47Z" transform="translate(-1.48)"/><path class="cls-2" d="M143.61,291.25a6.33,6.33,0,0,1-3.22-.8,5.51,5.51,0,0,1-2.14-2.29,8.23,8.23,0,0,1,0-6.93,5.94,5.94,0,0,1,2.16-2.39,6.1,6.1,0,0,1,3.32-.88,5.94,5.94,0,0,1,3.44.92,5.69,5.69,0,0,1,2,2.43,8.1,8.1,0,0,1,.67,3.27,7.53,7.53,0,0,1-.76,3.38,5.88,5.88,0,0,1-2.15,2.4A6.14,6.14,0,0,1,143.61,291.25Zm.16-1.29a2.87,2.87,0,0,0,1.7-.47,3.34,3.34,0,0,0,1.06-1.23,6.08,6.08,0,0,0,.56-1.67,9.6,9.6,0,0,0-.2-4.44,4.69,4.69,0,0,0-1.18-2.1,2.92,2.92,0,0,0-2.16-.81,3,3,0,0,0-1.69.46,3.42,3.42,0,0,0-1.06,1.23,6.44,6.44,0,0,0-.57,1.65,9.69,9.69,0,0,0-.17,1.75,10,10,0,0,0,.19,1.94,6.6,6.6,0,0,0,.6,1.82,3.7,3.7,0,0,0,1.14,1.36A3,3,0,0,0,143.77,290Z" transform="translate(-1.48)"/><path class="cls-2" d="M158.38,291.25a6.29,6.29,0,0,1-3.21-.8,5.53,5.53,0,0,1-2.15-2.29,7.6,7.6,0,0,1-.76-3.53,7.39,7.39,0,0,1,.76-3.4,5.8,5.8,0,0,1,2.16-2.39,6.07,6.07,0,0,1,3.32-.88,5.9,5.9,0,0,1,3.43.92,5.62,5.62,0,0,1,2,2.43,7.94,7.94,0,0,1,.67,3.27,7.52,7.52,0,0,1-.75,3.38,6,6,0,0,1-2.16,2.4A6.09,6.09,0,0,1,158.38,291.25Zm.16-1.29a2.84,2.84,0,0,0,1.7-.47,3.25,3.25,0,0,0,1.06-1.23,5.77,5.77,0,0,0,.56-1.67,9.79,9.79,0,0,0,.17-1.76,9.48,9.48,0,0,0-.37-2.68,4.68,4.68,0,0,0-1.17-2.1,3.31,3.31,0,0,0-3.85-.35,3.36,3.36,0,0,0-1.07,1.23,6.06,6.06,0,0,0-.56,1.65,8.86,8.86,0,0,0-.17,1.75,10.86,10.86,0,0,0,.18,1.94,6.3,6.3,0,0,0,.61,1.82,3.77,3.77,0,0,0,1.13,1.36A3,3,0,0,0,158.54,290Z" transform="translate(-1.48)"/><path class="cls-2" d="M172,291.2a4.52,4.52,0,0,1-2.68-.8,5.12,5.12,0,0,1-1.72-2.19,7.85,7.85,0,0,1-.6-3.14,8.52,8.52,0,0,1,.73-3.58,6.13,6.13,0,0,1,2.07-2.57,5.4,5.4,0,0,1,3.22-1,4.18,4.18,0,0,1,1.87.37,4.59,4.59,0,0,1,1.24.86v-4.11a.57.57,0,0,0-.14-.4,1,1,0,0,0-.37-.22l-1.78-.67V273l4.63-.21V288.5a.47.47,0,0,0,.15.39,1.53,1.53,0,0,0,.38.23l1.39.56v.85l-4,.66h-.06v-2.14h-.16a4.6,4.6,0,0,1-1.49,1.47,4.54,4.54,0,0,1-1.52.57A8.6,8.6,0,0,1,172,291.2Zm1.31-1.73a3.91,3.91,0,0,0,.95-.13,3.78,3.78,0,0,0,1.05-.42,2.37,2.37,0,0,0,.82-.75v-8.11a2.8,2.8,0,0,0-.83-.34,9.83,9.83,0,0,0-1.06-.19,8.36,8.36,0,0,0-.86-.07,3.53,3.53,0,0,0-2.18.65,3.74,3.74,0,0,0-1.28,1.73,6.54,6.54,0,0,0-.42,2.38,8.54,8.54,0,0,0,.39,2.68,3.94,3.94,0,0,0,1.24,1.88A3.33,3.33,0,0,0,173.34,289.47Z" transform="translate(-1.48)"/><path class="cls-2" d="M188.44,291.22a6.46,6.46,0,0,1-3.08-.74,5.46,5.46,0,0,1-2.18-2.21,7.4,7.4,0,0,1-.8-3.58,7.54,7.54,0,0,1,.77-3.42,6.15,6.15,0,0,1,2.15-2.42,5.64,5.64,0,0,1,3.18-.89,5.55,5.55,0,0,1,2.85.69,4.8,4.8,0,0,1,1.82,1.84,5.05,5.05,0,0,1,.63,2.48c0,.1,0,.23,0,.4l0,.47a3,3,0,0,1-.07.4h-9l.07-1.22h6.55a6.25,6.25,0,0,0-.29-2,2.62,2.62,0,0,0-.93-1.32,2.93,2.93,0,0,0-1.71-.46,3.16,3.16,0,0,0-1.72.44,3.28,3.28,0,0,0-1.08,1.17,5.62,5.62,0,0,0-.56,1.6,9,9,0,0,0-.16,1.7,7.83,7.83,0,0,0,.43,2.69,3.85,3.85,0,0,0,1.41,1.91,4.45,4.45,0,0,0,2.62.7,5.27,5.27,0,0,0,1.7-.27,8.33,8.33,0,0,0,1.41-.63,10.07,10.07,0,0,0,1-.67h.33v1.35a10.8,10.8,0,0,1-2.28,1.36A7.3,7.3,0,0,1,188.44,291.22Z" transform="translate(-1.48)"/><path class="cls-2" d="M196.17,291v-.86l1.45-.47a.78.78,0,0,0,.33-.19.52.52,0,0,0,.14-.38v-8.17a.65.65,0,0,0-.17-.48,1.14,1.14,0,0,0-.38-.25l-1.46-.62v-.83l4.17-.65v2.74h.12a12.74,12.74,0,0,1,1.34-1.64,4.41,4.41,0,0,1,1.24-.91,3,3,0,0,1,1.28-.28,5,5,0,0,1,1.15.13,2.21,2.21,0,0,1,1.05.54v2.93H205l-.35-.91a.88.88,0,0,0-.51-.47,1.85,1.85,0,0,0-.78-.18,2.32,2.32,0,0,0-1.19.31,4,4,0,0,0-.95.74c-.28.3-.54.6-.79.9v7.1a.54.54,0,0,0,.47.57l1.82.47V291Z" transform="translate(-1.48)"/><path class="cls-3" d="M196.79,91.78l0-8.37a1,1,0,0,0-.34-.73l-.91-.79a6,6,0,0,0-2.37-1.29c-1.23-.23-1.19-.12-1.69-4-.33-2.66-.85-3.62-2.41-4.2a5.6,5.6,0,0,0-5.19.23c-1.92.91-5.33,4.14-6,5.69-.33.79-.79,1.15-2.27,1.71A13.5,13.5,0,0,0,167.43,87c-1,2-1.26,2.29-2.57,2.77-5,1.91-8.11,8.46-8.11,17.19,0,3.26,0,3.35-1.52,6.42-2.14,4.39-2.7,6.09-3.14,10.11l-.37,3.2a1.07,1.07,0,0,1-.27.54l-2.31,2.47a20.87,20.87,0,0,0-3.43,4.62c-.79,1.72-1.12,2.08-3.33,3.39a31.69,31.69,0,0,0-8,7.1,3.63,3.63,0,0,1-2.41,1.79c-3.56.92-6.09,1.94-11.68,4.7s-6.3,3.24-9.13,5.8a42.65,42.65,0,0,0-4.08,4.18,26.08,26.08,0,0,0-3,6.71c0,1.06-.87-.12-1.68-2.39-1.19-3.32-2.64-5.28-6.49-8.67-2.81-2.49-3.72-3.09-9.08-5.73-3.29-1.56-7.45-3.35-9.25-3.93l-3-1a.77.77,0,0,1-.44-.27l-2.68-2.91a31.54,31.54,0,0,0-5.86-5c-2.7-1.76-3.1-2.14-4.16-4.09a24.45,24.45,0,0,0-3.57-4.62l-2.17-2.2a1.12,1.12,0,0,1-.27-.62l-.14-2.35A26.32,26.32,0,0,0,52.37,114c-1.54-3.33-1.6-3.62-1.77-7.18-.5-9.41-2.87-14.46-7.94-16.9a4.31,4.31,0,0,1-2.8-2.82,12.4,12.4,0,0,0-7.74-6.88,4.7,4.7,0,0,1-3-2.27,14.48,14.48,0,0,0-5.39-5.07,5.9,5.9,0,0,0-5.65-.5C16.55,73,15.82,74.63,15.6,78l-.13,1.64a1,1,0,0,1-.73.88l-.83.23c-2.33.58-3.22,1.7-3.45,4.42-.25,3.16.31,18.8.73,20.42a80.23,80.23,0,0,1,.68,9c.21,4.26.54,8.94.79,10.39A63.83,63.83,0,0,0,17,137c1,2.22,3.62,10.12,5.88,17.84a11.53,11.53,0,0,0,2.48,4.78,64.56,64.56,0,0,0,7.77,7.3c.56.39,2.33,1.91,4,3.32,9.71,8.4,12.91,10.89,17.67,13.8,4,2.44,5.41,4,5.7,6.43.27,1.89-.23,9.39-1,15.09-.33,2.74-.42,3.43.42,3.51v0l87.14,0c.67,0,1,0,1.08-.29a30.55,30.55,0,0,0-.39-3.8c-.73-5.36-1.23-12.68-1-14,.41-2.37.52-2.64,1.52-3.79a31.89,31.89,0,0,1,4.74-3.45c4-2.51,7-4.82,13.49-10.39,2.3-2,5.49-4.64,7-5.88s4.41-3.85,6.32-5.8c3.85-3.89,3.6-3.39,5.89-11.35a148,148,0,0,1,5.78-16.3c1-2.43,2.14-5.26,2.45-6.3.71-2.1,1.23-7.11,1.5-14.62.12-2.88.47-6.9.79-8.87C196.7,101.41,196.81,98.83,196.79,91.78ZM12.71,94.88c-.5,0-.84-2.49-.84-6.34,0-2.68.05-2.87.71-2.87a3.33,3.33,0,0,1,1.27.34C16,87.13,14.93,94.88,12.71,94.88Zm16,41.83c-.45,0-5-5.84-5-6.43s2-2.8,2.62-2.8a5.08,5.08,0,0,1,1.6,1.27c1.46,1.43,2.71,3.8,2.71,5.05C30.65,134.63,29.23,136.71,28.71,136.71Zm11.52-10.87c-.12,0-1.54-.67-3.12-1.46a29.3,29.3,0,0,0-4.45-1.83c-1.66-.39-1.66-.39-1.85-1.91a45.85,45.85,0,0,0-3.39-12.08c-1.35-2.74-1.45-3.14-1.35-5.11,0-.75,0-1.52,0-2.33,0-.31,0-.63,0-.92s0-.33,0-.52c0-.58-.1-1.18-.19-1.78s-.18-1.4-.31-2.1-.27-1.42-.41-2.1c-.07-.29-.13-.59-.21-.88s-.15-.56-.23-.85c-.17-.56-.33-1.12-.52-1.66-.1-.33-.23-.67-.33-1-.19-.54-.42-1.08-.65-1.58s-.45-1-.68-1.39a5,5,0,0,0-.48-.83c-.17-.25-.33-.52-.5-.75a1.09,1.09,0,0,1-.06-.11l-3.91-4.47a1.21,1.21,0,0,1-.19-.29,2.54,2.54,0,0,1-.1-.37,2.76,2.76,0,0,1-.06-.4,3.32,3.32,0,0,1-.07-.72,8.87,8.87,0,0,1,.36-2.27,3,3,0,0,1,1.37-2.31c1.25-.54,3.78-.1,5.3.88,2.08,1.39,4.24,4.88,5.26,8.48a50,50,0,0,1,1.95,11.87c.11,3,.07,3.1-1.22,2.6-.42-.17,0,.47,1.06,1.74a22,22,0,0,1,4.51,8.84c1.45,5.15,2.08,11.78,1.12,12.08-.27.1.08.6.83,1.24C38.88,122.61,40.83,125.84,40.23,125.84Zm6.61,6.48c-.91-1.12-2.33-2.7-3.16-3.51a6.71,6.71,0,0,1-1.83-2.64A19,19,0,0,0,40,122.7a9.41,9.41,0,0,1-1.54-3.29,45,45,0,0,0-1.26-9c-1.06-5-1.46-6.13-3.37-9.25L32.6,99.12a1.23,1.23,0,0,1-.08-.37l-.09-4.68a45.07,45.07,0,0,0-.77-8.34c-1-5-1-4.86,1.69-3.49,2.1,1.08,3,2.08,4.45,4.89a22.19,22.19,0,0,1,2,10.33c0,3.66-.22,4.47-.95,4a2.37,2.37,0,0,0-.9-.33c-.79,0-.41.6.77,1.35a10.12,10.12,0,0,1,1.83,1.41l.71.71-.27-.83a9.63,9.63,0,0,1-.17-2.81c.11-1.08.17-3.72.17-5.86,0-2.33.12-3.85.33-3.85.92,0,3.68,2.64,4.51,4.29a39.46,39.46,0,0,1,2.81,11c.15,2.27.12,2.66-.42,3.06s-.56.5.42,1.52c2.33,2.41,4.7,9.68,4.7,14.38,0,1.56-.09,1.67-.83,1.67-1.21,0-1,.47.45.91,2.52.75,5.24,4,5.85,6.94.18,1,.18,1-.61.73a34.73,34.73,0,0,0-3.61-.85l-2.25-.46a1,1,0,0,1-.75-.68l-.56-1.94a23.13,23.13,0,0,0-4.45-8.62l-1.25-1.29a1.33,1.33,0,0,1-.18-.48L45,117.77a32.29,32.29,0,0,0-.73-5.88c-.62-2.35-1.74-5-2-4.76a9.73,9.73,0,0,0,.48,2.78,41.92,41.92,0,0,1,1.35,9v.59a1,1,0,0,1-1,1h-.1l-.07,0c-.62-.06-1.14,0-1.14.09a11.15,11.15,0,0,0,1.89,1.7c3.14,2.43,5.22,6.15,6.2,11.06.21,1,.12,1.06-.63,1.06S48.07,133.9,46.84,132.32ZM67,146l-3.49.19a1,1,0,0,1-.68-.25l-1.19-1a24.78,24.78,0,0,0-7.9-4.39c-1.85-.56-2.06-.73-3-2.41-.77-1.35-.94-1.87-.61-2,.63-.39,3.75,0,7.16.86,3.09.79,4.53,1.49,8.12,3.88,2,1.31,5.43,4.39,5.43,4.8A13.73,13.73,0,0,1,67,146ZM180.28,77.71a14.31,14.31,0,0,1,2.31-2.79c2.41-1.55,5.42-1.76,6.48-.45.86,1.06.73,3.22.46,4.49,0,.14-.08.33-.12.5a4.24,4.24,0,0,1-.11.41,5.11,5.11,0,0,1-.29.77,1.38,1.38,0,0,1-.08.17l-.54.7c-.19.23-.33.46-.5.65s-.21.27-.29.39c-.23.32-.46.61-.67.86a24.05,24.05,0,0,0-2.72,4.07,24.64,24.64,0,0,0-2,5.26c-.83,2.93-.91,3.87-.91,8.23l0,4.7a1,1,0,0,1-.06.35l-1,1.71a41.6,41.6,0,0,0-3.74,13.14c-.11,1.08-.21,1.18-1.92,1.68a39,39,0,0,0-4.57,1.93,11.11,11.11,0,0,1-2.91,1.23c-.4-.37,1.35-3.24,2.64-4.32.89-.75,1.14-1.15.79-1.15-.67,0-.69-1-.23-5.61.69-6.3,2.91-12.2,5.76-15.26,1.58-1.68,1.72-2.18.46-1.52l-.71.4.19-3.89C176.29,87.31,177.87,81.29,180.28,77.71Zm-31.41,55.86a9.77,9.77,0,0,1,5.13-5.36l1.92-.9-1.13-.1-.18,0a1,1,0,0,1-.85-1l.12-1.48a39,39,0,0,1,2.7-10.76,14.39,14.39,0,0,1,2-3c.83-.91,1-1.31.62-1.31-1.29,0-1-4.63.73-10.22,1-3.25,1.62-4.6,2.64-5.8a12.49,12.49,0,0,1,3.33-2.42,32.15,32.15,0,0,1,.29,4.56c.06,2.45.12,5.15.16,6a5.63,5.63,0,0,1-.27,2.1c-.16.4.4.11,1.52-.79a8.18,8.18,0,0,0,1.87-1.68c.17-.37-.83-.35-1.08,0a.73.73,0,0,1-.56.33c-.23,0-.29-1.8-.21-5.53.15-4.67.27-5.75.88-7.33a13,13,0,0,1,5-6.49c2.18-1.29,2.84-1.25,2.7.1-.06.54-.36,1.88-.63,3a40.48,40.48,0,0,0-.72,7.73l-.19,5.53a.86.86,0,0,1-.1.41l-1,1.46c-2.5,3.93-4.18,10-4.87,17.63a7.59,7.59,0,0,1-1.64,4.61,18.89,18.89,0,0,0-1.79,3.31,5.51,5.51,0,0,1-1.37,2.14c-.56.54-2,2.12-3.16,3.49-1.58,1.92-2.35,2.58-2.93,2.58-1,0-1,.06-.14-2.91,1.26-4.51,3.43-7.73,6.69-9.87,1.58-1,1.54-1.36-.1-1.15l-.21,0a1,1,0,0,1-1.1-.95v-.21a47.41,47.41,0,0,1,1.35-9.09c.75-2.93.64-4-.21-2a29.86,29.86,0,0,0-2,9.71l-.18,3.45a1,1,0,0,1-.25.6l-1.25,1.37a8,8,0,0,0-.56.69,4.27,4.27,0,0,0-.29.41,19,19,0,0,0-1.77,3.12c-.21.44-.4.9-.58,1.35a27.4,27.4,0,0,0-1.06,3c-.17.54-.34,1.08-.48,1.64,0,0,0,0,0,.08a.86.86,0,0,1-.38.48,6.36,6.36,0,0,1-1.33.42l-.56.12c-1.12.23-2.76.63-3.62.85s-1.58.34-1.58.17A13.83,13.83,0,0,1,148.87,133.57ZM141,141.41a30.27,30.27,0,0,1,8.63-4.45,39.52,39.52,0,0,1,6.67-1.19,1.28,1.28,0,0,1,.79.25c.35.23.27.6-.5,2-.91,1.66-1,1.77-3.43,2.6a21.57,21.57,0,0,0-7.59,4.26l-1,1a1,1,0,0,1-.7.27l-3.56-.15a20.28,20.28,0,0,1-3.91-.39C136.33,145.25,139,142.8,141,141.41Zm53.82-38.13c-.27,1.81-.73,5.8-1,8.9-1.1,11.87-1.43,13.82-3,17.94-.83,2.08-1.85,4.45-2.25,5.26a134.05,134.05,0,0,0-6.25,18.27,13.87,13.87,0,0,1-1.38,3.58c-1.33,1.87-8.62,8.75-12.09,11.37-1.67,1.27-4.08,3.16-5.37,4.22s-3.55,2.82-5.07,4c-6.22,4.57-7.57,5.59-9.31,6.82-4.41,3.13-5.33,6.94-4.35,18.21.13,1.35.25,2.68.33,3.78a1.23,1.23,0,0,1,0,.27,1.62,1.62,0,0,1-.06.17,1,1,0,0,1-.89.62H107v-.94c0-1.87-.29-7.23-.68-11.91-.9-11.16-.56-18.27,1.22-25.48.79-3.21,1.58-4.45,4.54-7.4a53.55,53.55,0,0,1,17.19-11.11l3.43-1.35a1,1,0,0,1,.33-.06l5.09-.06c2.89,0,5.66-.06,6.16-.06a5.37,5.37,0,0,0,2.53-1.5,25.81,25.81,0,0,1,7.28-4.7c2.35-1,2.53-1.16,3.49-3a32.49,32.49,0,0,1,12.54-12.91l3-1.62a.91.91,0,0,1,.48-.13h3.6l3.45,0a1,1,0,0,1,.68.27l.9.87c1.29,1.23,2.3,2.91,2,3.25-.12.08-.68-.32-1.29-.88-1.74-1.68-3.34-1.35-5.24,1.1a13.41,13.41,0,0,0-1.76,3,2.84,2.84,0,0,0,0,2.95,8.73,8.73,0,0,0,1.29,2.35l.29.31a1,1,0,0,1,.1,1.14l-1.29,2.19c-2.86,5.05-4.34,6.71-10.43,11.93-3.12,2.66-4.08,3.72-5.43,5.76a48.33,48.33,0,0,1-4.45,5c-.85.85-1.62,1.66-2.18,2.33a1,1,0,0,0,1.1,1.56,5.54,5.54,0,0,0,1.29-.69,17.85,17.85,0,0,0,2.56-2.74c1.68-2.25,6.53-7.8,7.9-9.09.56-.52,2.68-2.53,4.68-4.51a23.5,23.5,0,0,0,6-8,61.86,61.86,0,0,1,4.72-7.3c2.83-3.57,4.08-6,3.78-7.48s-2.26-3.76-3.9-4.58a11.2,11.2,0,0,0-2.85-.93l-.58-.06a.93.93,0,0,1-.77-.63.6.6,0,0,1-.09-.43l.07-.54c.39-6,2.82-12.79,5.92-16.74a9.63,9.63,0,0,0,1.35-1.91c0-.08-.54.21-1.18.69l0,0a.93.93,0,0,1-.75.16,1,1,0,0,1-.81-1,51.65,51.65,0,0,1,.91-8.09c1-4.74,2.25-7.17,4.8-9.52,2.48-2.16,4.56-2.39,6.41-.69,1,1,.87,1.48-.44,1.48-1.7,0-2.18,1-2.18,4.74s.5,5.17,2.31,5.92c1.12.5,1.16.54,1.16,2.45A44.67,44.67,0,0,1,194.77,103.28Zm-11.35,27.07c0,.62-4.45,6.36-5,6.36s-1.93-2.37-1.93-3.1c0-1.52,3.26-6.13,4.34-6.13a4.64,4.64,0,0,1,1.46,1.12A3.69,3.69,0,0,1,183.42,130.35Zm11.79-40.27c0,1.29-.11,2.47-.17,3.33a1,1,0,0,1-1.72.56,3.22,3.22,0,0,1-.54-.9,9.75,9.75,0,0,1,0-6.36c.41-.85.74-1,1.53-1h1Z" transform="translate(-1.48)"/><path class="cls-4" d="M183.42,130.35c0,.62-4.45,6.36-5,6.36s-1.93-2.37-1.93-3.1c0-1.52,3.26-6.13,4.34-6.13a4.64,4.64,0,0,1,1.46,1.12A3.69,3.69,0,0,1,183.42,130.35Z" transform="translate(-1.48)"/><path class="cls-4" d="M195.33,85.67l-.12,4.41c0,1.29-.11,2.47-.17,3.33a1,1,0,0,1-1.72.56,3.22,3.22,0,0,1-.54-.9,9.75,9.75,0,0,1,0-6.36c.41-.85.74-1,1.53-1Z" transform="translate(-1.48)"/><path class="cls-4" d="M12.71,94.88c-.5,0-.84-2.49-.84-6.34,0-2.68.05-2.87.71-2.87a3.33,3.33,0,0,1,1.27.34C16,87.13,14.93,94.88,12.71,94.88Z" transform="translate(-1.48)"/><path class="cls-4" d="M30.65,133.8c0,.83-1.42,2.91-1.94,2.91s-5-5.84-5-6.43,2-2.8,2.62-2.8a5.08,5.08,0,0,1,1.6,1.27C29.4,130.18,30.65,132.55,30.65,133.8Z" transform="translate(-1.48)"/><path class="cls-5" d="M70.82,145.59A15.22,15.22,0,0,1,67,146l-3.88.19-1.48-1.31a25.08,25.08,0,0,0-7.91-4.38c-1.84-.56-2-.72-3-2.41-.76-1.35-.93-1.88-.6-2,.63-.39,3.76,0,7.15.86,3.1.79,4.54,1.48,8.13,3.89C67.39,142.1,70.82,145.16,70.82,145.59Z" transform="translate(-1.48)"/><path class="cls-5" d="M40.23,125.84a32.24,32.24,0,0,1-3.13-1.45,29.3,29.3,0,0,0-4.44-1.85c-1.65-.39-1.65-.39-1.85-1.91a46.18,46.18,0,0,0-3.39-12.08c-1.35-2.73-1.44-3.13-1.35-5.1.33-6.22-1.61-14.64-4.58-18.75L17.41,80a6.79,6.79,0,0,1,.07-3.92,3,3,0,0,1,1.38-2.3c1.25-.53,3.78-.1,5.3.88,2.08,1.39,4.25,4.88,5.27,8.47a50.68,50.68,0,0,1,1.94,11.89c.1,3,.07,3.09-1.21,2.6-.43-.17,0,.46,1.05,1.74a21.8,21.8,0,0,1,4.51,8.82c1.44,5.17,2.07,11.79,1.11,12.08-.26.1.1.6.83,1.25C38.88,122.61,40.82,125.84,40.23,125.84Z" transform="translate(-1.48)"/><path class="cls-5" d="M58.24,135.74a35.5,35.5,0,0,0-3.63-.85l-2.83-.56-.72-2.5a23.25,23.25,0,0,0-4.44-8.63l-1.42-1.48-.16-4a34.33,34.33,0,0,0-.73-5.89c-.62-2.34-1.74-5-2-4.75a10.22,10.22,0,0,0,.49,2.77,42.72,42.72,0,0,1,1.35,9v1.68L43,120.5c-.63-.07-1.15,0-1.15.07a10.4,10.4,0,0,0,1.9,1.71c3.13,2.44,5.2,6.16,6.19,11.06.2,1,.13,1-.63,1s-1.25-.49-2.46-2.07c-.92-1.12-2.34-2.7-3.16-3.52a6.77,6.77,0,0,1-1.84-2.63A17.63,17.63,0,0,0,40,122.71a9.26,9.26,0,0,1-1.52-3.3,46.34,46.34,0,0,0-1.28-9c-1-5-1.45-6.13-3.36-9.25L32.52,99l-.09-4.94a45,45,0,0,0-.76-8.33c-1-5-1.05-4.87,1.68-3.49,2.1,1.08,3,2.07,4.44,4.87a22,22,0,0,1,2,10.34c0,3.65-.23,4.47-.95,4a2.45,2.45,0,0,0-.89-.33c-.79,0-.43.6.75,1.35a9.9,9.9,0,0,1,1.85,1.42l.69.69-.26-.82a9.66,9.66,0,0,1-.16-2.8c.09-1.09.16-3.72.16-5.86,0-2.34.13-3.86.33-3.86.92,0,3.69,2.64,4.51,4.29a39.2,39.2,0,0,1,2.8,11c.16,2.28.13,2.67-.4,3.07s-.56.49.4,1.51c2.33,2.41,4.7,9.68,4.7,14.39,0,1.55-.06,1.65-.82,1.65-1.22,0-1,.49.46.92,2.51.75,5.24,4,5.83,6.94C59,136,59,136,58.24,135.74Z" transform="translate(-1.48)"/><path class="cls-5" d="M156.54,138.05c-.92,1.68-1,1.78-3.42,2.61a21.54,21.54,0,0,0-7.6,4.27l-1.32,1.25-3.95-.16a20,20,0,0,1-3.92-.4c0-.36,2.7-2.83,4.61-4.21a30.53,30.53,0,0,1,8.63-4.45,37.9,37.9,0,0,1,6.68-1.18,1.26,1.26,0,0,1,.79.23C157.4,136.24,157.3,136.63,156.54,138.05Z" transform="translate(-1.48)"/><path class="cls-5" d="M189.53,79a10.56,10.56,0,0,1-.55,1.77c-2.75,3.66-3.43,4.22-4.78,6.75a25.48,25.48,0,0,0-2,5.27c-.82,2.93-.92,3.85-.92,8.23l0,4.94-1.05,1.81a41.47,41.47,0,0,0-3.76,13.13c-.1,1.09-.19,1.19-1.91,1.68a38,38,0,0,0-4.58,1.95,11,11,0,0,1-2.89,1.22c-.4-.36,1.35-3.23,2.63-4.32.89-.76,1.15-1.15.79-1.15-.66,0-.69-1-.23-5.6.69-6.32,2.9-12.21,5.76-15.27,1.59-1.68,1.72-2.17.47-1.52l-.73.4.2-3.89c.36-7,1.94-13.07,4.35-16.66a13.44,13.44,0,0,1,2.3-2.77c2.4-1.57,5.43-1.77,6.48-.46C189.93,75.53,189.8,77.68,189.53,79Z" transform="translate(-1.48)"/><path class="cls-5" d="M176.24,82.55c-.07.55-.37,1.87-.63,3a39.41,39.41,0,0,0-.73,7.73l-.2,5.8-1.05,1.61c-2.5,3.92-4.18,10-4.87,17.61a7.55,7.55,0,0,1-1.64,4.61,19.11,19.11,0,0,0-1.78,3.33,5.86,5.86,0,0,1-1.38,2.14c-.56.53-2,2.11-3.17,3.49-1.58,1.91-2.34,2.56-2.93,2.56-1,0-1,.07-.13-2.89,1.25-4.51,3.43-7.74,6.69-9.88,1.58-1.05,1.54-1.35-.1-1.15l-1.32.19v-1.34a48.56,48.56,0,0,1,1.35-9.09c.76-2.93.66-4-.2-2a30,30,0,0,0-2,9.71l-.19,3.79-1.49,1.65c-1.91,2.14-3.66,6-4.84,10.56a4.65,4.65,0,0,1-2.2.76c-1.12.23-2.77.63-3.62.86s-1.58.33-1.58.16a13,13,0,0,1,.69-2.14,9.83,9.83,0,0,1,5.13-5.36l1.91-.89-1.12-.1-1.12-.1.2-2.37a38.44,38.44,0,0,1,2.7-10.76,14.72,14.72,0,0,1,2-3c.82-.92,1-1.31.62-1.31-1.28,0-1-4.65.73-10.24,1-3.23,1.62-4.58,2.64-5.8a12.72,12.72,0,0,1,3.32-2.41,29.71,29.71,0,0,1,.3,4.55c.06,2.47.13,5.17.16,6a6,6,0,0,1-.26,2.11c-.17.39.39.1,1.51-.79a10.22,10.22,0,0,0,1.88-1.68c.16-.39-.83-.36-1.09,0a.75.75,0,0,1-.56.33c-.23,0-.29-1.81-.2-5.53.14-4.68.27-5.76.86-7.34a13.12,13.12,0,0,1,5-6.48C175.71,81.16,176.37,81.2,176.24,82.55Z" transform="translate(-1.48)"/><path class="cls-5" d="M195.27,98.12a44.47,44.47,0,0,1-.5,5.16c-.26,1.81-.72,5.8-1,8.9-1.09,11.88-1.42,13.82-3,17.94-.82,2.07-1.84,4.44-2.24,5.26a133.74,133.74,0,0,0-6.25,18.28,13.92,13.92,0,0,1-1.38,3.56c-1.32,1.87-8.63,8.75-12.09,11.38-1.67,1.26-4.08,3.17-5.36,4.22s-3.56,2.83-5.08,4c-6.21,4.57-7.56,5.59-9.31,6.81-4.41,3.14-5.34,6.95-4.35,18.21.13,1.37.24,2.69.33,3.79a1,1,0,0,1-1,1.06H107v-.93c0-1.88-.3-7.25-.69-11.92-.89-11.16-.56-18.27,1.22-25.48.79-3.2,1.58-4.45,4.54-7.41a53.54,53.54,0,0,1,17.18-11.1l3.43-1.34a.83.83,0,0,1,.34-.07l5.09-.07,6.16-.06a5.49,5.49,0,0,0,2.54-1.48,26,26,0,0,1,7.27-4.71c2.34-1,2.53-1.15,3.49-3a32.47,32.47,0,0,1,12.54-12.9l3-1.64a1.12,1.12,0,0,1,.47-.11h3.61l3.45,0a1,1,0,0,1,.69.28l.89.87c1.28,1.22,2.3,2.9,2,3.23-.13.09-.69-.3-1.29-.86-1.74-1.68-3.35-1.35-5.23,1.09a13.28,13.28,0,0,0-1.78,3,2.88,2.88,0,0,0,0,3,9.41,9.41,0,0,0,1.29,2.34l.28.32a1,1,0,0,1,.11,1.15l-1.28,2.19c-2.87,5-4.35,6.71-10.44,11.91-3.12,2.67-4.08,3.73-5.43,5.77a46,46,0,0,1-4.45,5c-.85.85-1.61,1.67-2.18,2.33a1,1,0,0,0,1.1,1.55,4.8,4.8,0,0,0,1.28-.69,17.28,17.28,0,0,0,2.57-2.73,119.26,119.26,0,0,1,7.9-9.08c.56-.53,2.67-2.54,4.68-4.52a23.89,23.89,0,0,0,6-8,63.78,63.78,0,0,1,4.71-7.31c2.83-3.56,4.08-6,3.78-7.47s-2.27-3.76-3.91-4.58a10.8,10.8,0,0,0-2.83-.93l-.58-.07a1,1,0,0,1-.86-1.06l.06-.54c.39-6,2.82-12.78,5.92-16.73a10,10,0,0,0,1.35-1.91c0-.09-.53.2-1.19.69l0,0a1,1,0,0,1-1.55-.81,52.6,52.6,0,0,1,.91-8.09c1-4.75,2.24-7.18,4.81-9.52,2.47-2.17,4.55-2.4,6.39-.69,1,1,.89,1.48-.43,1.48-1.71,0-2.17,1-2.17,4.74s.49,5.17,2.3,5.93C195.23,96.18,195.27,96.21,195.27,98.12Z" transform="translate(-1.48)"/><path class="cls-5" d="M101.56,203.94l-.11,2.7H62.24l.09-1c.64-10.2.68-14.13.12-16-.83-2.89-2.3-4.78-5.49-7-2.68-1.89-8.66-6.4-18.25-13.8a103.4,103.4,0,0,1-8.25-7.32c-4.72-4.66-4.62-4.47-6.26-10.69A141.82,141.82,0,0,0,18.51,135c-.57-1.18-1.58-3.74-2.31-5.63-1.27-3.29-1.39-3.87-2.14-11.48-.46-4.38-.92-9.12-1-10.47s-.44-3.58-.69-4.93c-.83-4.49-.6-6.2.94-6.92s2.2-2.27,2.2-6c0-2.89-.06-3.2-.75-3.87A2.79,2.79,0,0,0,13.1,85c-1.18,0-1.16-.73.13-1.77s3-1.16,5,.12c3.58,2.33,5.64,7.07,6.53,14.66.42,3.85.42,5.43,0,5.43a3.65,3.65,0,0,1-1.35-.83c-1.37-1.19-1.54-.75-.29.66,2.76,3.16,5.24,9.06,6.07,14.39.75,4.74.81,4.42-1.06,4.65a9.28,9.28,0,0,0-2.7.71,10.93,10.93,0,0,0-4,4.39c-.3.91-.23,1.33.62,3.13a32.32,32.32,0,0,0,3.22,4.91,44.41,44.41,0,0,1,3.89,5.93c2.66,5,3.55,6.21,7.48,9.87A108.82,108.82,0,0,1,48.19,163.9a18.73,18.73,0,0,0,2.66,2.93c1.23.92,3.18,1.29,3.41.58.09-.23-1.45-2.1-3.43-4.13a69.22,69.22,0,0,1-4.8-5.64,36.14,36.14,0,0,0-5.63-5.59c-5.18-4.45-6.93-6.36-8.67-9.56-.73-1.27-1.58-2.79-1.94-3.39-.62-1-.6-1,.11-1.81a6.62,6.62,0,0,0,1.6-4.68c-.23-1.27-2.77-4.9-3.78-5.42s-2.27-.4-3.5.66c-.75.69-1.14.85-1.14.56,0-.79,1.41-2.68,2.62-3.49s1.45-.77,4.51-.66c3.26.1,3.41.12,6.53,1.74a31.65,31.65,0,0,1,12.74,12.87c1,2,1.08,2,4.51,3.66a26.15,26.15,0,0,1,5.76,3.7l2.31,2H73.18l3.7,1.29a34.83,34.83,0,0,1,9.6,4.68c6.22,3.87,10.44,7.86,12.19,11.48a45.5,45.5,0,0,1,3.14,10.54C102.16,178.64,102.05,191.36,101.56,203.94Z" transform="translate(-1.48)"/><ellipse class="cls-5" cx="32.62" cy="137.65" rx="1.36" ry="0.09"/><path class="cls-6" d="M104.89,154.69h-2.48c-.22,0-.39-.36-.39-.79L101.91.8c0-.44.17-.8.38-.8h2.49c.21,0,.38.36.38.79l.12,153.1C105.28,154.33,105.1,154.69,104.89,154.69Z" transform="translate(-1.48)"/><path class="cls-7" d="M26.25,78.64V76.16c0-.21.35-.39.79-.39l153.1-.11c.44,0,.79.17.79.38v2.49c0,.21-.36.39-.8.39L27,79C26.6,79,26.25,78.86,26.25,78.64Z" transform="translate(-1.48)"/><path class="cls-8" d="M159.2,131.11l-1.76,1.76c-.15.15-.52,0-.83-.28L48.27,24.41c-.31-.31-.44-.68-.29-.84l1.76-1.75c.15-.16.52,0,.83.28L158.91,130.28C159.22,130.59,159.35,131,159.2,131.11Z" transform="translate(-1.48)"/><path class="cls-9" d="M49.82,133l-1.76-1.75c-.15-.15,0-.53.29-.84L156.53,22c.31-.31.68-.43.83-.28l1.76,1.75c.15.15,0,.53-.29.84L50.65,132.66C50.34,133,50,133.1,49.82,133Z" transform="translate(-1.48)"/><path class="cls-10" d="M175.54,105.74l-.95,2.3c-.08.2-.47.22-.88,0L32.22,49.61c-.4-.17-.66-.47-.58-.66l1-2.3c.08-.2.47-.22.88,0L175,105.08C175.36,105.25,175.63,105.54,175.54,105.74Z" transform="translate(-1.48)"/><path class="cls-11" d="M75.19,149.3l-2.29-1c-.2-.08-.22-.48-.06-.88L131.33,6c.17-.41.46-.67.66-.59l2.3,1c.19.08.22.48.05.88L75.85,148.71C75.69,149.12,75.39,149.38,75.19,149.3Z" transform="translate(-1.48)"/><path class="cls-12" d="M174.55,46.55l.95,2.29c.08.2-.18.49-.58.66L33.51,108.2c-.4.16-.8.14-.88-.06l-1-2.29c-.08-.2.18-.49.59-.66l141.4-58.7C174.07,46.33,174.47,46.35,174.55,46.55Z" transform="translate(-1.48)"/><path class="cls-13" d="M134.39,148.3l-2.3,1c-.19.08-.49-.19-.66-.59L72.74,7.27c-.17-.41-.14-.8.05-.88l2.3-1c.19-.08.49.18.66.59l58.69,141.4C134.61,147.83,134.59,148.22,134.39,148.3Z" transform="translate(-1.48)"/><path id="path4476" class="cls-14" d="M109.4,133a56.59,56.59,0,1,1,50.49-62.11A56.59,56.59,0,0,1,109.4,133Z" transform="translate(-1.48)"/><path id="path4796" class="cls-15" d="M160.47,71.47a57.18,57.18,0,1,0-51,63A57.34,57.34,0,0,0,160.47,71.47Zm-4.08.42A53.08,53.08,0,1,1,98.11,24.28,53.22,53.22,0,0,1,156.39,71.89Z" transform="translate(-1.48)"/><path class="cls-16" d="M96.3,75.17h31.49c-2.78-30-48.32-28.51-49,1.82-1,26,35.65,34.57,46.55,11.53" transform="translate(-1.48)"/></g></g></svg>